<svg width="103" height="52" viewBox="0 0 103 52" fill="none" xmlns="http://www.w3.org/2000/svg">
<path d="M67.202 31.894C68.408 31.894 68.84 31.552 68.84 29.95C68.84 28.51 68.354 28.006 67.166 28.006C66.68 28.006 66.14 28.024 65.546 28.024C65.546 29.266 65.546 30.706 65.564 31.858C66.212 31.894 66.734 31.894 67.202 31.894ZM68.714 24.28C68.714 22.768 68.3 22.48 67.166 22.48C66.662 22.48 66.14 22.498 65.546 22.516C65.546 23.596 65.546 25 65.546 26.26C66.122 26.296 66.662 26.278 67.13 26.278C68.264 26.26 68.714 25.648 68.714 24.28ZM69.038 27.16V27.25C69.38 27.286 69.668 27.34 69.902 27.448C70.874 27.898 71.252 28.816 71.252 30.382C71.252 32.956 70.172 34 67.706 34H63.044C63.116 32.146 63.116 30.112 63.116 27.25C63.116 24.388 63.116 22.264 63.044 20.5H67.616C69.992 20.5 71.126 21.382 71.126 24.118C71.126 25.594 70.82 26.386 70.064 26.872C69.812 27.016 69.452 27.106 69.038 27.16ZM77.8536 28.348C77.8536 25.45 77.2596 24.766 76.2876 24.766C75.3156 24.766 74.7396 25.432 74.7396 28.348C74.7216 31.246 75.2976 32.074 76.2876 32.074C77.2956 32.074 77.8536 31.228 77.8536 28.348ZM80.1756 28.222C80.1756 32.29 78.8076 34.18 76.2876 34.18C73.7856 34.18 72.4356 32.29 72.4356 28.222C72.4356 24.136 73.8936 22.642 76.2876 22.642C78.6816 22.642 80.1756 24.136 80.1756 28.222ZM88.9835 34H86.5715C86.5895 32.056 86.6075 29.536 86.6075 26.26C86.6075 25.18 86.3195 24.73 85.4735 24.73C84.6095 24.73 83.9615 25.27 83.9615 26.674C83.9615 31.3 83.9795 32.65 83.9795 34H81.5855C81.6215 32.416 81.6215 30.958 81.6215 28.492C81.6215 26.08 81.6035 24.298 81.5855 22.84H83.9975C83.9795 23.344 83.9795 23.704 83.9615 24.136L84.0515 24.154C84.5015 23.146 85.3655 22.714 86.4995 22.714C88.1195 22.714 88.9655 23.578 88.9655 25.792C88.9655 27.826 88.9295 28.78 88.9295 29.986C88.9295 31.498 88.9475 32.722 88.9835 34ZM93.085 34H90.691C90.727 32.074 90.727 29.608 90.727 27.106C90.727 24.532 90.727 22.21 90.691 20.068H93.103C93.067 22.048 93.067 24.19 93.067 27.196C93.067 30.022 93.067 31.912 93.085 34ZM98.2218 24.496C97.3578 24.496 96.8718 25.054 96.7818 27.754C97.6638 27.79 98.6358 27.772 99.4638 27.754C99.4818 27.52 99.4998 27.196 99.4998 26.746C99.4998 25.054 99.1398 24.496 98.2218 24.496ZM101.606 30.418C101.642 32.992 100.958 34.18 98.2758 34.18C95.9178 34.18 94.5498 32.812 94.5498 28.528C94.5498 24.154 95.9718 22.642 98.3118 22.642C100.796 22.642 101.606 24.136 101.606 26.854C101.606 27.736 101.57 28.762 101.534 29.212C100.868 29.194 99.8238 29.176 98.8338 29.176C98.0598 29.176 97.3038 29.194 96.7638 29.194C96.8178 31.768 97.2858 32.344 98.2938 32.344C99.2298 32.344 99.4818 31.84 99.4998 30.418C99.7878 30.436 100.148 30.454 100.562 30.454C100.994 30.454 101.318 30.436 101.606 30.418Z" fill="white"/>
<g clip-path="url(#clip0_1807_1282)">
<path d="M26 52C40.3594 52 52 40.3594 52 26C52 11.6406 40.3594 0 26 0C11.6406 0 0 11.6406 0 26C0 40.3594 11.6406 52 26 52Z" fill="#DF1683"/>
<path d="M36.7737 27.1289C35.3984 25.6097 33.4876 24.5801 31.3349 24.3398C34.6789 23.8532 37.2455 20.9869 37.2455 17.5256V17.4396C37.2455 13.6342 34.1463 10.5527 30.3245 10.5527H14.5851V10.5631H13.4709C13.1979 10.5631 12.9887 10.8049 13.0258 11.075L13.4843 14.3596C13.6504 15.551 13.7335 16.7527 13.7335 17.9559V33.9831C13.7335 35.1849 13.6504 36.3866 13.4843 37.5764L13.0199 40.9101C12.9828 41.1801 13.192 41.4219 13.465 41.4219H14.5851V41.4471H30.3616C35.124 41.4471 38.9843 37.6061 38.9843 32.866C38.9843 30.6584 38.1475 28.6481 36.7737 27.1289Z" fill="white"/>
</g>
<defs>
<clipPath id="clip0_1807_1282">
<rect width="52" height="52" fill="white"/>
</clipPath>
</defs>
</svg>
