<svg width="42" height="42" viewBox="0 0 42 42" fill="none" xmlns="http://www.w3.org/2000/svg">
<circle cx="21" cy="21" r="21" fill="#8FD2EA"/>
<g clip-path="url(#clip0_12_113)">
<path d="M7.88989 20.7335C7.88989 13.6875 13.5545 7.96924 20.5344 7.96924C27.5143 7.96924 33.1788 13.6875 33.1788 20.7335C33.1788 27.7796 27.5143 33.4978 20.5344 33.4978" stroke="#1A172B" stroke-width="2" stroke-linejoin="round"/>
<path d="M17.0107 29.4079C18.2877 29.9409 19.7086 30.1929 21.2064 30.0863C25.738 29.7665 29.4344 26.0641 29.7896 21.4896C30.2217 15.8779 25.7572 11.2064 20.2655 11.3712C15.2154 11.5166 11.2598 15.8488 11.2598 20.9565V30.8326L14.2457 29.4854C15.1194 29.088 16.1275 29.0396 17.0203 29.4079H17.0107Z" stroke="#1A172B" stroke-width="2" stroke-linejoin="round"/>
<path d="M20.5344 22.7978C21.4676 22.7978 22.2241 22.0341 22.2241 21.092C22.2241 20.1499 21.4676 19.3862 20.5344 19.3862C19.6011 19.3862 18.8446 20.1499 18.8446 21.092C18.8446 22.0341 19.6011 22.7978 20.5344 22.7978Z" fill="#1A172B"/>
<path d="M16.3195 22.7978C17.2528 22.7978 18.0093 22.0341 18.0093 21.092C18.0093 20.1499 17.2528 19.3862 16.3195 19.3862C15.3863 19.3862 14.6298 20.1499 14.6298 21.092C14.6298 22.0341 15.3863 22.7978 16.3195 22.7978Z" fill="#1A172B"/>
<path d="M24.7492 22.7978C25.6825 22.7978 26.439 22.0341 26.439 21.092C26.439 20.1499 25.6825 19.3862 24.7492 19.3862C23.816 19.3862 23.0594 20.1499 23.0594 21.092C23.0594 22.0341 23.816 22.7978 24.7492 22.7978Z" fill="#1A172B"/>
<path d="M7.56346 18.5044H8.83078V23.6702H7.56346C6.14251 23.6799 5 22.5169 5 21.0921C5 19.6674 6.14251 18.5044 7.56346 18.5044Z" fill="#1A172B"/>
<path d="M34.4365 23.6798H33.1692V18.514H34.4365C35.8479 18.514 37 19.6673 37 21.1017C37 22.5264 35.8575 23.6895 34.4365 23.6895V23.6798Z" fill="#1A172B"/>
<path d="M21.504 31.9858H19.5742C18.7523 31.9858 18.0861 32.6584 18.0861 33.4881C18.0861 34.3178 18.7523 34.9903 19.5742 34.9903H21.504C22.3259 34.9903 22.9921 34.3178 22.9921 33.4881C22.9921 32.6584 22.3259 31.9858 21.504 31.9858Z" fill="#1A172B"/>
</g>
<defs>
<clipPath id="clip0_12_113">
<rect width="32" height="28" fill="white" transform="translate(5 7)"/>
</clipPath>
</defs>
</svg>
