<svg width="78" height="105" viewBox="0 0 78 105" fill="none" xmlns="http://www.w3.org/2000/svg">
<path d="M57.9655 26.6572V36.1359C57.9655 46.2344 49.4694 54.4134 38.9964 54.4134C28.5158 54.4134 20.0273 46.2269 20.0273 36.1359V20.4876C20.0273 11.9725 27.1902 5.06335 36.0352 5.06335H57.9733V8.78309C57.9733 13.8921 53.6709 18.0376 48.3686 18.0376H28.8801" stroke="white" stroke-width="5" stroke-miterlimit="10" stroke-linecap="round"/>
<path d="M30.6561 53.5336L27.3691 64.0092C27.3691 64.0092 29.7791 70.9804 38.6713 71.809" stroke="white" stroke-width="5" stroke-miterlimit="10" stroke-linecap="round"/>
<path d="M47.3336 53.5336L50.6205 64.0092C50.6205 64.0092 48.2106 70.9804 39.3184 71.809" stroke="white" stroke-width="5" stroke-miterlimit="10" stroke-linecap="round"/>
<path d="M73.7838 86.2605C73.7838 73.2533 63.6179 62.6104 50.7676 61.797" stroke="white" stroke-width="5" stroke-miterlimit="10" stroke-linecap="round"/>
<path d="M4.2168 86.2605C4.2168 73.2533 14.3827 62.6104 27.233 61.797" stroke="white" stroke-width="5" stroke-miterlimit="10" stroke-linecap="round"/>
<path d="M18.7969 80.5601V86.2866" stroke="white" stroke-width="5" stroke-miterlimit="10" stroke-linecap="round"/>
<path d="M59.2012 81.6617V86.625" stroke="white" stroke-width="5" stroke-miterlimit="10" stroke-linecap="round"/>
<path d="M17.8922 18.7134H20.0269V35.5134H17.8922C13.2553 35.5134 9.48633 31.7471 9.48633 27.1134C9.48633 22.4797 13.2553 18.7134 17.8922 18.7134Z" stroke="white" stroke-width="4" stroke-linecap="round" stroke-linejoin="round"/>
<path d="M14.7559 34.4634V38.1006C14.7559 40.7347 16.8828 42.8634 19.4976 42.8634H30.5667" stroke="white" stroke-width="3" stroke-linecap="round" stroke-linejoin="round"/>
<path d="M38.1071 39.7134H33.5662C31.9095 39.7134 30.5664 41.1237 30.5664 42.8634C30.5664 44.6031 31.9095 46.0134 33.5662 46.0134H38.1071C39.7639 46.0134 41.1069 44.6031 41.1069 42.8634C41.1069 41.1237 39.7639 39.7134 38.1071 39.7134Z" stroke="white" stroke-width="3" stroke-linecap="round" stroke-linejoin="round"/>
</svg>
