<svg width="24" height="24" viewBox="0 0 24 24" fill="none" xmlns="http://www.w3.org/2000/svg">
<path d="M12.992 20.912L16.492 22.75C16.8441 22.9342 17.2408 23.0163 17.6371 22.987C18.0334 22.9577 18.4137 22.8182 18.7349 22.5841C19.0561 22.3501 19.3054 22.0309 19.4548 21.6626C19.6041 21.2943 19.6475 20.8916 19.58 20.5L18.913 16.607C18.8543 16.2663 18.8795 15.9165 18.9863 15.5877C19.0931 15.2589 19.2783 14.9611 19.526 14.72L22.354 11.963C22.6388 11.6854 22.8403 11.3338 22.9356 10.9477C23.0309 10.5616 23.0163 10.1566 22.8934 9.77838C22.7705 9.40018 22.5443 9.06391 22.2403 8.80759C21.9362 8.55128 21.5665 8.38515 21.173 8.32799L17.264 7.75999C16.9229 7.70943 16.5992 7.57694 16.3205 7.37386C16.0419 7.17079 15.8166 6.90319 15.664 6.59399L13.911 3.05599C13.735 2.69939 13.4628 2.39914 13.1251 2.18919C12.7874 1.97925 12.3977 1.86798 12 1.86798C11.6024 1.86798 11.2126 1.97925 10.8749 2.18919C10.5372 2.39914 10.265 2.69939 10.089 3.05599L8.34101 6.59999C8.18842 6.90919 7.96315 7.17679 7.68449 7.37986C7.40583 7.58294 7.08209 7.71543 6.74101 7.76599L2.83201 8.33399C2.43848 8.39114 2.0688 8.55728 1.76477 8.81359C1.46073 9.06991 1.23449 9.40618 1.11161 9.78438C0.988733 10.1626 0.974132 10.5676 1.06946 10.9537C1.16478 11.3398 1.36623 11.6914 1.65101 11.969L4.47901 14.726C4.72671 14.9671 4.91196 15.2649 5.01877 15.5937C5.12557 15.9225 5.15071 16.2723 5.09201 16.613L4.42001 20.5C4.352 20.8922 4.39518 21.2956 4.54466 21.6645C4.69415 22.0334 4.94397 22.353 5.26581 22.5872C5.58766 22.8214 5.96866 22.9608 6.36566 22.9896C6.76265 23.0183 7.15977 22.9353 7.51201 22.75L11.012 20.912C11.3175 20.7521 11.6572 20.6686 12.002 20.6686C12.3468 20.6686 12.6865 20.7521 12.992 20.912Z" fill="url(#paint0_linear_1801_10022)"/>
<defs>
<linearGradient id="paint0_linear_1801_10022" x1="12" y1="1.75499" x2="12" y2="23.076" gradientUnits="userSpaceOnUse">
<stop stop-color="#FFF650"/>
<stop offset="1" stop-color="#FFAB17"/>
</linearGradient>
</defs>
</svg>
