<svg width="55" height="44" viewBox="0 0 55 44" fill="none" xmlns="http://www.w3.org/2000/svg">
<g clip-path="url(#clip0_2468_2735)">
<path d="M18.4 33.0101C21.1 34.9101 24.45 35.9401 28.04 35.7101C35.57 35.2301 41.66 29.1001 42.09 21.5701C42.59 12.8801 35.71 5.66013 27.14 5.61013C18.57 5.56013 11.99 12.6001 11.99 21.0001V38.3101L14.95 33.6601C15.7 32.4901 17.26 32.2101 18.4 33.0101Z" stroke="white" stroke-width="1.5" stroke-linecap="round" stroke-linejoin="round"/>
<path d="M27.0501 23.17C28.2817 23.17 29.2801 22.1716 29.2801 20.94C29.2801 19.7084 28.2817 18.71 27.0501 18.71C25.8185 18.71 24.8201 19.7084 24.8201 20.94C24.8201 22.1716 25.8185 23.17 27.0501 23.17Z" fill="white"/>
<path d="M33.46 23.17C34.6916 23.17 35.69 22.1716 35.69 20.94C35.69 19.7084 34.6916 18.71 33.46 18.71C32.2284 18.71 31.23 19.7084 31.23 20.94C31.23 22.1716 32.2284 23.17 33.46 23.17Z" fill="white"/>
<path d="M20.64 23.17C21.8716 23.17 22.87 22.1716 22.87 20.94C22.87 19.7084 21.8716 18.71 20.64 18.71C19.4084 18.71 18.41 19.7084 18.41 20.94C18.41 22.1716 19.4084 23.17 20.64 23.17Z" fill="white"/>
<path d="M29.9 38.3101H24.21C22.7244 38.3101 21.52 39.5122 21.52 40.9951C21.52 42.4779 22.7244 43.6801 24.21 43.6801H29.9C31.3857 43.6801 32.59 42.4779 32.59 40.9951C32.59 39.5122 31.3857 38.3101 29.9 38.3101Z" fill="white"/>
<path d="M49.0401 16.5698H47.05C47.32 17.8998 47.46 19.2698 47.46 20.6698C47.46 22.7698 47.14 24.7898 46.55 26.6898H49.03C51.83 26.6898 54.09 24.4198 54.09 21.6298C54.09 18.8298 51.82 16.5698 49.03 16.5698H49.0401Z" fill="white"/>
<path d="M7.13 20.67C7.13 9.67 16.05 0.75 27.05 0.75C38.05 0.75 46.97 9.67 46.97 20.67C46.97 31.67 38.05 40.59 27.05 40.59" stroke="white" stroke-width="1.5" stroke-linecap="round" stroke-linejoin="round"/>
<path d="M6.64 20.6698C6.64 19.2598 6.78 17.8898 7.05 16.5698H5.06C2.26 16.5698 0 18.8398 0 21.6298C0 24.4298 2.27 26.6898 5.06 26.6898H7.54C6.95 24.7898 6.63 22.7598 6.63 20.6698H6.64Z" fill="white"/>
</g>
<defs>
<clipPath id="clip0_2468_2735">
<rect width="54.1" height="43.68" fill="white"/>
</clipPath>
</defs>
</svg>
