<svg width="16" height="17" viewBox="0 0 16 17" fill="none" xmlns="http://www.w3.org/2000/svg">
<path d="M14.7179 1.61766H12.7948V0H11.1922V1.61766H4.78183V0H3.17923V1.61766H1.28208C0.57405 1.61766 0 2.19171 0 2.89974V14.7439C0 15.4519 0.57405 16.026 1.28208 16.026H14.7179C15.4259 16.026 16 15.4519 16 14.7439V2.89974C16 2.19171 15.4259 1.61766 14.7179 1.61766ZM14.3974 14.4234H1.57663V6.41039H14.3974V14.4234ZM14.3974 4.80779H1.57663V3.20519H14.3974V4.80779Z" fill="#EEFAFF"/>
<path d="M8.94806 8.01318H7.34546V9.61578H8.94806V8.01318Z" fill="#EEFAFF"/>
<path d="M12.1548 8.01318H10.5522V9.61578H12.1548V8.01318Z" fill="#EEFAFF"/>
<path d="M8.94806 11.2183H7.34546V12.8209H8.94806V11.2183Z" fill="#EEFAFF"/>
<path d="M5.74345 11.2183H4.14085V12.8209H5.74345V11.2183Z" fill="#EEFAFF"/>
</svg>
