<svg width="16" height="15" viewBox="0 0 16 15" fill="none" xmlns="http://www.w3.org/2000/svg">
<path d="M14.7179 1.44545H12.7948V0H11.1922V1.44545H4.78183V0H3.17923V1.44545H1.28208C0.57405 1.44545 0 1.95839 0 2.59104V13.1743C0 13.807 0.57405 14.3199 1.28208 14.3199H14.7179C15.4259 14.3199 16 13.807 16 13.1743V2.59104C16 1.95839 15.4259 1.44545 14.7179 1.44545ZM14.3974 12.8879H1.57663V5.72796H14.3974V12.8879ZM14.3974 4.29597H1.57663V2.86398H14.3974V4.29597Z" fill="#8FD2EA"/>
<path d="M8.9483 7.1601H7.3457V8.59209H8.9483V7.1601Z" fill="#8FD2EA"/>
<path d="M12.1548 7.1601H10.5522V8.59209H12.1548V7.1601Z" fill="#8FD2EA"/>
<path d="M8.9483 10.024H7.3457V11.456H8.9483V10.024Z" fill="#8FD2EA"/>
<path d="M5.74322 10.024H4.14062V11.456H5.74322V10.024Z" fill="#8FD2EA"/>
</svg>
