<svg width="16" height="15" viewBox="0 0 16 15" fill="none" xmlns="http://www.w3.org/2000/svg">
<g opacity="0.5">
<path d="M14.7179 1.44545H12.7948V0H11.1922V1.44545H4.78183V0H3.17923V1.44545H1.28208C0.57405 1.44545 0 1.95839 0 2.59104V13.1743C0 13.807 0.57405 14.3199 1.28208 14.3199H14.7179C15.4259 14.3199 16 13.807 16 13.1743V2.59104C16 1.95839 15.4259 1.44545 14.7179 1.44545ZM14.3974 12.8879H1.57663V5.72796H14.3974V12.8879ZM14.3974 4.29597H1.57663V2.86398H14.3974V4.29597Z" fill="#1A172B"/>
<path d="M8.94806 7.16003H7.34546V8.59202H8.94806V7.16003Z" fill="#1A172B"/>
<path d="M12.1548 7.16003H10.5522V8.59202H12.1548V7.16003Z" fill="#1A172B"/>
<path d="M8.94806 10.0239H7.34546V11.4559H8.94806V10.0239Z" fill="#1A172B"/>
<path d="M5.74347 10.0239H4.14087V11.4559H5.74347V10.0239Z" fill="#1A172B"/>
</g>
</svg>
