<svg width="20" height="20" viewBox="0 0 20 20" fill="none" xmlns="http://www.w3.org/2000/svg">
<g clip-path="url(#clip0_2878_2170)">
<path d="M17.5 5.625H6.875C6.70924 5.625 6.55027 5.55915 6.43306 5.44194C6.31585 5.32473 6.25 5.16576 6.25 5C6.25 4.83424 6.31585 4.67527 6.43306 4.55806C6.55027 4.44085 6.70924 4.375 6.875 4.375H17.5C17.6658 4.375 17.8247 4.44085 17.9419 4.55806C18.0592 4.67527 18.125 4.83424 18.125 5C18.125 5.16576 18.0592 5.32473 17.9419 5.44194C17.8247 5.55915 17.6658 5.625 17.5 5.625Z" fill="white"/>
<path d="M4.375 5.625H2.5C2.33424 5.625 2.17527 5.55915 2.05806 5.44194C1.94085 5.32473 1.875 5.16576 1.875 5C1.875 4.83424 1.94085 4.67527 2.05806 4.55806C2.17527 4.44085 2.33424 4.375 2.5 4.375H4.375C4.54076 4.375 4.69973 4.44085 4.81694 4.55806C4.93415 4.67527 5 4.83424 5 5C5 5.16576 4.93415 5.32473 4.81694 5.44194C4.69973 5.55915 4.54076 5.625 4.375 5.625Z" fill="white"/>
<path d="M13.125 10.625H2.5C2.33424 10.625 2.17527 10.5592 2.05806 10.4419C1.94085 10.3247 1.875 10.1658 1.875 10C1.875 9.83424 1.94085 9.67527 2.05806 9.55806C2.17527 9.44085 2.33424 9.375 2.5 9.375H13.125C13.2908 9.375 13.4497 9.44085 13.5669 9.55806C13.6842 9.67527 13.75 9.83424 13.75 10C13.75 10.1658 13.6842 10.3247 13.5669 10.4419C13.4497 10.5592 13.2908 10.625 13.125 10.625Z" fill="white"/>
<path d="M6.875 15.625H2.5C2.33424 15.625 2.17527 15.5592 2.05806 15.4419C1.94085 15.3247 1.875 15.1658 1.875 15C1.875 14.8342 1.94085 14.6753 2.05806 14.5581C2.17527 14.4408 2.33424 14.375 2.5 14.375H6.875C7.04076 14.375 7.19973 14.4408 7.31694 14.5581C7.43415 14.6753 7.5 14.8342 7.5 15C7.5 15.1658 7.43415 15.3247 7.31694 15.4419C7.19973 15.5592 7.04076 15.625 6.875 15.625Z" fill="white"/>
<path d="M5.625 6.875C5.25416 6.875 4.89165 6.76503 4.58331 6.55901C4.27496 6.35298 4.03464 6.06014 3.89273 5.71753C3.75081 5.37492 3.71368 4.99792 3.78603 4.63421C3.85838 4.27049 4.03695 3.9364 4.29918 3.67418C4.5614 3.41195 4.89549 3.23338 5.25921 3.16103C5.62292 3.08868 5.99992 3.12581 6.34253 3.26773C6.68514 3.40964 6.97798 3.64996 7.18401 3.95831C7.39003 4.26665 7.5 4.62916 7.5 5C7.5 5.49728 7.30246 5.9742 6.95083 6.32583C6.5992 6.67746 6.12228 6.875 5.625 6.875ZM5.625 4.375C5.50139 4.375 5.38055 4.41166 5.27777 4.48033C5.17499 4.54901 5.09488 4.64662 5.04758 4.76082C5.00027 4.87503 4.98789 5.00069 5.01201 5.12193C5.03613 5.24317 5.09565 5.35453 5.18306 5.44194C5.27047 5.52935 5.38183 5.58888 5.50307 5.61299C5.62431 5.63711 5.74997 5.62473 5.86418 5.57743C5.97838 5.53012 6.07599 5.45001 6.14467 5.34723C6.21335 5.24445 6.25 5.12361 6.25 5C6.25 4.83424 6.18415 4.67527 6.06694 4.55806C5.94973 4.44085 5.79076 4.375 5.625 4.375Z" fill="white"/>
<path d="M14.375 11.875C14.0042 11.875 13.6416 11.765 13.3333 11.559C13.025 11.353 12.7846 11.0601 12.6427 10.7175C12.5008 10.3749 12.4637 9.99792 12.536 9.63421C12.6084 9.27049 12.787 8.9364 13.0492 8.67418C13.3114 8.41195 13.6455 8.23338 14.0092 8.16103C14.3729 8.08868 14.7499 8.12581 15.0925 8.26773C15.4351 8.40964 15.728 8.64996 15.934 8.95831C16.14 9.26665 16.25 9.62916 16.25 10C16.25 10.4973 16.0525 10.9742 15.7008 11.3258C15.3492 11.6775 14.8723 11.875 14.375 11.875ZM14.375 9.375C14.2514 9.375 14.1306 9.41166 14.0278 9.48033C13.925 9.54901 13.8449 9.64662 13.7976 9.76082C13.7503 9.87503 13.7379 10.0007 13.762 10.1219C13.7861 10.2432 13.8457 10.3545 13.9331 10.4419C14.0205 10.5294 14.1318 10.5889 14.2531 10.613C14.3743 10.6371 14.5 10.6247 14.6142 10.5774C14.7284 10.5301 14.826 10.45 14.8947 10.3472C14.9633 10.2445 15 10.1236 15 10C15 9.83424 14.9342 9.67527 14.8169 9.55806C14.6997 9.44085 14.5408 9.375 14.375 9.375Z" fill="white"/>
<path d="M8.125 16.875C7.75416 16.875 7.39165 16.765 7.08331 16.559C6.77496 16.353 6.53464 16.0601 6.39273 15.7175C6.25081 15.3749 6.21368 14.9979 6.28603 14.6342C6.35838 14.2705 6.53695 13.9364 6.79918 13.6742C7.0614 13.412 7.39549 13.2334 7.75921 13.161C8.12292 13.0887 8.49992 13.1258 8.84253 13.2677C9.18514 13.4096 9.47798 13.65 9.68401 13.9583C9.89003 14.2666 10 14.6292 10 15C10 15.4973 9.80246 15.9742 9.45083 16.3258C9.0992 16.6775 8.62228 16.875 8.125 16.875ZM8.125 14.375C8.00139 14.375 7.88055 14.4117 7.77777 14.4803C7.67499 14.549 7.59488 14.6466 7.54758 14.7608C7.50027 14.875 7.48789 15.0007 7.51201 15.1219C7.53613 15.2432 7.59565 15.3545 7.68306 15.4419C7.77047 15.5294 7.88183 15.5889 8.00307 15.613C8.12431 15.6371 8.24997 15.6247 8.36418 15.5774C8.47838 15.5301 8.57599 15.45 8.64467 15.3472C8.71335 15.2445 8.75 15.1236 8.75 15C8.75 14.8342 8.68415 14.6753 8.56694 14.5581C8.44973 14.4408 8.29076 14.375 8.125 14.375Z" fill="white"/>
<path d="M17.5 10.625H15.625C15.4592 10.625 15.3003 10.5592 15.1831 10.4419C15.0658 10.3247 15 10.1658 15 10C15 9.83424 15.0658 9.67527 15.1831 9.55806C15.3003 9.44085 15.4592 9.375 15.625 9.375H17.5C17.6658 9.375 17.8247 9.44085 17.9419 9.55806C18.0592 9.67527 18.125 9.83424 18.125 10C18.125 10.1658 18.0592 10.3247 17.9419 10.4419C17.8247 10.5592 17.6658 10.625 17.5 10.625Z" fill="white"/>
<path d="M17.5 15.625H9.375C9.20924 15.625 9.05027 15.5592 8.93306 15.4419C8.81585 15.3247 8.75 15.1658 8.75 15C8.75 14.8342 8.81585 14.6753 8.93306 14.5581C9.05027 14.4408 9.20924 14.375 9.375 14.375H17.5C17.6658 14.375 17.8247 14.4408 17.9419 14.5581C18.0592 14.6753 18.125 14.8342 18.125 15C18.125 15.1658 18.0592 15.3247 17.9419 15.4419C17.8247 15.5592 17.6658 15.625 17.5 15.625Z" fill="white"/>
</g>
<defs>
<clipPath id="clip0_2878_2170">
<rect width="20" height="20" fill="white"/>
</clipPath>
</defs>
</svg>
