<svg width="189" height="48" viewBox="0 0 189 48" fill="none" xmlns="http://www.w3.org/2000/svg">
<rect width="189" height="48" rx="24" fill="#61C2E8"/>
<path d="M27.776 18.77V20.072H23.646V22.942H26.866V24.244H23.646V28.5H22.05V18.77H27.776ZM30.0671 19.764C29.7777 19.764 29.5351 19.666 29.3391 19.47C29.1431 19.274 29.0451 19.0313 29.0451 18.742C29.0451 18.4527 29.1431 18.21 29.3391 18.014C29.5351 17.818 29.7777 17.72 30.0671 17.72C30.3471 17.72 30.5851 17.818 30.7811 18.014C30.9771 18.21 31.0751 18.4527 31.0751 18.742C31.0751 19.0313 30.9771 19.274 30.7811 19.47C30.5851 19.666 30.3471 19.764 30.0671 19.764ZM30.8511 20.786V28.5H29.2551V20.786H30.8511ZM34.5425 18.14V28.5H32.9465V18.14H34.5425ZM38.4999 22.088V26.358C38.4999 26.6473 38.5652 26.8573 38.6959 26.988C38.8359 27.1093 39.0692 27.17 39.3959 27.17H40.3759V28.5H39.1159C38.3972 28.5 37.8466 28.332 37.4639 27.996C37.0812 27.66 36.8899 27.114 36.8899 26.358V22.088H35.9799V20.786H36.8899V18.868H38.4999V20.786H40.3759V22.088H38.4999ZM43.4429 21.906C43.6762 21.514 43.9842 21.2107 44.3669 20.996C44.7589 20.772 45.2209 20.66 45.7529 20.66V22.312H45.3469C44.7215 22.312 44.2455 22.4707 43.9189 22.788C43.6015 23.1053 43.4429 23.656 43.4429 24.44V28.5H41.8469V20.786H43.4429V21.906ZM46.6879 24.608C46.6879 23.8333 46.8466 23.1473 47.1639 22.55C47.4906 21.9527 47.9293 21.4907 48.4799 21.164C49.0399 20.828 49.6559 20.66 50.3279 20.66C50.9346 20.66 51.4619 20.7813 51.9099 21.024C52.3673 21.2573 52.7313 21.5513 53.0019 21.906V20.786H54.6119V28.5H53.0019V27.352C52.7313 27.716 52.3626 28.0193 51.8959 28.262C51.4293 28.5047 50.8973 28.626 50.2999 28.626C49.6373 28.626 49.0306 28.458 48.4799 28.122C47.9293 27.7767 47.4906 27.3007 47.1639 26.694C46.8466 26.078 46.6879 25.3827 46.6879 24.608ZM53.0019 24.636C53.0019 24.104 52.8899 23.642 52.6659 23.25C52.4513 22.858 52.1666 22.5593 51.8119 22.354C51.4573 22.1487 51.0746 22.046 50.6639 22.046C50.2533 22.046 49.8706 22.1487 49.5159 22.354C49.1613 22.55 48.8719 22.844 48.6479 23.236C48.4333 23.6187 48.3259 24.076 48.3259 24.608C48.3259 25.14 48.4333 25.6067 48.6479 26.008C48.8719 26.4093 49.1613 26.7173 49.5159 26.932C49.8799 27.1373 50.2626 27.24 50.6639 27.24C51.0746 27.24 51.4573 27.1373 51.8119 26.932C52.1666 26.7267 52.4513 26.428 52.6659 26.036C52.8899 25.6347 53.0019 25.168 53.0019 24.636ZM58.3042 21.906C58.5375 21.514 58.8455 21.2107 59.2282 20.996C59.6202 20.772 60.0822 20.66 60.6142 20.66V22.312H60.2082C59.5829 22.312 59.1069 22.4707 58.7802 22.788C58.4629 23.1053 58.3042 23.656 58.3042 24.44V28.5H56.7082V20.786H58.3042V21.906ZM67.314 21.92C67.5846 21.5653 67.9533 21.2667 68.42 21.024C68.8866 20.7813 69.414 20.66 70.002 20.66C70.674 20.66 71.2853 20.828 71.836 21.164C72.396 21.4907 72.8346 21.9527 73.152 22.55C73.4693 23.1473 73.628 23.8333 73.628 24.608C73.628 25.3827 73.4693 26.078 73.152 26.694C72.8346 27.3007 72.396 27.7767 71.836 28.122C71.2853 28.458 70.674 28.626 70.002 28.626C69.414 28.626 68.8913 28.5093 68.434 28.276C67.9766 28.0333 67.6033 27.7347 67.314 27.38V32.168H65.718V20.786H67.314V21.92ZM72.004 24.608C72.004 24.076 71.892 23.6187 71.668 23.236C71.4533 22.844 71.164 22.55 70.8 22.354C70.4453 22.1487 70.0626 22.046 69.652 22.046C69.2506 22.046 68.868 22.1487 68.504 22.354C68.1493 22.5593 67.86 22.858 67.636 23.25C67.4213 23.642 67.314 24.104 67.314 24.636C67.314 25.168 67.4213 25.6347 67.636 26.036C67.86 26.428 68.1493 26.7267 68.504 26.932C68.868 27.1373 69.2506 27.24 69.652 27.24C70.0626 27.24 70.4453 27.1373 70.8 26.932C71.164 26.7173 71.4533 26.4093 71.668 26.008C71.892 25.6067 72.004 25.14 72.004 24.608ZM76.8023 21.906C77.0356 21.514 77.3436 21.2107 77.7263 20.996C78.1183 20.772 78.5803 20.66 79.1123 20.66V22.312H78.7063C78.0809 22.312 77.6049 22.4707 77.2783 22.788C76.9609 23.1053 76.8023 23.656 76.8023 24.44V28.5H75.2063V20.786H76.8023V21.906ZM83.9253 28.626C83.1973 28.626 82.5393 28.4627 81.9513 28.136C81.3633 27.8 80.9013 27.3333 80.5653 26.736C80.2293 26.1293 80.0613 25.4293 80.0613 24.636C80.0613 23.852 80.234 23.1567 80.5793 22.55C80.9246 21.9433 81.396 21.4767 81.9933 21.15C82.5906 20.8233 83.258 20.66 83.9953 20.66C84.7326 20.66 85.4 20.8233 85.9973 21.15C86.5946 21.4767 87.066 21.9433 87.4113 22.55C87.7566 23.1567 87.9293 23.852 87.9293 24.636C87.9293 25.42 87.752 26.1153 87.3973 26.722C87.0426 27.3287 86.5573 27.8 85.9413 28.136C85.3346 28.4627 84.6626 28.626 83.9253 28.626ZM83.9253 27.24C84.336 27.24 84.7186 27.142 85.0733 26.946C85.4373 26.75 85.7313 26.456 85.9553 26.064C86.1793 25.672 86.2913 25.196 86.2913 24.636C86.2913 24.076 86.184 23.6047 85.9693 23.222C85.7546 22.83 85.47 22.536 85.1153 22.34C84.7606 22.144 84.378 22.046 83.9673 22.046C83.5566 22.046 83.174 22.144 82.8193 22.34C82.474 22.536 82.1986 22.83 81.9933 23.222C81.788 23.6047 81.6853 24.076 81.6853 24.636C81.6853 25.4667 81.8953 26.1107 82.3153 26.568C82.7446 27.016 83.2813 27.24 83.9253 27.24ZM88.975 24.608C88.975 23.8333 89.1337 23.1473 89.451 22.55C89.7777 21.9527 90.2164 21.4907 90.767 21.164C91.327 20.828 91.9477 20.66 92.629 20.66C93.133 20.66 93.6277 20.772 94.113 20.996C94.6077 21.2107 94.9997 21.5 95.289 21.864V18.14H96.899V28.5H95.289V27.338C95.0277 27.7113 94.6637 28.0193 94.197 28.262C93.7397 28.5047 93.2124 28.626 92.615 28.626C91.943 28.626 91.327 28.458 90.767 28.122C90.2164 27.7767 89.7777 27.3007 89.451 26.694C89.1337 26.078 88.975 25.3827 88.975 24.608ZM95.289 24.636C95.289 24.104 95.177 23.642 94.953 23.25C94.7384 22.858 94.4537 22.5593 94.099 22.354C93.7444 22.1487 93.3617 22.046 92.951 22.046C92.5404 22.046 92.1577 22.1487 91.803 22.354C91.4484 22.55 91.159 22.844 90.935 23.236C90.7204 23.6187 90.613 24.076 90.613 24.608C90.613 25.14 90.7204 25.6067 90.935 26.008C91.159 26.4093 91.4484 26.7173 91.803 26.932C92.167 27.1373 92.5497 27.24 92.951 27.24C93.3617 27.24 93.7444 27.1373 94.099 26.932C94.4537 26.7267 94.7384 26.428 94.953 26.036C95.177 25.6347 95.289 25.168 95.289 24.636ZM105.981 20.786V28.5H104.385V27.59C104.133 27.9073 103.802 28.1593 103.391 28.346C102.99 28.5233 102.561 28.612 102.103 28.612C101.497 28.612 100.951 28.486 100.465 28.234C99.9893 27.982 99.6113 27.6087 99.3313 27.114C99.0606 26.6193 98.9253 26.022 98.9253 25.322V20.786H100.507V25.084C100.507 25.7747 100.68 26.3067 101.025 26.68C101.371 27.044 101.842 27.226 102.439 27.226C103.037 27.226 103.508 27.044 103.853 26.68C104.208 26.3067 104.385 25.7747 104.385 25.084V20.786H105.981ZM107.555 24.636C107.555 23.8427 107.714 23.1473 108.031 22.55C108.358 21.9433 108.806 21.4767 109.375 21.15C109.944 20.8233 110.598 20.66 111.335 20.66C112.268 20.66 113.038 20.884 113.645 21.332C114.261 21.7707 114.676 22.4007 114.891 23.222H113.169C113.029 22.8393 112.805 22.5407 112.497 22.326C112.189 22.1113 111.802 22.004 111.335 22.004C110.682 22.004 110.159 22.2373 109.767 22.704C109.384 23.1613 109.193 23.8053 109.193 24.636C109.193 25.4667 109.384 26.1153 109.767 26.582C110.159 27.0487 110.682 27.282 111.335 27.282C112.259 27.282 112.87 26.876 113.169 26.064H114.891C114.667 26.848 114.247 27.4733 113.631 27.94C113.015 28.3973 112.25 28.626 111.335 28.626C110.598 28.626 109.944 28.4627 109.375 28.136C108.806 27.8 108.358 27.3333 108.031 26.736C107.714 26.1293 107.555 25.4293 107.555 24.636ZM118.344 22.088V26.358C118.344 26.6473 118.409 26.8573 118.54 26.988C118.68 27.1093 118.913 27.17 119.24 27.17H120.22V28.5H118.96C118.241 28.5 117.69 28.332 117.308 27.996C116.925 27.66 116.734 27.114 116.734 26.358V22.088H115.824V20.786H116.734V18.868H118.344V20.786H120.22V22.088H118.344ZM125.037 28.626C124.309 28.626 123.651 28.4627 123.063 28.136C122.475 27.8 122.013 27.3333 121.677 26.736C121.341 26.1293 121.173 25.4293 121.173 24.636C121.173 23.852 121.345 23.1567 121.691 22.55C122.036 21.9433 122.507 21.4767 123.105 21.15C123.702 20.8233 124.369 20.66 125.107 20.66C125.844 20.66 126.511 20.8233 127.109 21.15C127.706 21.4767 128.177 21.9433 128.523 22.55C128.868 23.1567 129.041 23.852 129.041 24.636C129.041 25.42 128.863 26.1153 128.509 26.722C128.154 27.3287 127.669 27.8 127.053 28.136C126.446 28.4627 125.774 28.626 125.037 28.626ZM125.037 27.24C125.447 27.24 125.83 27.142 126.185 26.946C126.549 26.75 126.843 26.456 127.067 26.064C127.291 25.672 127.403 25.196 127.403 24.636C127.403 24.076 127.295 23.6047 127.081 23.222C126.866 22.83 126.581 22.536 126.227 22.34C125.872 22.144 125.489 22.046 125.079 22.046C124.668 22.046 124.285 22.144 123.931 22.34C123.585 22.536 123.31 22.83 123.105 23.222C122.899 23.6047 122.797 24.076 122.797 24.636C122.797 25.4667 123.007 26.1107 123.427 26.568C123.856 27.016 124.393 27.24 125.037 27.24ZM133.418 28.626C132.812 28.626 132.266 28.5187 131.78 28.304C131.304 28.08 130.926 27.7813 130.646 27.408C130.366 27.0253 130.217 26.6007 130.198 26.134H131.85C131.878 26.4607 132.032 26.736 132.312 26.96C132.602 27.1747 132.961 27.282 133.39 27.282C133.838 27.282 134.184 27.198 134.426 27.03C134.678 26.8527 134.804 26.6287 134.804 26.358C134.804 26.0687 134.664 25.854 134.384 25.714C134.114 25.574 133.68 25.42 133.082 25.252C132.504 25.0933 132.032 24.9393 131.668 24.79C131.304 24.6407 130.987 24.412 130.716 24.104C130.455 23.796 130.324 23.39 130.324 22.886C130.324 22.4753 130.446 22.102 130.688 21.766C130.931 21.4207 131.276 21.15 131.724 20.954C132.182 20.758 132.704 20.66 133.292 20.66C134.17 20.66 134.874 20.884 135.406 21.332C135.948 21.7707 136.237 22.3727 136.274 23.138H134.678C134.65 22.7927 134.51 22.5173 134.258 22.312C134.006 22.1067 133.666 22.004 133.236 22.004C132.816 22.004 132.494 22.0833 132.27 22.242C132.046 22.4007 131.934 22.6107 131.934 22.872C131.934 23.0773 132.009 23.25 132.158 23.39C132.308 23.53 132.49 23.642 132.704 23.726C132.919 23.8007 133.236 23.8987 133.656 24.02C134.216 24.1693 134.674 24.3233 135.028 24.482C135.392 24.6313 135.705 24.8553 135.966 25.154C136.228 25.4527 136.363 25.8493 136.372 26.344C136.372 26.7827 136.251 27.1747 136.008 27.52C135.766 27.8653 135.42 28.136 134.972 28.332C134.534 28.528 134.016 28.626 133.418 28.626Z" fill="white"/>
<g clip-path="url(#clip0_2878_2168)">
<path d="M165.5 19.625H154.875C154.709 19.625 154.55 19.5592 154.433 19.4419C154.316 19.3247 154.25 19.1658 154.25 19C154.25 18.8342 154.316 18.6753 154.433 18.5581C154.55 18.4408 154.709 18.375 154.875 18.375H165.5C165.666 18.375 165.825 18.4408 165.942 18.5581C166.059 18.6753 166.125 18.8342 166.125 19C166.125 19.1658 166.059 19.3247 165.942 19.4419C165.825 19.5592 165.666 19.625 165.5 19.625Z" fill="white"/>
<path d="M152.375 19.625H150.5C150.334 19.625 150.175 19.5592 150.058 19.4419C149.941 19.3247 149.875 19.1658 149.875 19C149.875 18.8342 149.941 18.6753 150.058 18.5581C150.175 18.4408 150.334 18.375 150.5 18.375H152.375C152.541 18.375 152.7 18.4408 152.817 18.5581C152.934 18.6753 153 18.8342 153 19C153 19.1658 152.934 19.3247 152.817 19.4419C152.7 19.5592 152.541 19.625 152.375 19.625Z" fill="white"/>
<path d="M161.125 24.625H150.5C150.334 24.625 150.175 24.5592 150.058 24.4419C149.941 24.3247 149.875 24.1658 149.875 24C149.875 23.8342 149.941 23.6753 150.058 23.5581C150.175 23.4408 150.334 23.375 150.5 23.375H161.125C161.291 23.375 161.45 23.4408 161.567 23.5581C161.684 23.6753 161.75 23.8342 161.75 24C161.75 24.1658 161.684 24.3247 161.567 24.4419C161.45 24.5592 161.291 24.625 161.125 24.625Z" fill="white"/>
<path d="M154.875 29.625H150.5C150.334 29.625 150.175 29.5592 150.058 29.4419C149.941 29.3247 149.875 29.1658 149.875 29C149.875 28.8342 149.941 28.6753 150.058 28.5581C150.175 28.4408 150.334 28.375 150.5 28.375H154.875C155.041 28.375 155.2 28.4408 155.317 28.5581C155.434 28.6753 155.5 28.8342 155.5 29C155.5 29.1658 155.434 29.3247 155.317 29.4419C155.2 29.5592 155.041 29.625 154.875 29.625Z" fill="white"/>
<path d="M153.625 20.875C153.254 20.875 152.892 20.765 152.583 20.559C152.275 20.353 152.035 20.0601 151.893 19.7175C151.751 19.3749 151.714 18.9979 151.786 18.6342C151.858 18.2705 152.037 17.9364 152.299 17.6742C152.561 17.412 152.895 17.2334 153.259 17.161C153.623 17.0887 154 17.1258 154.343 17.2677C154.685 17.4096 154.978 17.65 155.184 17.9583C155.39 18.2666 155.5 18.6292 155.5 19C155.5 19.4973 155.302 19.9742 154.951 20.3258C154.599 20.6775 154.122 20.875 153.625 20.875ZM153.625 18.375C153.501 18.375 153.381 18.4117 153.278 18.4803C153.175 18.549 153.095 18.6466 153.048 18.7608C153 18.875 152.988 19.0007 153.012 19.1219C153.036 19.2432 153.096 19.3545 153.183 19.4419C153.27 19.5294 153.382 19.5889 153.503 19.613C153.624 19.6371 153.75 19.6247 153.864 19.5774C153.978 19.5301 154.076 19.45 154.145 19.3472C154.213 19.2445 154.25 19.1236 154.25 19C154.25 18.8342 154.184 18.6753 154.067 18.5581C153.95 18.4408 153.791 18.375 153.625 18.375Z" fill="white"/>
<path d="M162.375 25.875C162.004 25.875 161.642 25.765 161.333 25.559C161.025 25.353 160.785 25.0601 160.643 24.7175C160.501 24.3749 160.464 23.9979 160.536 23.6342C160.608 23.2705 160.787 22.9364 161.049 22.6742C161.311 22.412 161.645 22.2334 162.009 22.161C162.373 22.0887 162.75 22.1258 163.093 22.2677C163.435 22.4096 163.728 22.65 163.934 22.9583C164.14 23.2666 164.25 23.6292 164.25 24C164.25 24.4973 164.052 24.9742 163.701 25.3258C163.349 25.6775 162.872 25.875 162.375 25.875ZM162.375 23.375C162.251 23.375 162.131 23.4117 162.028 23.4803C161.925 23.549 161.845 23.6466 161.798 23.7608C161.75 23.875 161.738 24.0007 161.762 24.1219C161.786 24.2432 161.846 24.3545 161.933 24.4419C162.02 24.5294 162.132 24.5889 162.253 24.613C162.374 24.6371 162.5 24.6247 162.614 24.5774C162.728 24.5301 162.826 24.45 162.895 24.3472C162.963 24.2445 163 24.1236 163 24C163 23.8342 162.934 23.6753 162.817 23.5581C162.7 23.4408 162.541 23.375 162.375 23.375Z" fill="white"/>
<path d="M156.125 30.875C155.754 30.875 155.392 30.765 155.083 30.559C154.775 30.353 154.535 30.0601 154.393 29.7175C154.251 29.3749 154.214 28.9979 154.286 28.6342C154.358 28.2705 154.537 27.9364 154.799 27.6742C155.061 27.412 155.395 27.2334 155.759 27.161C156.123 27.0887 156.5 27.1258 156.843 27.2677C157.185 27.4096 157.478 27.65 157.684 27.9583C157.89 28.2666 158 28.6292 158 29C158 29.4973 157.802 29.9742 157.451 30.3258C157.099 30.6775 156.622 30.875 156.125 30.875ZM156.125 28.375C156.001 28.375 155.881 28.4117 155.778 28.4803C155.675 28.549 155.595 28.6466 155.548 28.7608C155.5 28.875 155.488 29.0007 155.512 29.1219C155.536 29.2432 155.596 29.3545 155.683 29.4419C155.77 29.5294 155.882 29.5889 156.003 29.613C156.124 29.6371 156.25 29.6247 156.364 29.5774C156.478 29.5301 156.576 29.45 156.645 29.3472C156.713 29.2445 156.75 29.1236 156.75 29C156.75 28.8342 156.684 28.6753 156.567 28.5581C156.45 28.4408 156.291 28.375 156.125 28.375Z" fill="white"/>
<path d="M165.5 24.625H163.625C163.459 24.625 163.3 24.5592 163.183 24.4419C163.066 24.3247 163 24.1658 163 24C163 23.8342 163.066 23.6753 163.183 23.5581C163.3 23.4408 163.459 23.375 163.625 23.375H165.5C165.666 23.375 165.825 23.4408 165.942 23.5581C166.059 23.6753 166.125 23.8342 166.125 24C166.125 24.1658 166.059 24.3247 165.942 24.4419C165.825 24.5592 165.666 24.625 165.5 24.625Z" fill="white"/>
<path d="M165.5 29.625H157.375C157.209 29.625 157.05 29.5592 156.933 29.4419C156.816 29.3247 156.75 29.1658 156.75 29C156.75 28.8342 156.816 28.6753 156.933 28.5581C157.05 28.4408 157.209 28.375 157.375 28.375H165.5C165.666 28.375 165.825 28.4408 165.942 28.5581C166.059 28.6753 166.125 28.8342 166.125 29C166.125 29.1658 166.059 29.3247 165.942 29.4419C165.825 29.5592 165.666 29.625 165.5 29.625Z" fill="white"/>
</g>
<defs>
<clipPath id="clip0_2878_2168">
<rect width="20" height="20" fill="white" transform="translate(148 14)"/>
</clipPath>
</defs>
</svg>
