<svg width="45" height="54" viewBox="0 0 45 54" fill="none" xmlns="http://www.w3.org/2000/svg">
<path d="M25.0933 2.99376L25.0933 -8.34752e-07L19.097 -1.09686e-06L19.097 2.99816L25.0933 2.99816L25.0933 2.99376ZM19.9775 53.1217C20.5405 53.6841 21.3037 54 22.0995 54C22.8953 54 23.6586 53.6841 24.2216 53.1217L43.3112 34.0276C43.5899 33.749 43.8109 33.4181 43.9617 33.054C44.1126 32.6899 44.1902 32.2997 44.1902 31.9056C44.1902 31.5115 44.1126 31.1212 43.9617 30.7571C43.8109 30.393 43.5899 30.0622 43.3112 29.7835C43.0325 29.5049 42.7017 29.2838 42.3376 29.133C41.9735 28.9822 41.5833 28.9045 41.1892 28.9045C40.7951 28.9045 40.4048 28.9822 40.0407 29.133C39.6766 29.2838 39.3458 29.5049 39.0671 29.7835L22.0907 46.7555L5.12314 29.7835C4.84447 29.5049 4.51364 29.2838 4.14953 29.133C3.78543 28.9822 3.39519 28.9045 3.00109 28.9045C2.60699 28.9045 2.21675 28.9822 1.85264 29.133C1.48854 29.2838 1.15772 29.5049 0.879046 29.7835C0.600375 30.0622 0.379317 30.393 0.228499 30.7571C0.0776849 31.1212 5.96577e-05 31.5115 5.96405e-05 31.9056C5.96233e-05 32.2997 0.0776849 32.6899 0.228499 33.054C0.379317 33.4181 0.600375 33.7489 0.879046 34.0276L19.9731 53.1217L19.9775 53.1217ZM19.097 2.99376L19.097 50.9996L25.0933 50.9996L25.0933 2.99376L19.097 2.99376Z" fill="#FAF3DF"/>
</svg>
