<?xml version="1.0" encoding="utf-8"?>
<!-- Generator: Adobe Illustrator 28.0.0, SVG Export Plug-In . SVG Version: 6.00 Build 0)  -->
<svg version="1.1" id="Layer_1" xmlns="http://www.w3.org/2000/svg" xmlns:xlink="http://www.w3.org/1999/xlink" x="0px" y="0px"
	 viewBox="0 0 1920 1080" style="enable-background:new 0 0 1920 1080;" xml:space="preserve">
<style type="text/css">
	.st0{fill:#ED1C24;}
</style>
<path class="st0" d="M835.1,540c0-16.7,5.7-32.5,16.3-45.1c2-21.7,13.8-41.2,32.5-53c9.4-6,20.1-9.6,31-10.6
	c12.6-10.5,28.3-16.2,45.1-16.2c16.7,0,32.5,5.7,45.1,16.2c11,1,21.6,4.6,31,10.6c18.7,11.8,30.5,31.3,32.5,53
	c10.5,12.6,16.3,28.4,16.3,45.1c0,16.7-5.7,32.5-16.3,45.1c-2,21.7-13.8,41.1-32.5,53c-9.4,6-20.1,9.6-31,10.6
	c-12.6,10.5-28.3,16.2-45.1,16.2c-16.7,0-32.5-5.7-45.1-16.2c-11-1-21.6-4.6-31-10.6c-18.7-11.8-30.5-31.3-32.5-53
	C840.8,572.5,835.1,556.7,835.1,540z"/>
</svg>
