<svg width="99" height="112" viewBox="0 0 99 112" fill="none" xmlns="http://www.w3.org/2000/svg">
<g clip-path="url(#clip0_1777_1620)">
<path d="M29.4502 93.38H68.9002" stroke="#443D72" stroke-width="5" stroke-miterlimit="10"/>
<path d="M95.85 109.28V104.59C95.85 88.48 82.79 75.42 66.68 75.42H63.44C61.59 81.33 56.06 85.62 49.54 85.62H48.81C42.29 85.62 36.77 81.33 34.91 75.42H31.67C15.56 75.42 2.5 88.48 2.5 104.59V109.28H49.54" stroke="#443D72" stroke-width="5" stroke-miterlimit="10" stroke-linecap="round"/>
<path d="M64.1098 69.11V71.05C64.1098 79.1 57.5898 85.61 49.5498 85.61H48.8198C40.7698 85.61 34.2598 79.09 34.2598 71.05V69.12C38.3798 72.34 43.5598 74.26 49.1898 74.26C54.8198 74.26 59.9998 72.34 64.1198 69.12L64.1098 69.11Z" stroke="#443D72" stroke-width="5" stroke-miterlimit="10"/>
<path d="M26.6898 33.5801L10.0398 34.07H9.95979C8.69979 34.07 7.62979 33.15 7.42979 31.9C7.24979 30.71 7.90979 29.5501 9.03979 29.1201C23.5198 23.6801 46.7498 22.65 49.1898 22.55M49.1898 22.55C49.0498 22.55 48.9698 22.55 48.9698 22.55H49.3998C49.3998 22.55 49.3298 22.55 49.1898 22.55ZM49.1898 22.55C51.6498 22.65 74.8598 23.6801 89.3298 29.1201C90.3298 29.5001 90.9598 30.46 90.9598 31.5C90.9598 31.63 90.9598 31.76 90.9298 31.89C90.7398 33.17 89.6198 34.1001 88.3298 34.0601L75.2298 33.67" stroke="#443D72" stroke-width="5" stroke-miterlimit="10"/>
<path d="M73.4399 33.68V50C73.4399 57.77 69.7899 64.68 64.1099 69.12C59.9899 72.35 54.8099 74.26 49.1799 74.26C43.5499 74.26 38.3699 72.34 34.2499 69.12C28.5699 64.68 24.9199 57.76 24.9199 49.99V33.57L47.3999 32.9L73.4399 33.66V33.68Z" stroke="#443D72" stroke-width="5" stroke-miterlimit="10"/>
<path d="M74.2499 25.19L69.1699 10.3C67.4199 5.18004 62.3399 1.96004 56.9599 2.58004L49.0399 3.49004H49.3199L41.3999 2.58004C36.0199 1.97004 30.9399 5.18004 29.1899 10.3L24.1099 25.19" stroke="#443D72" stroke-width="5" stroke-miterlimit="10"/>
<path d="M48.7599 60.0401C40.6899 63.9601 34.9199 59.35 34.9199 59.35L38.1299 55.19C39.5099 53.4 41.5999 52.29 43.8499 52.14L48.9999 51.8H49.3199L54.4699 52.14C56.7299 52.29 58.8099 53.4 60.1899 55.19L63.3999 59.35C63.3999 59.35 57.6399 63.9601 49.5599 60.0401H48.7399H48.7599Z" stroke="#443D72" stroke-width="5" stroke-miterlimit="10"/>
<path d="M25.3398 103.14C28.8357 103.14 31.6698 100.306 31.6698 96.81C31.6698 93.314 28.8357 90.48 25.3398 90.48C21.8438 90.48 19.0098 93.314 19.0098 96.81C19.0098 100.306 21.8438 103.14 25.3398 103.14Z" stroke="#443D72" stroke-width="5" stroke-miterlimit="10"/>
<path d="M73.0097 103.14C76.5057 103.14 79.3397 100.306 79.3397 96.81C79.3397 93.314 76.5057 90.48 73.0097 90.48C69.5137 90.48 66.6797 93.314 66.6797 96.81C66.6797 100.306 69.5137 103.14 73.0097 103.14Z" stroke="#443D72" stroke-width="5" stroke-miterlimit="10"/>
<path d="M28.1201 75.61V90.95" stroke="#443D72" stroke-width="5" stroke-miterlimit="10"/>
<path d="M70.2402 75.61V90.95" stroke="#443D72" stroke-width="5" stroke-miterlimit="10"/>
<path d="M18.79 78.5601L19.27 93.8301L17.02 108.47" stroke="#443D72" stroke-width="5" stroke-miterlimit="10" stroke-linecap="round"/>
<path d="M79.5598 78.5601L79.0898 93.8301L81.3398 108.47" stroke="#443D72" stroke-width="5" stroke-miterlimit="10" stroke-linecap="round"/>
<path d="M46.5703 32.91H46.7803H46.9903" stroke="#443D72" stroke-width="5" stroke-miterlimit="10"/>
<path d="M23.6502 38.7001C23.6502 38.7001 17.3702 40.7401 18.2602 47.1901C19.1602 53.6401 25.8502 53.7201 25.8502 53.7201" stroke="#443D72" stroke-width="5" stroke-miterlimit="10"/>
<path d="M74.7 38.7001C74.7 38.7001 80.98 40.7401 80.09 47.1901C79.2 53.6401 72.5 53.7201 72.5 53.7201" stroke="#443D72" stroke-width="5" stroke-miterlimit="10"/>
</g>
<defs>
<clipPath id="clip0_1777_1620">
<rect width="98.35" height="111.78" fill="white"/>
</clipPath>
</defs>
</svg>
