<svg width="44" height="40" viewBox="0 0 44 40" fill="none" xmlns="http://www.w3.org/2000/svg">
<path d="M11.3012 21.996C10.4491 22.2954 9.54013 22.4715 8.57439 22.4715C4.38954 22.4715 1 19.3186 1 15.426C1 11.5333 4.38954 8.38037 8.57439 8.38037C10.9035 8.38037 12.9865 9.36675 14.3688 10.8992" stroke="#8FD2EA" stroke-width="2" stroke-miterlimit="10" stroke-linecap="round"/>
<path d="M33.2669 8.22152C33.9486 8.02777 34.6682 7.9397 35.4256 7.9397C39.6105 7.9397 43 11.0926 43 14.9853C43 18.878 39.6105 22.0309 35.4256 22.0309C34.4788 22.0309 33.5699 21.8723 32.7367 21.5729" stroke="#8FD2EA" stroke-width="2" stroke-miterlimit="10" stroke-linecap="round"/>
<path d="M9.578 8.4507C11.5284 4.08244 16.1677 1 21.5645 1C28.7412 1 34.5546 6.40748 34.5546 13.0832" stroke="#8FD2EA" stroke-width="2" stroke-miterlimit="10" stroke-linecap="round"/>
<path d="M30.7861 21.3619C28.0972 20.5693 25.1242 20.1289 21.9998 20.1289C18.8754 20.1289 15.9024 20.5693 13.2135 21.3619" stroke="#8FD2EA" stroke-width="2" stroke-miterlimit="10" stroke-linecap="round"/>
<path d="M18.459 38.6411H33.0397C34.119 38.6411 35.0279 37.9366 35.2362 36.9502L35.4256 36.0166C35.5203 35.5587 35.1984 35.1183 34.6871 35.0303C30.881 34.4138 26.5825 34.0791 22 34.0791C17.4175 34.0791 13.119 34.4314 9.31288 35.0303C8.82055 35.1183 8.49864 35.5587 8.57438 36.0166L8.76374 36.9502C8.9531 37.9366 9.88096 38.6411 10.9603 38.6411H13.0433" stroke="#8FD2EA" stroke-width="2" stroke-miterlimit="10" stroke-linecap="round"/>
<path d="M7.79785 22.4539L8.80146 24.9727C10.0512 28.1079 10.6951 31.4194 10.6951 34.7484" stroke="#8FD2EA" stroke-width="2" stroke-miterlimit="10" stroke-linecap="round"/>
<path d="M36.2207 22.4539L35.2171 24.9727C33.9673 28.1079 33.3235 31.4194 33.3235 34.7484" stroke="#8FD2EA" stroke-width="2" stroke-miterlimit="10" stroke-linecap="round"/>
</svg>
