<svg width="89" height="92" viewBox="0 0 89 92" fill="none" xmlns="http://www.w3.org/2000/svg">
<g clip-path="url(#clip0_953_395)">
<path d="M86.08 61.78V71.72C86.08 76.99 81.81 81.26 76.53 81.26H12.04C6.77 81.26 2.5 76.99 2.5 71.72V22.46H86.08V42.36" stroke="#1A172B" stroke-width="5" stroke-linecap="round" stroke-linejoin="round"/>
<path d="M85.51 22.4601H3.07C14.19 16.3201 28.57 12.6201 44.3 12.6201C60.03 12.6201 74.4 16.3201 85.52 22.4601H85.51Z" stroke="#1A172B" stroke-width="5" stroke-linecap="round" stroke-linejoin="round"/>
<path d="M44.29 2.5C46.77 2.5 48.79 4.51 48.79 7V12.63H39.8V7C39.8 4.52 41.81 2.5 44.3 2.5H44.29Z" stroke="#1A172B" stroke-width="5" stroke-linecap="round" stroke-linejoin="round"/>
<path d="M12.93 81.2602V89.1902H2.5V71.7202C2.5 76.9902 6.77 81.2602 12.04 81.2602H12.93Z" stroke="#1A172B" stroke-width="5" stroke-linecap="round" stroke-linejoin="round"/>
<path d="M86.08 71.7202V89.1902H75.65V81.2602H76.53C81.81 81.2602 86.08 76.9902 86.08 71.7202Z" stroke="#1A172B" stroke-width="5" stroke-linecap="round" stroke-linejoin="round"/>
<path d="M49.51 81.2598H39.08V89.1898H49.51V81.2598Z" stroke="#1A172B" stroke-width="5" stroke-linecap="round" stroke-linejoin="round"/>
<path d="M75.65 38.3901V61.1401C75.65 65.9001 71.79 69.7501 67.04 69.7501H48.16" stroke="#1A172B" stroke-width="5" stroke-linecap="round" stroke-linejoin="round"/>
</g>
<defs>
<clipPath id="clip0_953_395">
<rect width="88.58" height="91.7" fill="white"/>
</clipPath>
</defs>
</svg>
