<svg width="90" height="109" viewBox="0 0 90 109" fill="none" xmlns="http://www.w3.org/2000/svg">
<g clip-path="url(#clip0_953_307)">
<path d="M38.48 12.63H51.13C53.98 12.63 56.45 10.97 57.63 8.58C58.1 7.62 58.37 6.55 58.37 5.41V2.5H43.68C39.66 2.5 36.09 4.43 33.85 7.42C32.32 9.47 31.42 12.01 31.42 14.76V24C31.42 27.73 32.93 31.09 35.37 33.53C36.43 34.59 37.66 35.47 39.02 36.13" stroke="#1A172B" stroke-width="5" stroke-linecap="round" stroke-linejoin="round"/>
<path d="M58.37 18.0601V24.0201C58.37 29.3501 55.27 33.9701 50.77 36.1501" stroke="#1A172B" stroke-width="5" stroke-linecap="round" stroke-linejoin="round"/>
<path d="M52.47 40.9199C53.28 43.1899 51.96 45.6999 49.62 46.2399C48.1 46.5799 46.52 46.7699 44.9 46.7699C43.28 46.7699 41.7 46.5899 40.18 46.2399C37.83 45.6999 36.52 43.1899 37.33 40.9199L39.03 36.1499C40.81 37.0099 42.8 37.4899 44.9 37.4899C47 37.4899 49 36.9999 50.77 36.1499L52.47 40.9199Z" stroke="#1A172B" stroke-width="5" stroke-linecap="round" stroke-linejoin="round"/>
<path d="M37.08 41.9302H36.15C28.16 41.9302 21.68 48.4102 21.68 56.4002V66.0502" stroke="#1A172B" stroke-width="5" stroke-linecap="round" stroke-linejoin="round"/>
<path d="M52.75 41.9302H53.68C61.67 41.9302 68.15 48.4102 68.15 56.4002V66.0502" stroke="#1A172B" stroke-width="5" stroke-linecap="round" stroke-linejoin="round"/>
<path d="M30.1 66.06V59.86C30.1 56.9 32.5 54.5 35.46 54.5H54.37C57.33 54.5 59.73 56.9 59.73 59.86V66.06" stroke="#1A172B" stroke-width="5" stroke-linecap="round" stroke-linejoin="round"/>
<path d="M33.14 42.21V54.5" stroke="#1A172B" stroke-width="5" stroke-linecap="round" stroke-linejoin="round"/>
<path d="M56.69 42.21V54.5" stroke="#1A172B" stroke-width="5" stroke-linecap="round" stroke-linejoin="round"/>
<path d="M37.06 62.7198C38.41 62.7198 39.5 61.6298 39.5 60.2798C39.5 58.9298 38.41 57.8398 37.06 57.8398C35.71 57.8398 34.62 58.9298 34.62 60.2798C34.62 61.6298 35.71 62.7198 37.06 62.7198Z" fill="#1A172B"/>
<path d="M52.76 62.7198C54.11 62.7198 55.2 61.6298 55.2 60.2798C55.2 58.9298 54.11 57.8398 52.76 57.8398C51.41 57.8398 50.32 58.9298 50.32 60.2798C50.32 61.6298 51.41 62.7198 52.76 62.7198Z" fill="#1A172B"/>
<path d="M2.5 84.4001L14.08 75.3001C16.82 73.1501 20.13 71.8501 23.61 71.5801C25.72 71.4101 27.83 71.6201 29.86 72.2001L42.46 75.7901C46.36 76.9001 49.43 79.9101 50.63 83.7901C51.19 85.5901 49.82 87.4101 47.94 87.3801L27.92 87.1001" stroke="#1A172B" stroke-width="5" stroke-linecap="round" stroke-linejoin="round"/>
<path d="M55.86 82.49L70.28 73.81C73.01 72.17 75.99 71 79.11 70.34L81.93 69.75C83.45 69.43 85.03 69.92 86.1 71.05C87.98 73.03 87.65 76.21 85.4 77.76L50.54 101.82C48.09 103.51 45.09 104.24 42.14 103.86L24.9 101.63C24.08 101.52 23.25 101.71 22.56 102.16L16.7 105.97" stroke="#1A172B" stroke-width="5" stroke-linecap="round" stroke-linejoin="round"/>
</g>
<defs>
<clipPath id="clip0_953_307">
<rect width="89.82" height="108.48" fill="white"/>
</clipPath>
</defs>
</svg>
