<svg width="102" height="102" viewBox="0 0 102 102" fill="none" xmlns="http://www.w3.org/2000/svg">
<g clip-path="url(#clip0_2878_2018)">
<path d="M51 101.164C78.7048 101.164 101.164 78.7048 101.164 51C101.164 23.2952 78.7048 0.83606 51 0.83606C23.2952 0.83606 0.83606 23.2952 0.83606 51C0.83606 78.7048 23.2952 101.164 51 101.164Z" stroke="#1A172B" stroke-width="2" stroke-linecap="round" stroke-linejoin="round"/>
<path d="M57.9394 14.5392H44.0523C43.0688 14.5392 42.2715 15.3365 42.2715 16.32V21.1943C42.2715 22.1778 43.0688 22.9751 44.0523 22.9751H57.9394C58.9229 22.9751 59.7202 22.1778 59.7202 21.1943V16.32C59.7202 15.3365 58.9229 14.5392 57.9394 14.5392Z" stroke="#1A172B" stroke-width="2" stroke-linecap="round" stroke-linejoin="round"/>
<path d="M51.4766 27.9747H43.116L40.4405 32.6316C38.7935 35.4993 38.3838 38.9105 39.3202 42.0792L40.3737 45.6659C41.4522 49.3446 40.7248 53.3075 38.4173 56.3675L36.9876 58.257C35.4827 60.2552 34.6633 62.6882 34.6633 65.188V87.4524H53.2825" stroke="#1A172B" stroke-width="2" stroke-linecap="round" stroke-linejoin="round"/>
<path d="M35.5579 73.0638H53.2825V39.6964H45.9585" stroke="#1A172B" stroke-width="2" stroke-linecap="round" stroke-linejoin="round"/>
<path d="M50.5236 27.9747H58.8842L61.5596 32.6316C63.2067 35.4993 63.6163 38.9105 62.6799 42.0792L61.6265 45.6659C60.548 49.3446 61.2754 53.3075 63.5829 56.3675L65.0126 58.257C66.5175 60.2552 67.3368 62.6882 67.3368 65.188V87.4524H48.7177" stroke="#1A172B" stroke-width="2" stroke-linecap="round" stroke-linejoin="round"/>
</g>
<defs>
<clipPath id="clip0_2878_2018">
<rect width="102" height="102" fill="white"/>
</clipPath>
</defs>
</svg>
