<svg width="102" height="102" viewBox="0 0 102 102" fill="none" xmlns="http://www.w3.org/2000/svg">
<g clip-path="url(#clip0_2878_2029)">
<path d="M61.6766 24.2458H24.1874V52.6303C25.1489 52.229 26.2107 52.0032 27.3143 52.0032C31.8123 52.0032 35.4659 55.6485 35.4659 60.1549C35.4659 64.6613 31.8207 68.3065 27.3143 68.3065C26.2023 68.3065 25.1489 68.0808 24.1874 67.6795V77.754H77.8043V69.9536C74.7693 69.8114 72.3531 67.3116 72.3531 64.2349C72.3531 61.1581 74.7693 58.6667 77.8043 58.5162V32.1132C73.95 31.829 70.9067 28.6185 70.9067 24.689C70.9067 24.5385 70.9234 24.388 70.9318 24.2458M37.6731 40.0977C34.6466 40.0977 32.1969 37.648 32.1969 34.6214C32.1969 31.5949 34.6466 29.1452 37.6731 29.1452C40.6997 29.1452 43.1493 31.5949 43.1493 34.6214C43.1493 37.648 40.6997 40.0977 37.6731 40.0977ZM48.241 69.3516C45.9502 69.3516 44.0941 67.4955 44.0941 65.2047C44.0941 62.9139 45.9502 61.0578 48.241 61.0578C50.5318 61.0578 52.3879 62.9139 52.3879 65.2047C52.3879 67.4955 50.5318 69.3516 48.241 69.3516ZM64.8452 51.4932C60.389 51.4932 56.7772 47.8814 56.7772 43.4252C56.7772 38.969 60.389 35.3572 64.8452 35.3572C69.3015 35.3572 72.9133 38.969 72.9133 43.4252C72.9133 47.8814 69.3015 51.4932 64.8452 51.4932Z" stroke="#1A172B" stroke-width="2" stroke-linecap="round" stroke-linejoin="round"/>
<path d="M51 101.164C78.7048 101.164 101.164 78.7048 101.164 51C101.164 23.2952 78.7048 0.83606 51 0.83606C23.2952 0.83606 0.83606 23.2952 0.83606 51C0.83606 78.7048 23.2952 101.164 51 101.164Z" stroke="#1A172B" stroke-width="2" stroke-linecap="round" stroke-linejoin="round"/>
</g>
<defs>
<clipPath id="clip0_2878_2029">
<rect width="102" height="102" fill="white"/>
</clipPath>
</defs>
</svg>
