<svg width="94" height="87" viewBox="0 0 94 87" fill="none" xmlns="http://www.w3.org/2000/svg">
<g clip-path="url(#clip0_4_4149)">
<path d="M29.97 71.35C24.06 67.17 18.9 62 14.72 56.1C9.31 48.46 5.53 39.58 3.9 29.97C3.31 26.48 3 22.89 3 19.24C3 16.05 3.23 12.91 3.69 9.84C4.27 5.92 7.61 3 11.58 3H20.64C25.8 3 29.98 7.18 29.98 12.34V24.64C29.98 28.01 28.45 31.2 25.81 33.3L25.14 33.83C23.83 34.88 23.36 36.68 24.04 38.21C25.61 41.76 27.62 45.07 29.98 48.09C32.32 51.07 35.01 53.76 37.99 56.1C40.01 57.68 42.16 59.1 44.42 60.34C46.68 61.58 49.63 61.31 51.62 59.56L52.64 58.67C54.52 57.02 56.94 56.11 59.44 56.11H73.18C78.34 56.11 82.52 60.29 82.52 65.45V74.59C82.52 78.52 79.66 81.92 75.76 82.46C72.84 82.87 69.86 83.08 66.83 83.08C62.98 83.08 59.21 82.74 55.55 82.09C52.53 81.55 49.58 80.8 46.72 79.85" stroke="#1A172B" stroke-width="6" stroke-miterlimit="10" stroke-linecap="round"/>
<path d="M51.7599 3.55005H83.6799C87.3399 3.55005 90.3099 6.52005 90.3099 10.18V30.98C90.3099 34.64 87.3399 37.6101 83.6799 37.6101H68.7699C67.8199 37.6101 66.8899 37.85 66.0499 38.3L56.8499 43.32C56.0099 43.78 54.9899 43.1601 55.0099 42.2001L55.0699 39.5401C55.0899 38.4801 54.2399 37.6101 53.1899 37.6101H51.7699C48.1099 37.6101 45.1399 34.64 45.1399 30.98V18.5" stroke="#1A172B" stroke-width="6" stroke-miterlimit="10" stroke-linecap="round"/>
<path d="M57.6 23.5C59.2845 23.5 60.6501 22.1345 60.6501 20.45C60.6501 18.7656 59.2845 17.4 57.6 17.4C55.9156 17.4 54.55 18.7656 54.55 20.45C54.55 22.1345 55.9156 23.5 57.6 23.5Z" fill="#1A172B"/>
<path d="M67.7202 23.5C69.4046 23.5 70.7702 22.1345 70.7702 20.45C70.7702 18.7656 69.4046 17.4 67.7202 17.4C66.0357 17.4 64.6702 18.7656 64.6702 20.45C64.6702 22.1345 66.0357 23.5 67.7202 23.5Z" fill="#1A172B"/>
<path d="M77.8303 23.5C79.5147 23.5 80.8803 22.1345 80.8803 20.45C80.8803 18.7656 79.5147 17.4 77.8303 17.4C76.1458 17.4 74.7803 18.7656 74.7803 20.45C74.7803 22.1345 76.1458 23.5 77.8303 23.5Z" fill="#1A172B"/>
</g>
<defs>
<clipPath id="clip0_4_4149">
<rect width="93.3" height="86.07" fill="white"/>
</clipPath>
</defs>
</svg>
