<svg width="93" height="97" viewBox="0 0 93 97" fill="none" xmlns="http://www.w3.org/2000/svg">
<g clip-path="url(#clip0_953_349)">
<path d="M22.63 47.19L21.72 38.28L20.68 28.08C20.11 22.39 24.57 17.46 30.28 17.46H61.76C67.22 17.46 71.54 21.97 71.4 27.35C71.4 27.59 71.38 27.83 71.36 28.08L70.24 39.17L66.52 75.79C65.45 86.3 56.59 94.31 46.02 94.31C35.45 94.31 26.59 86.3 25.53 75.79L24 60.74" stroke="#1A172B" stroke-width="5" stroke-linecap="round" stroke-linejoin="round"/>
<path d="M26.16 78.3899C26.16 71.8999 31.42 66.6499 37.9 66.6499H54.14C60.63 66.6499 65.88 71.9099 65.88 78.3899" stroke="#1A172B" stroke-width="5" stroke-linecap="round" stroke-linejoin="round"/>
<path d="M89.54 27.3501C88.32 34.4101 82.17 39.7801 74.75 39.7801C73.27 39.7801 71.85 39.5701 70.5 39.1701L71.62 28.0801C71.64 27.8301 71.66 27.5901 71.66 27.3501H89.54Z" stroke="#1A172B" stroke-width="5" stroke-linecap="round" stroke-linejoin="round"/>
<path d="M2.5 27.3501C3.72 34.4101 9.87 39.7801 17.29 39.7801C18.77 39.7801 20.19 39.5701 21.54 39.1701L20.42 28.0801C20.4 27.8301 20.38 27.5901 20.38 27.3501H2.5Z" stroke="#1A172B" stroke-width="5" stroke-linecap="round" stroke-linejoin="round"/>
<path d="M34.16 17.46H30.29C24.58 17.46 20.12 22.39 20.69 28.08L18.61 10.67C18.12 6.31 21.53 2.5 25.92 2.5C27.79 2.5 29.51 3.2 30.82 4.37C32.12 5.54 33.02 7.17 33.22 9.03L34.16 17.46Z" stroke="#1A172B" stroke-width="5" stroke-linecap="round" stroke-linejoin="round"/>
<path d="M58.01 17.46H61.88C67.59 17.46 72.05 22.39 71.48 28.08L73.56 10.67C74.05 6.31 70.64 2.5 66.25 2.5C64.38 2.5 62.66 3.2 61.35 4.37C60.05 5.54 59.15 7.17 58.95 9.03L58.01 17.46Z" stroke="#1A172B" stroke-width="5" stroke-linecap="round" stroke-linejoin="round"/>
<path d="M36.52 42.4001C38.9611 42.4001 40.94 40.4212 40.94 37.9801C40.94 35.539 38.9611 33.5601 36.52 33.5601C34.0789 33.5601 32.1 35.539 32.1 37.9801C32.1 40.4212 34.0789 42.4001 36.52 42.4001Z" fill="#1A172B"/>
<path d="M55.52 42.4001C57.9611 42.4001 59.94 40.4212 59.94 37.9801C59.94 35.539 57.9611 33.5601 55.52 33.5601C53.0789 33.5601 51.1 35.539 51.1 37.9801C51.1 40.4212 53.0789 42.4001 55.52 42.4001Z" fill="#1A172B"/>
</g>
<defs>
<clipPath id="clip0_953_349">
<rect width="92.04" height="96.81" fill="white"/>
</clipPath>
</defs>
</svg>
