<svg width="109" height="101" viewBox="0 0 109 101" fill="none" xmlns="http://www.w3.org/2000/svg">
<path d="M62.79 84.04H26.79" stroke="#8FD2EA" stroke-width="5" stroke-miterlimit="10" stroke-linecap="round"/>
<path d="M12.79 68.8073H65.416V28.04H90.3734L104.79 52.7528V84.04H91.9003" stroke="#8FD2EA" stroke-width="5" stroke-miterlimit="10" stroke-linecap="round"/>
<path d="M4.9598 61.04H34.2039C46.6813 61.04 56.79 50.9699 56.79 38.54C56.79 26.1102 46.6813 16.04 34.2039 16.04H3.79004" stroke="#8FD2EA" stroke-width="5" stroke-miterlimit="10" stroke-linecap="round"/>
<path d="M16.79 14.6925V8.18144C16.79 5.33987 18.9486 3.04004 21.6157 3.04004H28.9644C31.6315 3.04004 33.79 5.33987 33.79 8.18144V15.04" stroke="#8FD2EA" stroke-width="5" stroke-miterlimit="10" stroke-linecap="round"/>
<path d="M77.79 34.04V55.04H96.79" stroke="#8FD2EA" stroke-width="5" stroke-miterlimit="10" stroke-linecap="round"/>
<path d="M14.29 97.04C20.089 97.04 24.79 92.1152 24.79 86.04C24.79 79.9649 20.089 75.04 14.29 75.04C8.49105 75.04 3.79004 79.9649 3.79004 86.04C3.79004 92.1152 8.49105 97.04 14.29 97.04Z" stroke="#8FD2EA" stroke-width="5" stroke-miterlimit="10" stroke-linecap="round"/>
<path d="M80.79 97.04C86.8652 97.04 91.79 92.1152 91.79 86.04C91.79 79.9649 86.8652 75.04 80.79 75.04C74.7149 75.04 69.79 79.9649 69.79 86.04C69.79 92.1152 74.7149 97.04 80.79 97.04Z" stroke="#8FD2EA" stroke-width="5" stroke-miterlimit="10" stroke-linecap="round"/>
</svg>
