<svg width="60" height="77" viewBox="0 0 60 77" fill="none" xmlns="http://www.w3.org/2000/svg">
<g clip-path="url(#clip0_1777_2068)">
<path d="M29.712 14.1588C44.7947 14.1588 57.0216 11.5261 57.0216 8.27847C57.0216 5.03088 44.7947 2.39819 29.712 2.39819C14.6293 2.39819 2.40234 5.03088 2.40234 8.27847C2.40234 11.5261 14.6293 14.1588 29.712 14.1588Z" stroke="#443D72" stroke-width="4" stroke-miterlimit="10" stroke-linecap="round"/>
<path d="M46.9512 73.2877C53.1011 72.2134 57.0217 70.5634 57.0217 68.7216V9.20898" stroke="#443D72" stroke-width="4" stroke-miterlimit="10" stroke-linecap="round"/>
<path d="M2.40234 8.27832V68.7214C2.40234 71.9733 14.6254 74.6017 29.712 74.6017C31.1245 74.6017 32.5083 74.5825 33.8536 74.5346" stroke="#443D72" stroke-width="4" stroke-miterlimit="10" stroke-linecap="round"/>
<path d="M57.0218 50.8408C57.0218 54.0927 44.7987 56.7211 29.7121 56.7211C25.0132 56.7211 20.5929 56.4621 16.73 56.0112" stroke="#443D72" stroke-width="4" stroke-miterlimit="10" stroke-linecap="round"/>
<path d="M45.673 30.0825C41.1855 30.7827 35.6697 31.1952 29.712 31.1952C14.6254 31.1952 2.40234 28.5572 2.40234 25.3149" stroke="#443D72" stroke-width="4" stroke-miterlimit="10" stroke-linecap="round"/>
</g>
<defs>
<clipPath id="clip0_1777_2068">
<rect width="59.4239" height="77" fill="white"/>
</clipPath>
</defs>
</svg>
