<svg width="93" height="97" viewBox="0 0 93 97" fill="none" xmlns="http://www.w3.org/2000/svg">
<g clip-path="url(#clip0_263_153)">
<path d="M22.63 47.19L21.72 38.28L20.68 28.08C20.11 22.39 24.57 17.46 30.28 17.46H61.76C67.22 17.46 71.54 21.97 71.4 27.35C71.4 27.59 71.38 27.83 71.36 28.08L70.24 39.17L66.52 75.79C65.45 86.3 56.59 94.31 46.02 94.31C35.45 94.31 26.59 86.3 25.53 75.79L24 60.74" stroke="#1A172B" stroke-width="5" stroke-linecap="round" stroke-linejoin="round"/>
<path d="M26.1602 78.39C26.1602 71.9 31.4202 66.65 37.9002 66.65H54.1402C60.6302 66.65 65.8802 71.91 65.8802 78.39" stroke="#1A172B" stroke-width="5" stroke-linecap="round" stroke-linejoin="round"/>
<path d="M89.54 27.35C88.32 34.41 82.17 39.78 74.75 39.78C73.27 39.78 71.85 39.57 70.5 39.17L71.62 28.08C71.64 27.83 71.66 27.59 71.66 27.35H89.54Z" stroke="#1A172B" stroke-width="5" stroke-linecap="round" stroke-linejoin="round"/>
<path d="M2.5 27.35C3.72 34.41 9.87 39.78 17.29 39.78C18.77 39.78 20.19 39.57 21.54 39.17L20.42 28.08C20.4 27.83 20.38 27.59 20.38 27.35H2.5Z" stroke="#1A172B" stroke-width="5" stroke-linecap="round" stroke-linejoin="round"/>
<path d="M34.1599 17.46H30.2899C24.5799 17.46 20.1199 22.39 20.6899 28.08L18.6099 10.67C18.1199 6.31 21.5299 2.5 25.9199 2.5C27.7899 2.5 29.5099 3.2 30.8199 4.37C32.1199 5.54 33.0199 7.17 33.2199 9.03L34.1599 17.46Z" stroke="#1A172B" stroke-width="5" stroke-linecap="round" stroke-linejoin="round"/>
<path d="M58.0098 17.46H61.8798C67.5898 17.46 72.0498 22.39 71.4798 28.08L73.5598 10.67C74.0498 6.31 70.6398 2.5 66.2498 2.5C64.3798 2.5 62.6598 3.2 61.3498 4.37C60.0498 5.54 59.1498 7.17 58.9498 9.03L58.0098 17.46Z" stroke="#1A172B" stroke-width="5" stroke-linecap="round" stroke-linejoin="round"/>
<path d="M36.5201 42.4001C38.9612 42.4001 40.9401 40.4212 40.9401 37.9801C40.9401 35.539 38.9612 33.5601 36.5201 33.5601C34.079 33.5601 32.1001 35.539 32.1001 37.9801C32.1001 40.4212 34.079 42.4001 36.5201 42.4001Z" fill="#1A172B"/>
<path d="M55.5201 42.4001C57.9612 42.4001 59.9401 40.4212 59.9401 37.9801C59.9401 35.539 57.9612 33.5601 55.5201 33.5601C53.079 33.5601 51.1001 35.539 51.1001 37.9801C51.1001 40.4212 53.079 42.4001 55.5201 42.4001Z" fill="#1A172B"/>
</g>
<defs>
<clipPath id="clip0_263_153">
<rect width="92.04" height="96.81" fill="white"/>
</clipPath>
</defs>
</svg>
