<svg width="95" height="99" viewBox="0 0 95 99" fill="none" xmlns="http://www.w3.org/2000/svg">
<g clip-path="url(#clip0_953_331)">
<path d="M2.5 50.99V39.1C2.5 31.03 9.04 24.5 17.1 24.5C25.17 24.5 31.7 31.04 31.7 39.1V61.88H10.12V95.05" stroke="#1A172B" stroke-width="5" stroke-linecap="round" stroke-linejoin="round"/>
<path d="M23.13 95.0502V63.9302" stroke="#1A172B" stroke-width="5" stroke-linecap="round" stroke-linejoin="round"/>
<path d="M17.1 17.52C21.2477 17.52 24.61 14.1577 24.61 10.01C24.61 5.86234 21.2477 2.5 17.1 2.5C12.9524 2.5 9.59003 5.86234 9.59003 10.01C9.59003 14.1577 12.9524 17.52 17.1 17.52Z" stroke="#1A172B" stroke-width="5" stroke-linecap="round" stroke-linejoin="round"/>
<path d="M28.18 3.12988H91.84V55.8599H37.86" stroke="#1A172B" stroke-width="5" stroke-linecap="round" stroke-linejoin="round"/>
<path d="M54.96 16.9102H78.81" stroke="#1A172B" stroke-width="5" stroke-linecap="round" stroke-linejoin="round"/>
<path d="M54.96 29.9102H78.81" stroke="#1A172B" stroke-width="5" stroke-linecap="round" stroke-linejoin="round"/>
<path d="M54.96 42.9102H78.81" stroke="#1A172B" stroke-width="5" stroke-linecap="round" stroke-linejoin="round"/>
<path d="M57.46 56.6099V78.9899" stroke="#1A172B" stroke-width="5" stroke-linecap="round" stroke-linejoin="round"/>
<path d="M41.41 95.6198L57.46 79.5698" stroke="#1A172B" stroke-width="5" stroke-linecap="round" stroke-linejoin="round"/>
<path d="M30.26 28.32L46.31 12.27" stroke="#1A172B" stroke-width="5" stroke-linecap="round" stroke-linejoin="round"/>
<path d="M73.51 95.6198L57.46 79.5698" stroke="#1A172B" stroke-width="5" stroke-linecap="round" stroke-linejoin="round"/>
</g>
<defs>
<clipPath id="clip0_953_331">
<rect width="94.34" height="98.12" fill="white"/>
</clipPath>
</defs>
</svg>
