<svg width="44" height="43" viewBox="0 0 44 43" fill="none" xmlns="http://www.w3.org/2000/svg">
<path d="M11.3012 23.5719C10.4491 23.8938 9.54013 24.0832 8.57439 24.0832C4.38954 24.0832 1 20.6936 1 16.5087C1 12.3239 4.38954 8.93433 8.57439 8.93433C10.9035 8.93433 12.9865 9.99474 14.3688 11.6422" stroke="#1A172B" stroke-width="2" stroke-miterlimit="10" stroke-linecap="round"/>
<path d="M33.2669 8.76367C33.9486 8.55537 34.6682 8.46069 35.4256 8.46069C39.6105 8.46069 43 11.8502 43 16.0351C43 20.22 39.6105 23.6095 35.4256 23.6095C34.4788 23.6095 33.5699 23.4391 32.7367 23.1172" stroke="#1A172B" stroke-width="2" stroke-miterlimit="10" stroke-linecap="round"/>
<path d="M9.578 9.00994C11.5284 4.31381 16.1677 1 21.5645 1C28.7412 1 34.5546 6.81336 34.5546 13.9901" stroke="#1A172B" stroke-width="2" stroke-miterlimit="10" stroke-linecap="round"/>
<path d="M30.7861 22.8902C28.0972 22.0381 25.1242 21.5647 21.9998 21.5647C18.8754 21.5647 15.9024 22.0381 13.2135 22.8902" stroke="#1A172B" stroke-width="2" stroke-miterlimit="10" stroke-linecap="round"/>
<path d="M18.459 41.4664H33.0397C34.119 41.4664 35.0279 40.709 35.2362 39.6486L35.4256 38.645C35.5203 38.1526 35.1984 37.6792 34.6871 37.5846C30.881 36.9218 26.5825 36.562 22 36.562C17.4175 36.562 13.119 36.9407 9.31288 37.5846C8.82055 37.6792 8.49864 38.1526 8.57438 38.645L8.76374 39.6486C8.9531 40.709 9.88096 41.4664 10.9603 41.4664H13.0433" stroke="#1A172B" stroke-width="2" stroke-miterlimit="10" stroke-linecap="round"/>
<path d="M7.79785 24.064L8.80146 26.7718C10.0512 30.1424 10.6951 33.7024 10.6951 37.2813" stroke="#1A172B" stroke-width="2" stroke-miterlimit="10" stroke-linecap="round"/>
<path d="M36.2207 24.064L35.2171 26.7718C33.9673 30.1424 33.3235 33.7024 33.3235 37.2813" stroke="#1A172B" stroke-width="2" stroke-miterlimit="10" stroke-linecap="round"/>
</svg>
