<svg width="89" height="92" viewBox="0 0 89 92" fill="none" xmlns="http://www.w3.org/2000/svg">
<g clip-path="url(#clip0_264_166)">
<path d="M86.08 61.78V71.72C86.08 76.99 81.81 81.26 76.53 81.26H12.04C6.77 81.26 2.5 76.99 2.5 71.72V22.46H86.08V42.36" stroke="#1A172B" stroke-width="5" stroke-linecap="round" stroke-linejoin="round"/>
<path d="M85.5098 22.46H3.06982C14.1898 16.32 28.5698 12.62 44.2998 12.62C60.0298 12.62 74.3998 16.32 85.5198 22.46H85.5098Z" stroke="#1A172B" stroke-width="5" stroke-linecap="round" stroke-linejoin="round"/>
<path d="M44.2898 2.5C46.7698 2.5 48.7898 4.51 48.7898 7V12.63H39.7998V7C39.7998 4.52 41.8098 2.5 44.2998 2.5H44.2898Z" stroke="#1A172B" stroke-width="5" stroke-linecap="round" stroke-linejoin="round"/>
<path d="M12.93 81.26V89.19H2.5V71.72C2.5 76.99 6.77 81.26 12.04 81.26H12.93Z" stroke="#1A172B" stroke-width="5" stroke-linecap="round" stroke-linejoin="round"/>
<path d="M86.0799 71.72V89.19H75.6499V81.26H76.5299C81.8099 81.26 86.0799 76.99 86.0799 71.72Z" stroke="#1A172B" stroke-width="5" stroke-linecap="round" stroke-linejoin="round"/>
<path d="M49.5101 81.26H39.0801V89.19H49.5101V81.26Z" stroke="#1A172B" stroke-width="5" stroke-linecap="round" stroke-linejoin="round"/>
<path d="M75.6502 38.39V61.14C75.6502 65.9 71.7902 69.75 67.0402 69.75H48.1602" stroke="#1A172B" stroke-width="5" stroke-linecap="round" stroke-linejoin="round"/>
</g>
<defs>
<clipPath id="clip0_264_166">
<rect width="88.58" height="91.7" fill="white"/>
</clipPath>
</defs>
</svg>
