<svg width="71" height="95" viewBox="0 0 71 95" fill="none" xmlns="http://www.w3.org/2000/svg">
<g clip-path="url(#clip0_262_124)">
<path d="M26.0599 16.7H43.7899C47.7899 16.7 51.2499 14.38 52.8999 11.02C53.5599 9.68 53.9299 8.17 53.9299 6.58V2.5H33.3499C27.7199 2.5 22.7199 5.21 19.5799 9.4C17.4299 12.27 16.1699 15.83 16.1699 19.69V32.64C16.1699 37.86 18.2799 42.58 21.6999 45.99C23.1799 47.47 24.9099 48.71 26.8099 49.64" stroke="#1A172B" stroke-width="5" stroke-linecap="round" stroke-linejoin="round"/>
<path d="M53.9298 24.3V32.6501C53.9298 40.1201 49.5798 46.5901 43.2798 49.6501" stroke="#1A172B" stroke-width="5" stroke-linecap="round" stroke-linejoin="round"/>
<path d="M45.6602 56.33C46.7902 59.51 44.9502 63.03 41.6602 63.78C39.5302 64.26 37.3202 64.52 35.0502 64.52C32.7802 64.52 30.5602 64.27 28.4402 63.78C25.1502 63.03 23.3102 59.51 24.4402 56.33L26.8202 49.64C29.3102 50.84 32.1002 51.52 35.0502 51.52C38.0002 51.52 40.8002 50.84 43.2802 49.64L45.6602 56.33Z" stroke="#1A172B" stroke-width="5" stroke-linecap="round" stroke-linejoin="round"/>
<path d="M24.09 57.75H22.78C11.58 57.75 2.5 66.83 2.5 78.03V91.55" stroke="#1A172B" stroke-width="5" stroke-linecap="round" stroke-linejoin="round"/>
<path d="M46.0498 57.75H47.3598C58.5598 57.75 67.6398 66.83 67.6398 78.03V91.55" stroke="#1A172B" stroke-width="5" stroke-linecap="round" stroke-linejoin="round"/>
<path d="M14.3101 91.56V82.87C14.3101 78.72 17.6701 75.36 21.8201 75.36H48.3201C52.4701 75.36 55.8301 78.72 55.8301 82.87V91.56" stroke="#1A172B" stroke-width="5" stroke-linecap="round" stroke-linejoin="round"/>
<path d="M18.5698 58.15V75.37" stroke="#1A172B" stroke-width="5" stroke-linecap="round" stroke-linejoin="round"/>
<path d="M51.5698 58.15V75.37" stroke="#1A172B" stroke-width="5" stroke-linecap="round" stroke-linejoin="round"/>
<path d="M24.0699 86.88C25.9587 86.88 27.4899 85.3489 27.4899 83.46C27.4899 81.5712 25.9587 80.04 24.0699 80.04C22.1811 80.04 20.6499 81.5712 20.6499 83.46C20.6499 85.3489 22.1811 86.88 24.0699 86.88Z" fill="#1A172B"/>
<path d="M46.0699 86.88C47.9587 86.88 49.4899 85.3489 49.4899 83.46C49.4899 81.5712 47.9587 80.04 46.0699 80.04C44.1811 80.04 42.6499 81.5712 42.6499 83.46C42.6499 85.3489 44.1811 86.88 46.0699 86.88Z" fill="#1A172B"/>
</g>
<defs>
<clipPath id="clip0_262_124">
<rect width="70.14" height="94.06" fill="white"/>
</clipPath>
</defs>
</svg>
