<svg width="71" height="103" viewBox="0 0 71 103" fill="none" xmlns="http://www.w3.org/2000/svg">
<path d="M68 49.5298V89.4598C68 93.4798 65.03 96.8998 61.04 97.4198C53.01 98.4598 44.42 99.0198 35.5 99.0198C26.58 99.0198 18 98.4598 9.96 97.4198C5.97 96.8998 3 93.4798 3 89.4598V49.0498H3.01" stroke="#8FD2EA" stroke-width="5" stroke-linecap="round" stroke-linejoin="round"/>
<path d="M43.35 50.5501C40.77 50.6501 38.16 50.7001 35.51 50.7001C23.96 50.7001 12.97 49.7601 3.01 48.0501H3V9.37012C12.96 11.0801 23.95 12.0201 35.5 12.0201C47.05 12.0201 58.04 11.0801 68 9.37012V48.0501C63.84 48.7601 59.51 49.3401 55.03 49.7801" stroke="#8FD2EA" stroke-width="5" stroke-linecap="round" stroke-linejoin="round"/>
<path d="M35.5 12.06C53.4493 12.06 68 10.0318 68 7.53C68 5.02815 53.4493 3 35.5 3C17.5507 3 3 5.02815 3 7.53C3 10.0318 17.5507 12.06 35.5 12.06Z" stroke="#8FD2EA" stroke-width="5" stroke-linejoin="round"/>
</svg>
