<svg width="19" height="19" viewBox="0 0 19 19" fill="none" xmlns="http://www.w3.org/2000/svg">
<g clip-path="url(#clip0_50_681)">
<path fill-rule="evenodd" clip-rule="evenodd" d="M16.6787 0C17.9599 0 19 1.04018 19 2.32134V16.6787C19 17.9598 17.9598 19 16.6787 19H2.32134C1.04018 19 0 17.9598 0 16.6787V2.32134C0 1.04018 1.04014 0 2.32134 0L16.6787 0ZM5.95461 15.7076V7.33137H3.16992V15.7076H5.95461ZM15.9941 15.7076V10.9042C15.9941 8.33128 14.6204 7.13439 12.7886 7.13439C11.3115 7.13439 10.6498 7.94675 10.2794 8.51731V7.33137H7.49539C7.53231 8.11738 7.49539 15.7076 7.49539 15.7076H10.2793V11.0297C10.2793 10.7793 10.2974 10.529 10.3711 10.3501C10.5721 9.85002 11.0305 9.33201 11.7996 9.33201C12.8066 9.33201 13.21 10.1004 13.21 11.226V15.7076H15.9941ZM4.58108 3.29242C3.62833 3.29242 3.00586 3.91879 3.00586 4.73976C3.00586 5.54347 3.60941 6.1871 4.54423 6.1871H4.56219C5.53316 6.1871 6.13756 5.54347 6.13756 4.73976C6.11956 3.91994 5.53486 3.2942 4.58108 3.29242Z" fill="#2E2E2E"/>
</g>
<defs>
<clipPath id="clip0_50_681">
<rect width="19" height="19" fill="white"/>
</clipPath>
</defs>
</svg>
