<svg width="46" height="63" viewBox="0 0 46 63" fill="none" xmlns="http://www.w3.org/2000/svg">
<path d="M22.9988 26.6381C34.965 26.6381 44.6655 23.9161 44.6655 20.5583C44.6655 17.2005 34.965 14.4785 22.9988 14.4785C11.0326 14.4785 1.33203 17.2005 1.33203 20.5583C1.33203 23.9161 11.0326 26.6381 22.9988 26.6381Z" stroke="#0500C4" stroke-width="2" stroke-miterlimit="10"/>
<path d="M14.2859 43.2461C6.65919 42.3045 1.33203 40.1656 1.33203 37.6777" stroke="#0500C4" stroke-width="2" stroke-miterlimit="10"/>
<path d="M44.6685 37.6777C44.6685 40.1415 39.442 42.2654 31.9307 43.219" stroke="#0500C4" stroke-width="2" stroke-miterlimit="10"/>
<path d="M1.33203 46.502V55.566" stroke="#0500C4" stroke-width="2" stroke-miterlimit="10" stroke-linecap="round"/>
<path d="M1.31445 21L1.31445 40.6875" stroke="#0500C4" stroke-width="2" stroke-miterlimit="10" stroke-linecap="round"/>
<path d="M44.6855 21L44.6855 56.4375" stroke="#0500C4" stroke-width="2" stroke-miterlimit="10"/>
<path d="M44.6685 55.5664C44.6685 58.9237 34.9671 61.6462 23.0017 61.6462C11.0363 61.6462 1.33203 58.9237 1.33203 55.5664" stroke="#0500C4" stroke-width="2" stroke-miterlimit="10"/>
<path d="M22.9985 52.2541C27.8122 52.2541 31.7144 48.2876 31.7144 43.3946C31.7144 38.5017 27.8122 34.5352 22.9985 34.5352C18.1849 34.5352 14.2827 38.5017 14.2827 43.3946C14.2827 48.2876 18.1849 52.2541 22.9985 52.2541Z" stroke="#0500C4" stroke-width="2" stroke-miterlimit="10"/>
</svg>
