<svg width="42" height="42" viewBox="0 0 42 42" fill="none" xmlns="http://www.w3.org/2000/svg">
<path d="M21 0C9.42065 0 0 9.42065 0 21C0 32.5794 9.42065 42 21 42C32.5794 42 42 32.5794 42 21C42 9.42065 32.5794 0 21 0ZM26.2225 21.7393H22.806C22.806 27.1978 22.806 33.9184 22.806 33.9184H17.7433C17.7433 33.9184 17.7433 27.263 17.7433 21.7393H15.3368V17.4354H17.7433V14.6516C17.7433 12.6579 18.6907 9.54246 22.8525 9.54246L26.6023 9.55684V13.7347C26.6023 13.7347 24.3226 13.7347 23.8794 13.7347C23.4362 13.7347 22.8068 13.9563 22.8068 14.9071V17.4363H26.6641L26.2225 21.7393Z" fill="white"/>
</svg>
