<svg width="42" height="42" viewBox="0 0 42 42" fill="none" xmlns="http://www.w3.org/2000/svg">
<path d="M20.8283 24.9282C22.9027 24.9282 24.5844 23.2465 24.5844 21.1721C24.5844 19.0977 22.9027 17.416 20.8283 17.416C18.7539 17.416 17.0723 19.0977 17.0723 21.1721C17.0723 23.2465 18.7539 24.9282 20.8283 24.9282Z" fill="white"/>
<path d="M25.5248 11.9512H16.1347C14.7688 11.9512 13.5737 12.378 12.8055 13.1463C12.0372 13.9146 11.6104 15.1097 11.6104 16.4756V25.8658C11.6104 27.2317 12.0372 28.4268 12.8908 29.2804C13.7445 30.0487 14.8542 30.4756 16.22 30.4756H25.5248C26.8906 30.4756 28.0857 30.0487 28.854 29.2804C29.7077 28.5121 30.1345 27.317 30.1345 25.9512V16.5609C30.1345 15.1951 29.7077 14.0853 28.9394 13.2317C28.0857 12.378 26.976 11.9512 25.5248 11.9512ZM20.8297 26.9756C17.5859 26.9756 15.0249 24.3292 15.0249 21.1707C15.0249 17.9268 17.6712 15.3658 20.8297 15.3658C23.9882 15.3658 26.7199 17.9268 26.7199 21.1707C26.7199 24.4146 24.0736 26.9756 20.8297 26.9756ZM26.8906 16.4756C26.1223 16.4756 25.5248 15.878 25.5248 15.1097C25.5248 14.3414 26.1223 13.7439 26.8906 13.7439C27.6589 13.7439 28.2565 14.3414 28.2565 15.1097C28.2565 15.878 27.6589 16.4756 26.8906 16.4756Z" fill="white"/>
<path d="M20.9997 0C9.39011 0 0 9.39024 0 21C0 32.6098 9.39011 42 20.9997 42C32.6093 42 41.9994 32.6098 41.9994 21C42.0848 9.39024 32.6093 0 20.9997 0ZM32.1825 25.9512C32.1825 27.9146 31.4996 29.6219 30.3045 30.8171C29.1094 32.0122 27.4021 32.6098 25.524 32.6098H16.2193C14.3413 32.6098 12.634 32.0122 11.4389 30.8171C10.1584 29.6219 9.56084 27.9146 9.56084 25.9512V16.561C9.56084 12.6341 12.2072 9.90244 16.2193 9.90244H25.6094C27.5728 9.90244 29.1947 10.5854 30.3898 11.7805C31.5849 12.9756 32.1825 14.5976 32.1825 16.561V25.9512Z" fill="white"/>
</svg>
