<svg width="42" height="42" viewBox="0 0 42 42" fill="none" xmlns="http://www.w3.org/2000/svg">
<g clip-path="url(#clip0_1883_893)">
<path d="M20.0973 0C20.6973 0 21.3027 0 21.9027 0C21.9554 0.0105276 22.008 0.0210553 22.0607 0.0315829C23.0081 0.142123 23.9662 0.205289 24.9031 0.373731C28.7931 1.09487 32.204 2.80561 35.1255 5.46911C40.8209 10.6592 43.2107 18.4234 41.4157 25.898C40.363 30.2933 38.1048 33.9779 34.6833 36.9151C31.0407 40.0419 26.8034 41.721 22.008 41.9684C18.9761 42.1211 16.0441 41.6421 13.228 40.5051C9.08008 38.8364 5.77967 36.1151 3.34779 32.3619C1.53177 29.5774 0.463216 26.5138 0.121068 23.2029C0.0736934 22.7713 0.0421105 22.3344 0 21.9027C0 21.3027 0 20.6973 0 20.0973C0.0105276 20.0025 0.0315829 19.913 0.0368467 19.8183C0.136859 17.8917 0.494799 16.0125 1.13172 14.1913C2.73192 9.61699 5.56912 5.99549 9.62752 3.35305C12.4173 1.53177 15.4809 0.46848 18.7918 0.121068C19.2235 0.0736934 19.6604 0.0368467 20.0973 0ZM9.34328 9.07482C9.40644 9.16957 9.44329 9.23274 9.4854 9.2959C12.4279 13.5806 15.3703 17.8654 18.3181 22.1449C18.4128 22.287 18.4234 22.366 18.3023 22.5028C15.3598 25.9138 12.4226 29.33 9.49066 32.7409C9.44855 32.7883 9.41171 32.841 9.3538 32.9199C10.0328 32.9199 10.6645 32.9199 11.3014 32.9146C11.3698 32.9146 11.4488 32.8515 11.4962 32.7988C13.6965 30.2459 15.8915 27.6929 18.0917 25.14C18.5076 24.6557 18.9287 24.1714 19.3603 23.6714C19.413 23.7398 19.4551 23.7925 19.4919 23.8504C21.529 26.8191 23.5714 29.7827 25.6032 32.7515C25.6874 32.8778 25.7769 32.9304 25.9348 32.9304C28.1035 32.9252 30.2669 32.9304 32.4356 32.9304H32.6778C29.5142 28.3246 26.3717 23.7556 23.2292 19.1813C26.1191 15.823 28.9984 12.4752 31.904 9.09588C31.7987 9.09061 31.7303 9.08535 31.6671 9.08535C31.1671 9.08535 30.667 9.09588 30.1722 9.08008C29.9459 9.07482 29.7985 9.14325 29.6511 9.31696C27.2613 12.1068 24.861 14.8966 22.4607 17.6812C22.4133 17.7338 22.366 17.7812 22.3081 17.8443C22.2291 17.7285 22.1659 17.6391 22.108 17.5496C20.2131 14.7913 18.3181 12.0331 16.4231 9.26958C16.3284 9.12746 16.2283 9.07482 16.0599 9.08008C13.907 9.08535 11.7541 9.08008 9.6012 9.08008H9.34854L9.34328 9.07482Z" fill="white"/>
<path d="M12.1387 10.623C13.1809 10.623 14.1758 10.623 15.1759 10.6283C15.2496 10.6283 15.3443 10.7073 15.3917 10.7704C16.4234 12.2338 17.4446 13.7024 18.471 15.171C22.2084 20.519 25.9457 25.8671 29.683 31.2151C29.7251 31.2783 29.7672 31.3414 29.8304 31.4362C29.7356 31.4362 29.6619 31.4467 29.5935 31.4467C28.7197 31.4467 27.8459 31.4414 26.9668 31.4467C26.7616 31.4467 26.6352 31.3888 26.5194 31.2151C22.6768 25.7091 18.829 20.2032 14.9811 14.7025C14.081 13.4129 13.1809 12.1285 12.2808 10.8389C12.2387 10.781 12.2018 10.7178 12.1387 10.623Z" fill="white"/>
</g>
<defs>
<clipPath id="clip0_1883_893">
<rect width="42" height="42" fill="white"/>
</clipPath>
</defs>
</svg>
