<svg width="98" height="116" viewBox="0 0 98 116" fill="none" xmlns="http://www.w3.org/2000/svg">
<g clip-path="url(#clip0_1777_1642)">
<path d="M69.1702 85.6C47.5802 89.9 25.2802 89.37 3.87023 84C3.06023 83.8 2.49023 83.07 2.49023 82.24V35.31C2.49023 32.7 4.61023 30.58 7.22023 30.58H72.9102C75.5202 30.58 77.6402 32.7 77.6402 35.31V44.61" stroke="#443D72" stroke-width="5" stroke-linejoin="round"/>
<path d="M5.90986 84.4399L4.65986 111.03C4.60986 112.07 5.43986 112.94 6.47986 112.94C7.24986 112.94 7.92986 112.46 8.18986 111.74L17.3099 86.6899" stroke="#443D72" stroke-width="5" stroke-linejoin="round"/>
<path d="M74.4601 88.9099L75.5001 111.02C75.5501 112.06 74.7201 112.93 73.6801 112.93C72.9101 112.93 72.2301 112.45 71.9701 111.73L62.8501 86.6799" stroke="#443D72" stroke-width="5" stroke-linejoin="round"/>
<path d="M46.9202 87.96L42.0602 110.89C41.8602 111.83 41.0302 112.5 40.0802 112.5C39.1202 112.5 38.2902 111.83 38.1002 110.89L33.2402 87.96" stroke="#443D72" stroke-width="5" stroke-linejoin="round"/>
<path d="M90.3001 44.6H74.0501C71.3052 44.6 69.0801 46.8251 69.0801 49.57V83.94C69.0801 86.6848 71.3052 88.91 74.0501 88.91H90.3001C93.0449 88.91 95.2701 86.6848 95.2701 83.94V49.57C95.2701 46.8251 93.0449 44.6 90.3001 44.6Z" stroke="#443D72" stroke-width="5" stroke-linejoin="round"/>
<path d="M36.4399 13.21C37.5699 13.11 38.7299 13.03 39.9099 12.98H40.2499C54.3099 13.63 65.0399 17.73 70.0099 20.02C71.8799 20.88 73.0599 22.61 73.0599 24.51V29.96" stroke="#443D72" stroke-width="5" stroke-linejoin="round"/>
<path d="M7.08984 29.95V24.5C7.08984 23.32 7.54984 22.21 8.33984 21.33" stroke="#443D72" stroke-width="5" stroke-linejoin="round"/>
<path d="M36.1398 15.91L35.5398 16.25C27.8498 20.53 19.1698 22.72 10.3698 22.62H9.67984C9.09984 22.6 8.59984 22.21 8.45984 21.65L7.47984 17.77C7.11984 16.34 7.97984 14.9 9.40984 14.54L32.5498 8.69005C33.9798 8.33005 35.4198 9.19005 35.7798 10.62L36.7598 14.5C36.8998 15.06 36.6498 15.65 36.1398 15.93V15.91Z" stroke="#443D72" stroke-width="5" stroke-linejoin="round"/>
<path d="M12.25 2.5L17.33 2.94C18.13 3.01 18.81 3.56 19.04 4.32L19.66 6.32L20.42 9.15" stroke="#443D72" stroke-width="5" stroke-linecap="round" stroke-linejoin="round"/>
<path d="M90.0098 52.46H74.3398V60.86H90.0098V52.46Z" stroke="#443D72" stroke-width="4" stroke-linecap="round" stroke-linejoin="round"/>
<path d="M90.0098 66.87H74.3398V75.27H90.0098V66.87Z" stroke="#443D72" stroke-width="4" stroke-linecap="round" stroke-linejoin="round"/>
</g>
<defs>
<clipPath id="clip0_1777_1642">
<rect width="97.77" height="115.43" fill="white"/>
</clipPath>
</defs>
</svg>
