<svg width="22" height="22" viewBox="0 0 22 22" fill="none" xmlns="http://www.w3.org/2000/svg">
<path d="M10 20C15.5161 20 20 15.5161 20 10C20 4.48387 15.5161 0 10 0C4.48387 0 0 4.48387 0 10C0 15.5161 4.48387 20 10 20ZM2.25806 13.9839L6.32258 13.9516C6.77419 15.5806 7.53226 17.1613 8.56452 18.5806C5.80645 18.129 3.5 16.371 2.25806 13.9839ZM7.35484 7.25806H12.4194C12.7903 9.03226 12.7903 10.8548 12.4516 12.629L7.35484 12.6613C6.98387 10.871 6.98387 9.03226 7.35484 7.25806ZM9.8871 18.2097C8.87097 16.9032 8.12903 15.4677 7.67742 13.9516L12.1129 13.9194C11.6452 15.4355 10.9032 16.8871 9.8871 18.2097ZM11.1774 18.629C12.2419 17.1774 13 15.5806 13.4516 13.9032L17.7903 13.871C16.5323 16.4032 14.0806 18.2258 11.1774 18.629ZM18.7097 10C18.7097 10.9032 18.5645 11.7742 18.3226 12.5806L13.7581 12.6129C14.0806 10.8387 14.0645 9.03226 13.7258 7.25806H18.2581C18.5484 8.1129 18.7097 9.04839 18.7097 10ZM17.7097 5.96774H13.4194C12.9516 4.35484 12.2097 2.79032 11.1774 1.37097C14.0323 1.75806 16.4355 3.51613 17.7097 5.96774ZM12.0806 5.96774H7.69355C8.16129 4.48387 8.8871 3.08065 9.8871 1.79032C10.8871 3.08065 11.6129 4.48387 12.0806 5.96774ZM8.56452 1.41935C7.54839 2.82258 6.80645 4.35484 6.35484 5.96774H2.29032C3.53226 3.59677 5.82258 1.87097 8.56452 1.41935ZM6.04839 7.25806C5.70968 9.04839 5.70968 10.871 6.03226 12.6613L1.72581 12.6935C1.43548 11.8387 1.29032 10.9355 1.29032 10C1.29032 9.04839 1.45161 8.1129 1.74194 7.25806H6.04839Z" fill="white"/>
</svg>
