<svg width="2918" height="412" viewBox="0 0 2918 412" fill="none" xmlns="http://www.w3.org/2000/svg">
<path d="M2538.46 197.682C2443.41 221.019 2357.98 272.269 2270.65 313.289C2261.39 317.607 2251.68 321.976 2242.22 325.78C2166.14 356.673 2080.61 364.692 2000.47 347.421C2025.55 322.233 2038.2 288.461 2035.63 252.838C2034.19 233.407 2027.92 214.234 2016.3 198.196C1996.97 171.569 1965.26 156.765 1932.62 164.732C1893.65 174.242 1866.82 212.383 1859.93 249.908C1856.28 271.703 1859.36 294.064 1866.82 314.625C1869.39 321.77 1872.47 328.556 1876.12 335.033C1825.13 347.883 1772.49 348.86 1719.75 341.407C1602.19 324.341 1494.35 271.652 1385.47 226.468C1303.74 192.336 1216.51 162.933 1126.3 166.942C1053.1 169.256 982.777 196.345 919.088 230.477C844.759 269.698 775.209 318.892 696.613 348.192C556.795 400.521 391.841 369.576 275.874 276.381L275 277.306C345.989 354.772 447.768 400.881 552.22 410.133C605.68 414.862 660.271 409.722 711.777 394.404C778.191 374.973 841.829 340.327 902.485 308.919C959.903 279.362 1019.07 250.628 1082.96 240.296C1230.23 217.729 1376.79 271.446 1512.9 323.415C1627.17 367.211 1747.77 414.76 1872.73 400.624C1891.24 398.619 1910 395.123 1928.04 389.469C1928.19 389.52 1928.35 389.572 1928.35 389.572L1930.61 390.343C1984.02 407.666 2040.87 412.858 2096.7 409.105C2155.91 404.993 2214.31 389.161 2267.61 363.253C2284.73 354.874 2301.8 345.673 2318.4 336.472C2480.68 243.226 2599.89 175.424 2794.4 218.757C2834.13 227.702 2873.05 240.655 2910.78 256.128C2913.4 257.207 2916.38 256.025 2917.51 253.455C2917.51 253.403 2917.56 253.352 2917.56 253.301C2918.69 250.73 2917.56 247.698 2915.04 246.464C2796.25 190.28 2668.1 164.012 2538.46 197.682ZM1884.24 257.156C1890.31 237.931 1911.54 227.342 1930.46 229.038C1934.62 229.398 1938.63 230.22 1942.48 231.763C1945.21 232.893 1947.78 234.436 1950.09 235.978C1951.22 236.697 1952.3 237.468 1953.28 238.342C1965.62 250.319 1963.3 275.764 1954.36 289.54C1943.51 305.887 1935.49 309.742 1917.35 317.401C1892.01 308.148 1876.43 283.218 1884.24 257.156Z" fill="white"/>
<path d="M441.549 375.133C441.549 373.449 442.124 371.856 443.192 370.585C443.394 368.397 444.584 366.431 446.469 365.241C447.417 364.636 448.496 364.273 449.595 364.173C450.866 363.114 452.449 362.539 454.143 362.539C455.827 362.539 457.42 363.114 458.69 364.173C459.799 364.273 460.868 364.636 461.816 365.241C463.702 366.431 464.891 368.397 465.093 370.585C466.152 371.856 466.737 373.449 466.737 375.133C466.737 376.817 466.162 378.41 465.093 379.68C464.891 381.869 463.702 383.825 461.816 385.025C460.868 385.63 459.789 385.993 458.69 386.093C457.42 387.152 455.837 387.727 454.143 387.727C452.459 387.727 450.866 387.152 449.595 386.093C448.486 385.993 447.417 385.63 446.469 385.025C444.584 383.835 443.394 381.869 443.192 379.68C442.124 378.41 441.549 376.817 441.549 375.133Z" fill="#ED1C24"/>
<path d="M539.449 392.17C539.449 390.486 540.024 388.893 541.093 387.622C541.294 385.434 542.484 383.468 544.37 382.278C545.318 381.673 546.397 381.31 547.496 381.209C548.766 380.15 550.349 379.576 552.043 379.576C553.727 379.576 555.32 380.15 556.591 381.209C557.7 381.31 558.769 381.673 559.716 382.278C561.602 383.468 562.792 385.434 562.993 387.622C564.052 388.893 564.637 390.486 564.637 392.17C564.637 393.853 564.062 395.447 562.993 396.717C562.792 398.905 561.602 400.861 559.716 402.061C558.769 402.666 557.69 403.029 556.591 403.13C555.32 404.189 553.737 404.763 552.043 404.763C550.359 404.763 548.766 404.189 547.496 403.13C546.386 403.029 545.318 402.666 544.37 402.061C542.484 400.871 541.294 398.905 541.093 396.717C540.024 395.447 539.449 393.853 539.449 392.17Z" fill="#ED1C24"/>
<path d="M640.286 386.238C640.286 384.554 640.861 382.961 641.93 381.69C642.131 379.502 643.321 377.536 645.207 376.346C646.155 375.741 647.233 375.378 648.333 375.278C649.603 374.219 651.186 373.644 652.88 373.644C654.564 373.644 656.157 374.219 657.428 375.278C658.537 375.378 659.606 375.741 660.553 376.346C662.439 377.536 663.629 379.502 663.83 381.69C664.889 382.961 665.474 384.554 665.474 386.238C665.474 387.922 664.899 389.515 663.83 390.785C663.629 392.974 662.439 394.93 660.553 396.13C659.606 396.735 658.527 397.098 657.428 397.198C656.157 398.257 654.574 398.832 652.88 398.832C651.196 398.832 649.603 398.257 648.333 397.198C647.223 397.098 646.155 396.735 645.207 396.13C643.321 394.94 642.131 392.974 641.93 390.785C640.861 389.515 640.286 387.922 640.286 386.238Z" fill="#ED1C24"/>
<path d="M749.526 349.66C749.526 347.976 750.101 346.383 751.17 345.112C751.372 342.924 752.561 340.958 754.447 339.768C755.395 339.163 756.474 338.8 757.573 338.699C758.843 337.641 760.426 337.066 762.12 337.066C763.804 337.066 765.397 337.641 766.668 338.699C767.777 338.8 768.846 339.163 769.794 339.768C771.679 340.958 772.869 342.924 773.071 345.112C774.129 346.383 774.714 347.976 774.714 349.66C774.714 351.344 774.139 352.937 773.071 354.207C772.869 356.395 771.679 358.352 769.794 359.551C768.846 360.156 767.767 360.519 766.668 360.62C765.397 361.679 763.814 362.254 762.12 362.254C760.436 362.254 758.843 361.679 757.573 360.62C756.464 360.519 755.395 360.156 754.447 359.551C752.561 358.362 751.372 356.395 751.17 354.207C750.101 352.937 749.526 351.344 749.526 349.66Z" fill="#ED1C24"/>
<path d="M853.823 299.736C853.823 298.052 854.398 296.459 855.467 295.188C855.668 293 856.858 291.034 858.744 289.844C859.692 289.239 860.771 288.876 861.87 288.775C863.14 287.716 864.723 287.142 866.417 287.142C868.101 287.142 869.694 287.716 870.965 288.775C872.074 288.876 873.143 289.239 874.09 289.844C875.976 291.034 877.166 293 877.367 295.188C878.426 296.459 879.011 298.052 879.011 299.736C879.011 301.42 878.436 303.013 877.367 304.283C877.166 306.471 875.976 308.427 874.09 309.627C873.143 310.232 872.064 310.595 870.965 310.696C869.694 311.755 868.111 312.33 866.417 312.33C864.733 312.33 863.14 311.755 861.87 310.696C860.76 310.595 859.692 310.232 858.744 309.627C856.858 308.437 855.668 306.471 855.467 304.283C854.398 303.013 853.823 301.42 853.823 299.736Z" fill="#ED1C24"/>
<path d="M952.683 247.34C952.683 245.656 953.257 244.063 954.326 242.793C954.528 240.605 955.718 238.638 957.603 237.449C958.551 236.844 959.63 236.481 960.729 236.38C961.999 235.321 963.583 234.746 965.277 234.746C966.96 234.746 968.554 235.321 969.824 236.38C970.933 236.481 972.002 236.844 972.95 237.449C974.835 238.638 976.025 240.605 976.227 242.793C977.286 244.063 977.87 245.656 977.87 247.34C977.87 249.024 977.296 250.617 976.227 251.888C976.025 254.076 974.835 256.032 972.95 257.232C972.002 257.837 970.923 258.2 969.824 258.301C968.554 259.359 966.97 259.934 965.277 259.934C963.593 259.934 961.999 259.359 960.729 258.301C959.62 258.2 958.551 257.837 957.603 257.232C955.718 256.042 954.528 254.076 954.326 251.888C953.257 250.617 952.683 249.024 952.683 247.34Z" fill="#ED1C24"/>
<path d="M1048.58 211.751C1048.58 210.067 1049.15 208.473 1050.22 207.203C1050.42 205.015 1051.61 203.049 1053.5 201.859C1054.45 201.254 1055.52 200.891 1056.62 200.79C1057.89 199.731 1059.48 199.157 1061.17 199.157C1062.85 199.157 1064.45 199.731 1065.72 200.79C1066.83 200.891 1067.9 201.254 1068.84 201.859C1070.73 203.049 1071.92 205.015 1072.12 207.203C1073.18 208.473 1073.76 210.067 1073.76 211.751C1073.76 213.434 1073.19 215.028 1072.12 216.298C1071.92 218.486 1070.73 220.442 1068.84 221.642C1067.9 222.247 1066.82 222.61 1065.72 222.711C1064.45 223.77 1062.87 224.344 1061.17 224.344C1059.49 224.344 1057.89 223.77 1056.62 222.711C1055.51 222.61 1054.45 222.247 1053.5 221.642C1051.61 220.452 1050.42 218.486 1050.22 216.298C1049.15 215.028 1048.58 213.434 1048.58 211.751Z" fill="#ED1C24"/>
<path d="M1158.31 199.393C1158.31 197.709 1158.89 196.116 1159.96 194.846C1160.16 192.658 1161.35 190.691 1163.23 189.501C1164.18 188.896 1165.26 188.534 1166.36 188.433C1167.63 187.374 1169.21 186.799 1170.91 186.799C1172.59 186.799 1174.18 187.374 1175.45 188.433C1176.56 188.534 1177.63 188.896 1178.58 189.501C1180.46 190.691 1181.65 192.658 1181.86 194.846C1182.91 196.116 1183.5 197.709 1183.5 199.393C1183.5 201.077 1182.92 202.67 1181.86 203.941C1181.65 206.129 1180.46 208.085 1178.58 209.285C1177.63 209.89 1176.55 210.253 1175.45 210.354C1174.18 211.412 1172.6 211.987 1170.91 211.987C1169.22 211.987 1167.63 211.412 1166.36 210.354C1165.25 210.253 1164.18 209.89 1163.23 209.285C1161.35 208.095 1160.16 206.129 1159.96 203.941C1158.89 202.67 1158.31 201.077 1158.31 199.393Z" fill="#ED1C24"/>
<path d="M1259.15 217.188C1259.15 215.504 1259.72 213.911 1260.79 212.64C1260.99 210.452 1262.18 208.486 1264.07 207.296C1265.02 206.691 1266.1 206.328 1267.19 206.227C1268.47 205.169 1270.05 204.594 1271.74 204.594C1273.43 204.594 1275.02 205.169 1276.29 206.227C1277.4 206.328 1278.47 206.691 1279.42 207.296C1281.3 208.486 1282.49 210.452 1282.69 212.64C1283.75 213.911 1284.34 215.504 1284.34 217.188C1284.34 218.872 1283.76 220.465 1282.69 221.735C1282.49 223.923 1281.3 225.88 1279.42 227.079C1278.47 227.684 1277.39 228.047 1276.29 228.148C1275.02 229.207 1273.44 229.782 1271.74 229.782C1270.06 229.782 1268.47 229.207 1267.19 228.148C1266.09 228.047 1265.02 227.684 1264.07 227.079C1262.18 225.89 1260.99 223.923 1260.79 221.735C1259.72 220.465 1259.15 218.872 1259.15 217.188Z" fill="#ED1C24"/>
<path d="M1360.97 247.34C1360.97 245.656 1361.55 244.063 1362.62 242.793C1362.82 240.605 1364.01 238.638 1365.9 237.449C1366.84 236.844 1367.92 236.481 1369.02 236.38C1370.29 235.321 1371.87 234.746 1373.57 234.746C1375.25 234.746 1376.85 235.321 1378.12 236.38C1379.23 236.481 1380.29 236.844 1381.24 237.449C1383.13 238.638 1384.32 240.605 1384.52 242.793C1385.58 244.063 1386.16 245.656 1386.16 247.34C1386.16 249.024 1385.59 250.617 1384.52 251.888C1384.32 254.076 1383.13 256.032 1381.24 257.232C1380.29 257.837 1379.22 258.2 1378.12 258.301C1376.85 259.359 1375.26 259.934 1373.57 259.934C1371.88 259.934 1370.29 259.359 1369.02 258.301C1367.91 258.2 1366.84 257.837 1365.9 257.232C1364.01 256.042 1362.82 254.076 1362.62 251.888C1361.55 250.617 1360.97 249.024 1360.97 247.34Z" fill="#ED1C24"/>
<path d="M1470.71 289.85C1470.71 288.166 1471.28 286.573 1472.35 285.302C1472.55 283.114 1473.74 281.148 1475.63 279.958C1476.58 279.353 1477.66 278.99 1478.75 278.889C1480.02 277.831 1481.61 277.256 1483.3 277.256C1484.99 277.256 1486.58 277.831 1487.85 278.889C1488.96 278.99 1490.03 279.353 1490.98 279.958C1492.86 281.148 1494.05 283.114 1494.25 285.302C1495.31 286.573 1495.9 288.166 1495.9 289.85C1495.9 291.534 1495.32 293.127 1494.25 294.397C1494.05 296.585 1492.86 298.541 1490.98 299.741C1490.03 300.346 1488.95 300.709 1487.85 300.81C1486.58 301.869 1485 302.444 1483.3 302.444C1481.62 302.444 1480.02 301.869 1478.75 300.81C1477.65 300.709 1476.58 300.346 1475.63 299.741C1473.74 298.552 1472.55 296.585 1472.35 294.397C1471.28 293.127 1470.71 291.534 1470.71 289.85Z" fill="#ED1C24"/>
<path d="M1563.14 325.439C1563.14 323.755 1563.72 322.162 1564.79 320.892C1564.99 318.704 1566.18 316.737 1568.06 315.548C1569.01 314.943 1570.09 314.58 1571.19 314.479C1572.46 313.42 1574.04 312.845 1575.74 312.845C1577.42 312.845 1579.01 313.42 1580.28 314.479C1581.39 314.58 1582.46 314.943 1583.41 315.548C1585.3 316.737 1586.49 318.704 1586.69 320.892C1587.75 322.162 1588.33 323.755 1588.33 325.439C1588.33 327.123 1587.76 328.716 1586.69 329.987C1586.49 332.175 1585.3 334.131 1583.41 335.331C1582.46 335.936 1581.38 336.299 1580.28 336.4C1579.01 337.458 1577.43 338.033 1575.74 338.033C1574.05 338.033 1572.46 337.458 1571.19 336.4C1570.08 336.299 1569.01 335.936 1568.06 335.331C1566.18 334.141 1564.99 332.175 1564.79 329.987C1563.72 328.716 1563.14 327.123 1563.14 325.439Z" fill="#ED1C24"/>
<path d="M1672.88 357.074C1672.88 355.39 1673.45 353.797 1674.52 352.527C1674.72 350.339 1675.91 348.373 1677.8 347.183C1678.74 346.578 1679.82 346.215 1680.92 346.114C1682.19 345.055 1683.78 344.48 1685.47 344.48C1687.15 344.48 1688.75 345.055 1690.02 346.114C1691.13 346.215 1692.2 346.578 1693.14 347.183C1695.03 348.373 1696.22 350.339 1696.42 352.527C1697.48 353.797 1698.06 355.39 1698.06 357.074C1698.06 358.758 1697.49 360.351 1696.42 361.622C1696.22 363.81 1695.03 365.766 1693.14 366.966C1692.2 367.571 1691.12 367.934 1690.02 368.035C1688.75 369.094 1687.16 369.668 1685.47 369.668C1683.79 369.668 1682.19 369.094 1680.92 368.035C1679.81 367.934 1678.74 367.571 1677.8 366.966C1675.91 365.776 1674.72 363.81 1674.52 361.622C1673.45 360.351 1672.88 358.758 1672.88 357.074Z" fill="#ED1C24"/>
<path d="M1774.7 371.409C1774.7 369.725 1775.28 368.132 1776.35 366.862C1776.55 364.674 1777.74 362.707 1779.62 361.517C1780.57 360.912 1781.65 360.549 1782.75 360.449C1784.02 359.39 1785.6 358.815 1787.3 358.815C1788.98 358.815 1790.57 359.39 1791.84 360.449C1792.95 360.549 1794.02 360.912 1794.97 361.517C1796.85 362.707 1798.04 364.674 1798.25 366.862C1799.31 368.132 1799.89 369.725 1799.89 371.409C1799.89 373.093 1799.32 374.686 1798.25 375.957C1798.04 378.145 1796.85 380.101 1794.97 381.301C1794.02 381.906 1792.94 382.269 1791.84 382.37C1790.57 383.428 1788.99 384.003 1787.3 384.003C1785.61 384.003 1784.02 383.428 1782.75 382.37C1781.64 382.269 1780.57 381.906 1779.62 381.301C1777.74 380.111 1776.55 378.145 1776.35 375.957C1775.28 374.686 1774.7 373.093 1774.7 371.409Z" fill="#ED1C24"/>
<path d="M1908.66 199.393C1908.66 197.709 1909.23 196.116 1910.3 194.846C1910.5 192.658 1911.69 190.691 1913.58 189.501C1914.52 188.896 1915.6 188.534 1916.7 188.433C1917.97 187.374 1919.56 186.799 1921.25 186.799C1922.93 186.799 1924.53 187.374 1925.8 188.433C1926.91 188.534 1927.98 188.896 1928.92 189.501C1930.81 190.691 1932 192.658 1932.2 194.846C1933.26 196.116 1933.84 197.709 1933.84 199.393C1933.84 201.077 1933.27 202.67 1932.2 203.941C1932 206.129 1930.81 208.085 1928.92 209.285C1927.98 209.89 1926.9 210.253 1925.8 210.354C1924.53 211.412 1922.94 211.987 1921.25 211.987C1919.57 211.987 1917.97 211.412 1916.7 210.354C1915.59 210.253 1914.52 209.89 1913.58 209.285C1911.69 208.095 1910.5 206.129 1910.3 203.941C1909.23 202.67 1908.66 201.077 1908.66 199.393Z" fill="#ED1C24"/>
<path d="M1980.82 371.409C1980.82 369.725 1981.4 368.132 1982.47 366.862C1982.67 364.674 1983.86 362.707 1985.74 361.517C1986.69 360.912 1987.77 360.549 1988.87 360.449C1990.14 359.39 1991.72 358.815 1993.42 358.815C1995.1 358.815 1996.7 359.39 1997.97 360.449C1999.07 360.549 2000.14 360.912 2001.09 361.517C2002.98 362.707 2004.17 364.674 2004.37 366.862C2005.43 368.132 2006.01 369.725 2006.01 371.409C2006.01 373.093 2005.44 374.686 2004.37 375.957C2004.17 378.145 2002.98 380.101 2001.09 381.301C2000.14 381.906 1999.06 382.269 1997.97 382.37C1996.7 383.428 1995.11 384.003 1993.42 384.003C1991.73 384.003 1990.14 383.428 1988.87 382.37C1987.76 382.269 1986.69 381.906 1985.74 381.301C1983.86 380.111 1982.67 378.145 1982.47 375.957C1981.4 374.686 1980.82 373.093 1980.82 371.409Z" fill="#ED1C24"/>
<path d="M2083.64 384.755C2083.64 383.071 2084.21 381.478 2085.28 380.208C2085.48 378.019 2086.67 376.053 2088.56 374.863C2089.51 374.258 2090.59 373.895 2091.69 373.795C2092.96 372.736 2094.54 372.161 2096.23 372.161C2097.92 372.161 2099.51 372.736 2100.78 373.795C2101.89 373.895 2102.96 374.258 2103.91 374.863C2105.79 376.053 2106.98 378.019 2107.18 380.208C2108.24 381.478 2108.83 383.071 2108.83 384.755C2108.83 386.439 2108.25 388.032 2107.18 389.303C2106.98 391.491 2105.79 393.447 2103.91 394.647C2102.96 395.252 2101.88 395.615 2100.78 395.715C2099.51 396.774 2097.93 397.349 2096.23 397.349C2094.55 397.349 2092.96 396.774 2091.69 395.715C2090.58 395.615 2089.51 395.252 2088.56 394.647C2086.67 393.457 2085.48 391.491 2085.28 389.303C2084.21 388.032 2083.64 386.439 2083.64 384.755Z" fill="#ED1C24"/>
<path d="M2186.95 365.477C2186.95 363.794 2187.52 362.2 2188.59 360.93C2188.79 358.742 2189.98 356.776 2191.87 355.586C2192.82 354.981 2193.89 354.618 2194.99 354.517C2196.26 353.458 2197.85 352.884 2199.54 352.884C2201.23 352.884 2202.82 353.458 2204.09 354.517C2205.2 354.618 2206.27 354.981 2207.21 355.586C2209.1 356.776 2210.29 358.742 2210.49 360.93C2211.55 362.2 2212.14 363.794 2212.14 365.477C2212.14 367.161 2211.56 368.754 2210.49 370.025C2210.29 372.213 2209.1 374.169 2207.21 375.369C2206.27 375.974 2205.19 376.337 2204.09 376.438C2202.82 377.497 2201.24 378.071 2199.54 378.071C2197.86 378.071 2196.26 377.497 2194.99 376.438C2193.88 376.337 2192.82 375.974 2191.87 375.369C2189.98 374.179 2188.79 372.213 2188.59 370.025C2187.52 368.754 2186.95 367.161 2186.95 365.477Z" fill="#ED1C24"/>
<path d="M2278.39 327.416C2278.39 325.733 2278.97 324.139 2280.04 322.869C2280.24 320.681 2281.43 318.715 2283.31 317.525C2284.26 316.92 2285.34 316.557 2286.44 316.456C2287.71 315.397 2289.29 314.823 2290.99 314.823C2292.67 314.823 2294.26 315.397 2295.53 316.456C2296.64 316.557 2297.71 316.92 2298.66 317.525C2300.54 318.715 2301.73 320.681 2301.94 322.869C2302.99 324.139 2303.58 325.733 2303.58 327.416C2303.58 329.1 2303 330.693 2301.94 331.964C2301.73 334.152 2300.54 336.108 2298.66 337.308C2297.71 337.913 2296.63 338.276 2295.53 338.377C2294.26 339.436 2292.68 340.01 2290.99 340.01C2289.3 340.01 2287.71 339.436 2286.44 338.377C2285.33 338.276 2284.26 337.913 2283.31 337.308C2281.43 336.118 2280.24 334.152 2280.04 331.964C2278.97 330.693 2278.39 329.1 2278.39 327.416Z" fill="#ED1C24"/>
<path d="M2366.38 281.941C2366.38 280.257 2366.95 278.664 2368.02 277.393C2368.22 275.205 2369.41 273.239 2371.3 272.049C2372.25 271.444 2373.32 271.081 2374.42 270.981C2375.69 269.922 2377.28 269.347 2378.97 269.347C2380.65 269.347 2382.25 269.922 2383.52 270.981C2384.63 271.081 2385.7 271.444 2386.64 272.049C2388.53 273.239 2389.72 275.205 2389.92 277.393C2390.98 278.664 2391.56 280.257 2391.56 281.941C2391.56 283.625 2390.99 285.218 2389.92 286.488C2389.72 288.677 2388.53 290.633 2386.64 291.833C2385.7 292.438 2384.62 292.801 2383.52 292.901C2382.25 293.96 2380.66 294.535 2378.97 294.535C2377.29 294.535 2375.69 293.96 2374.42 292.901C2373.31 292.801 2372.25 292.438 2371.3 291.833C2369.41 290.643 2368.22 288.677 2368.02 286.488C2366.95 285.218 2366.38 283.625 2366.38 281.941Z" fill="#ED1C24"/>
<path d="M2441.02 244.374C2441.02 242.69 2441.59 241.097 2442.66 239.827C2442.86 237.639 2444.05 235.672 2445.94 234.483C2446.88 233.878 2447.96 233.515 2449.06 233.414C2450.33 232.355 2451.92 231.78 2453.61 231.78C2455.29 231.78 2456.89 232.355 2458.16 233.414C2459.27 233.515 2460.34 233.878 2461.28 234.483C2463.17 235.672 2464.36 237.639 2464.56 239.827C2465.62 241.097 2466.2 242.69 2466.2 244.374C2466.2 246.058 2465.63 247.651 2464.56 248.922C2464.36 251.11 2463.17 253.066 2461.28 254.266C2460.34 254.871 2459.26 255.234 2458.16 255.335C2456.89 256.393 2455.3 256.968 2453.61 256.968C2451.93 256.968 2450.33 256.393 2449.06 255.335C2447.95 255.234 2446.88 254.871 2445.94 254.266C2444.05 253.076 2442.86 251.11 2442.66 248.922C2441.59 247.651 2441.02 246.058 2441.02 244.374Z" fill="#ED1C24"/>
<path d="M2561.62 204.594C2561.62 203.272 2562.08 202.022 2562.92 201.024C2563.07 199.307 2564.01 197.763 2565.49 196.829C2566.23 196.354 2567.08 196.069 2567.94 195.99C2568.94 195.159 2570.18 194.708 2571.51 194.708C2572.83 194.708 2574.08 195.159 2575.08 195.99C2575.95 196.069 2576.79 196.354 2577.53 196.829C2579.01 197.763 2579.95 199.307 2580.11 201.024C2580.94 202.022 2581.4 203.272 2581.4 204.594C2581.4 205.916 2580.95 207.166 2580.11 208.164C2579.95 209.881 2579.01 211.417 2577.53 212.359C2576.79 212.834 2575.94 213.119 2575.08 213.198C2574.08 214.029 2572.84 214.48 2571.51 214.48C2570.19 214.48 2568.94 214.029 2567.94 213.198C2567.07 213.119 2566.23 212.834 2565.49 212.359C2564.01 211.425 2563.07 209.881 2562.92 208.164C2562.08 207.166 2561.62 205.916 2561.62 204.594Z" fill="#ED1C24"/>
<path d="M2666.42 193.719C2666.42 192.464 2666.84 191.276 2667.64 190.328C2667.79 188.696 2668.68 187.23 2670.09 186.343C2670.79 185.892 2671.6 185.621 2672.42 185.546C2673.36 184.756 2674.54 184.328 2675.81 184.328C2677.06 184.328 2678.25 184.756 2679.2 185.546C2680.03 185.621 2680.82 185.892 2681.53 186.343C2682.94 187.23 2683.82 188.696 2683.97 190.328C2684.76 191.276 2685.2 192.464 2685.2 193.719C2685.2 194.975 2684.77 196.163 2683.97 197.111C2683.82 198.742 2682.94 200.201 2681.53 201.096C2680.82 201.547 2680.02 201.818 2679.2 201.893C2678.25 202.682 2677.07 203.111 2675.81 203.111C2674.55 203.111 2673.36 202.682 2672.42 201.893C2671.59 201.818 2670.79 201.547 2670.09 201.096C2668.68 200.209 2667.79 198.742 2667.64 197.111C2666.84 196.163 2666.42 194.975 2666.42 193.719Z" fill="#ED1C24"/>
<path d="M2763.79 204.594C2763.79 203.536 2764.15 202.536 2764.83 201.738C2764.95 200.364 2765.7 199.129 2766.88 198.382C2767.48 198.002 2768.16 197.774 2768.85 197.711C2769.64 197.046 2770.64 196.685 2771.7 196.685C2772.76 196.685 2773.76 197.046 2774.56 197.711C2775.25 197.774 2775.93 198.002 2776.52 198.382C2777.7 199.129 2778.45 200.364 2778.58 201.738C2779.24 202.536 2779.61 203.536 2779.61 204.594C2779.61 205.651 2779.25 206.652 2778.58 207.45C2778.45 208.824 2777.7 210.052 2776.52 210.806C2775.93 211.186 2775.25 211.414 2774.56 211.477C2773.76 212.142 2772.77 212.503 2771.7 212.503C2770.64 212.503 2769.64 212.142 2768.85 211.477C2768.15 211.414 2767.48 211.186 2766.88 210.806C2765.7 210.059 2764.95 208.824 2764.83 207.45C2764.15 206.652 2763.79 205.651 2763.79 204.594Z" fill="#ED1C24"/>
<path d="M320.202 78.3775C320.202 78.3775 74.4753 0.219793 73.8 0.0509855C65.4159 -1.41201 42.1768 28.5231 19.0502 101.054C-4.92039 176.398 -2.38829 213.423 5.71445 215.674L251.61 293.832C254.986 294.788 261.007 290.456 268.604 279.708L277.888 264.684C286.778 248.535 296.851 225.127 307.092 192.998C331.062 117.766 328.305 80.6846 320.202 78.3775ZM209.24 168.802C208.283 179.212 202.6 188.609 193.597 194.236C189.039 197.105 183.975 198.85 178.686 199.3C172.665 204.364 165.068 207.121 157.022 207.121C149.482 207.121 142.336 204.702 136.54 200.256C132.432 217.587 130.294 230.81 129.619 240.714L14.2111 204.083C12.6918 195.136 12.9169 165.257 32.0484 105.162C51.011 45.5164 67.8355 20.9831 74.5878 14.5121L189.939 51.1996C185.269 57.8393 174.634 82.035 171.371 90.194C174.015 91.4319 176.491 93.0075 178.742 94.8644C184.031 95.3708 189.152 97.0588 193.653 99.9286C202.656 105.612 208.339 114.952 209.296 125.362C214.36 131.383 217.117 138.979 217.117 147.026C217.061 155.185 214.304 162.781 209.24 168.802Z" fill="white"/>
<path d="M135.358 199.356C130.069 198.85 125.005 197.162 120.447 194.292C111.444 188.609 105.761 179.268 104.804 168.858C99.7399 162.837 96.9828 155.241 96.9828 147.195C96.9828 139.148 99.7399 131.552 104.804 125.531C105.761 115.121 111.444 105.724 120.447 100.097C125.005 97.2277 130.069 95.4834 135.358 95.0332C141.379 89.969 148.975 87.2118 157.022 87.2118C162.086 87.2118 166.925 88.2809 171.314 90.3629C174.578 82.2601 185.213 58.0082 189.883 51.3684L74.5314 14.681C67.7791 21.0956 50.9547 45.629 31.992 105.33C12.8605 165.426 12.6917 195.305 14.1547 204.251L129.563 240.883C130.238 230.979 132.376 217.756 136.484 200.425C136.09 199.975 135.752 199.694 135.358 199.356Z" fill="#010035"/>
<path d="M96.9824 147.138C96.9824 139.092 99.7396 131.496 104.804 125.475C105.76 115.065 111.444 105.668 120.447 100.041C125.004 97.1714 130.069 95.4271 135.358 94.9769C141.379 89.9127 148.975 87.1555 157.022 87.1555C165.068 87.1555 172.664 89.9127 178.685 94.9769C183.974 95.4833 189.095 97.1714 193.596 100.041C202.599 105.724 208.283 115.065 209.239 125.475C214.303 131.496 217.061 139.092 217.061 147.138C217.061 155.185 214.303 162.781 209.239 168.802C208.283 179.212 202.599 188.609 193.596 194.236C189.039 197.105 183.974 198.85 178.685 199.3C172.664 204.364 165.068 207.121 157.022 207.121C148.975 207.121 141.379 204.364 135.358 199.3C130.069 198.793 125.004 197.105 120.447 194.236C111.444 188.552 105.76 179.212 104.804 168.802C99.7396 162.781 96.9824 155.185 96.9824 147.138Z" fill="#ED1C24"/>
</svg>
