<svg width="2795" height="296" viewBox="0 0 2795 296" fill="none" xmlns="http://www.w3.org/2000/svg">
<path d="M2415.46 81.6819C2320.41 105.019 2234.98 156.269 2147.65 197.289C2138.39 201.607 2128.68 205.976 2119.22 209.78C2043.14 240.673 1957.61 248.692 1877.47 231.421C1902.55 206.233 1915.2 172.461 1912.63 136.838C1911.19 117.407 1904.92 98.2339 1893.3 82.1959C1873.97 55.5688 1842.26 40.7645 1809.62 48.7321C1770.65 58.2418 1743.82 96.3833 1736.93 133.908C1733.28 155.703 1736.36 178.064 1743.82 198.625C1746.39 205.77 1749.47 212.556 1753.12 219.033C1702.13 231.883 1649.49 232.86 1596.75 225.407C1479.19 208.341 1371.35 155.652 1262.47 110.468C1180.74 76.3359 1093.51 46.933 1003.3 50.9425C930.098 53.2556 859.777 80.3454 796.088 114.477C721.759 153.698 652.209 202.892 573.613 232.192C433.795 284.521 268.841 253.576 152.874 160.381L152 161.306C222.989 238.772 324.768 284.881 429.22 294.133C482.68 298.862 537.271 293.722 588.777 278.404C655.191 258.973 718.829 224.327 779.485 192.919C836.903 163.362 896.068 134.628 959.963 124.296C1107.23 101.729 1253.79 155.446 1389.9 207.415C1504.17 251.211 1624.77 298.76 1749.73 284.624C1768.24 282.619 1787 279.123 1805.04 273.469C1805.19 273.52 1805.35 273.572 1805.35 273.572L1807.61 274.343C1861.02 291.666 1917.87 296.858 1973.7 293.105C2032.91 288.993 2091.31 273.161 2144.61 247.253C2161.73 238.874 2178.8 229.673 2195.4 220.472C2357.68 127.226 2476.89 59.4241 2671.4 102.757C2711.13 111.702 2750.05 124.655 2787.78 140.128C2790.4 141.207 2793.38 140.025 2794.51 137.455C2794.51 137.403 2794.56 137.352 2794.56 137.301C2795.69 134.73 2794.56 131.698 2792.04 130.464C2673.25 74.2797 2545.1 48.0124 2415.46 81.6819ZM1761.24 141.156C1767.31 121.931 1788.54 111.342 1807.46 113.038C1811.62 113.398 1815.63 114.22 1819.48 115.763C1822.21 116.893 1824.78 118.436 1827.09 119.978C1828.22 120.697 1829.3 121.468 1830.28 122.342C1842.62 134.319 1840.3 159.764 1831.36 173.54C1820.51 189.887 1812.49 193.742 1794.35 201.401C1769.01 192.148 1753.43 167.218 1761.24 141.156Z" fill="white"/>
<path d="M318.549 259.133C318.549 257.449 319.124 255.856 320.192 254.585C320.394 252.397 321.584 250.431 323.469 249.241C324.417 248.636 325.496 248.273 326.595 248.173C327.866 247.114 329.449 246.539 331.143 246.539C332.827 246.539 334.42 247.114 335.69 248.173C336.799 248.273 337.868 248.636 338.816 249.241C340.702 250.431 341.891 252.397 342.093 254.585C343.152 255.856 343.737 257.449 343.737 259.133C343.737 260.817 343.162 262.41 342.093 263.68C341.891 265.869 340.702 267.825 338.816 269.025C337.868 269.63 336.789 269.993 335.69 270.093C334.42 271.152 332.837 271.727 331.143 271.727C329.459 271.727 327.866 271.152 326.595 270.093C325.486 269.993 324.417 269.63 323.469 269.025C321.584 267.835 320.394 265.869 320.192 263.68C319.124 262.41 318.549 260.817 318.549 259.133Z" fill="#ED1C24"/>
<path d="M416.449 276.17C416.449 274.486 417.024 272.893 418.093 271.622C418.294 269.434 419.484 267.468 421.37 266.278C422.318 265.673 423.397 265.31 424.496 265.209C425.766 264.15 427.349 263.576 429.043 263.576C430.727 263.576 432.32 264.15 433.591 265.209C434.7 265.31 435.769 265.673 436.716 266.278C438.602 267.468 439.792 269.434 439.993 271.622C441.052 272.893 441.637 274.486 441.637 276.17C441.637 277.853 441.062 279.447 439.993 280.717C439.792 282.905 438.602 284.861 436.716 286.061C435.769 286.666 434.69 287.029 433.591 287.13C432.32 288.189 430.737 288.763 429.043 288.763C427.359 288.763 425.766 288.189 424.496 287.13C423.386 287.029 422.318 286.666 421.37 286.061C419.484 284.871 418.294 282.905 418.093 280.717C417.024 279.447 416.449 277.853 416.449 276.17Z" fill="#ED1C24"/>
<path d="M517.286 270.238C517.286 268.554 517.861 266.961 518.93 265.69C519.131 263.502 520.321 261.536 522.207 260.346C523.155 259.741 524.233 259.378 525.333 259.278C526.603 258.219 528.186 257.644 529.88 257.644C531.564 257.644 533.157 258.219 534.428 259.278C535.537 259.378 536.606 259.741 537.553 260.346C539.439 261.536 540.629 263.502 540.83 265.69C541.889 266.961 542.474 268.554 542.474 270.238C542.474 271.922 541.899 273.515 540.83 274.785C540.629 276.974 539.439 278.93 537.553 280.13C536.606 280.735 535.527 281.098 534.428 281.198C533.157 282.257 531.574 282.832 529.88 282.832C528.196 282.832 526.603 282.257 525.333 281.198C524.223 281.098 523.155 280.735 522.207 280.13C520.321 278.94 519.131 276.974 518.93 274.785C517.861 273.515 517.286 271.922 517.286 270.238Z" fill="#ED1C24"/>
<path d="M626.526 233.66C626.526 231.976 627.101 230.383 628.17 229.112C628.372 226.924 629.561 224.958 631.447 223.768C632.395 223.163 633.474 222.8 634.573 222.699C635.843 221.641 637.426 221.066 639.12 221.066C640.804 221.066 642.397 221.641 643.668 222.699C644.777 222.8 645.846 223.163 646.794 223.768C648.679 224.958 649.869 226.924 650.071 229.112C651.129 230.383 651.714 231.976 651.714 233.66C651.714 235.344 651.139 236.937 650.071 238.207C649.869 240.395 648.679 242.352 646.794 243.551C645.846 244.156 644.767 244.519 643.668 244.62C642.397 245.679 640.814 246.254 639.12 246.254C637.436 246.254 635.843 245.679 634.573 244.62C633.464 244.519 632.395 244.156 631.447 243.551C629.561 242.362 628.372 240.395 628.17 238.207C627.101 236.937 626.526 235.344 626.526 233.66Z" fill="#ED1C24"/>
<path d="M730.823 183.736C730.823 182.052 731.398 180.459 732.467 179.188C732.668 177 733.858 175.034 735.744 173.844C736.692 173.239 737.771 172.876 738.87 172.775C740.14 171.716 741.723 171.142 743.417 171.142C745.101 171.142 746.694 171.716 747.965 172.775C749.074 172.876 750.143 173.239 751.09 173.844C752.976 175.034 754.166 177 754.367 179.188C755.426 180.459 756.011 182.052 756.011 183.736C756.011 185.42 755.436 187.013 754.367 188.283C754.166 190.471 752.976 192.427 751.09 193.627C750.143 194.232 749.064 194.595 747.965 194.696C746.694 195.755 745.111 196.33 743.417 196.33C741.733 196.33 740.14 195.755 738.87 194.696C737.76 194.595 736.692 194.232 735.744 193.627C733.858 192.437 732.668 190.471 732.467 188.283C731.398 187.013 730.823 185.42 730.823 183.736Z" fill="#ED1C24"/>
<path d="M829.683 131.34C829.683 129.656 830.257 128.063 831.326 126.793C831.528 124.605 832.718 122.638 834.603 121.449C835.551 120.844 836.63 120.481 837.729 120.38C838.999 119.321 840.583 118.746 842.277 118.746C843.96 118.746 845.554 119.321 846.824 120.38C847.933 120.481 849.002 120.844 849.95 121.449C851.835 122.638 853.025 124.605 853.227 126.793C854.286 128.063 854.87 129.656 854.87 131.34C854.87 133.024 854.296 134.617 853.227 135.888C853.025 138.076 851.835 140.032 849.95 141.232C849.002 141.837 847.923 142.2 846.824 142.301C845.554 143.359 843.97 143.934 842.277 143.934C840.593 143.934 838.999 143.359 837.729 142.301C836.62 142.2 835.551 141.837 834.603 141.232C832.718 140.042 831.528 138.076 831.326 135.888C830.257 134.617 829.683 133.024 829.683 131.34Z" fill="#ED1C24"/>
<path d="M925.577 95.7505C925.577 94.0666 926.152 92.4735 927.221 91.203C927.422 89.0149 928.612 87.0487 930.498 85.8589C931.446 85.2539 932.524 84.8909 933.624 84.7901C934.894 83.7314 936.477 83.1566 938.171 83.1566C939.855 83.1566 941.448 83.7314 942.719 84.7901C943.828 84.8909 944.897 85.2539 945.844 85.8589C947.73 87.0487 948.92 89.0149 949.121 91.203C950.18 92.4735 950.765 94.0666 950.765 95.7505C950.765 97.4344 950.19 99.0276 949.121 100.298C948.92 102.486 947.73 104.442 945.844 105.642C944.897 106.247 943.818 106.61 942.719 106.711C941.448 107.77 939.865 108.344 938.171 108.344C936.487 108.344 934.894 107.77 933.624 106.711C932.514 106.61 931.446 106.247 930.498 105.642C928.612 104.452 927.422 102.486 927.221 100.298C926.152 99.0276 925.577 97.4344 925.577 95.7505Z" fill="#ED1C24"/>
<path d="M1035.31 83.3931C1035.31 81.7092 1035.89 80.1161 1036.96 78.8456C1037.16 76.6575 1038.35 74.6913 1040.23 73.5015C1041.18 72.8965 1042.26 72.5335 1043.36 72.4327C1044.63 71.3739 1046.21 70.7992 1047.91 70.7992C1049.59 70.7992 1051.18 71.3739 1052.45 72.4327C1053.56 72.5335 1054.63 72.8965 1055.58 73.5015C1057.46 74.6913 1058.65 76.6575 1058.86 78.8456C1059.91 80.1161 1060.5 81.7092 1060.5 83.3931C1060.5 85.077 1059.92 86.6701 1058.86 87.9406C1058.65 90.1287 1057.46 92.0848 1055.58 93.2847C1054.63 93.8897 1053.55 94.2527 1052.45 94.3535C1051.18 95.4123 1049.6 95.987 1047.91 95.987C1046.22 95.987 1044.63 95.4123 1043.36 94.3535C1042.25 94.2527 1041.18 93.8897 1040.23 93.2847C1038.35 92.0949 1037.16 90.1287 1036.96 87.9406C1035.89 86.6701 1035.31 85.077 1035.31 83.3931Z" fill="#ED1C24"/>
<path d="M1136.15 101.188C1136.15 99.5039 1136.72 97.9108 1137.79 96.6403C1137.99 94.4523 1139.18 92.486 1141.07 91.2962C1142.02 90.6912 1143.1 90.3282 1144.19 90.2274C1145.47 89.1687 1147.05 88.5939 1148.74 88.5939C1150.43 88.5939 1152.02 89.1687 1153.29 90.2274C1154.4 90.3282 1155.47 90.6912 1156.42 91.2962C1158.3 92.486 1159.49 94.4523 1159.69 96.6403C1160.75 97.9108 1161.34 99.5039 1161.34 101.188C1161.34 102.872 1160.76 104.465 1159.69 105.735C1159.49 107.923 1158.3 109.88 1156.42 111.079C1155.47 111.684 1154.39 112.047 1153.29 112.148C1152.02 113.207 1150.44 113.782 1148.74 113.782C1147.06 113.782 1145.47 113.207 1144.19 112.148C1143.09 112.047 1142.02 111.684 1141.07 111.079C1139.18 109.89 1137.99 107.923 1137.79 105.735C1136.72 104.465 1136.15 102.872 1136.15 101.188Z" fill="#ED1C24"/>
<path d="M1237.97 131.34C1237.97 129.656 1238.55 128.063 1239.62 126.793C1239.82 124.605 1241.01 122.638 1242.9 121.449C1243.84 120.844 1244.92 120.481 1246.02 120.38C1247.29 119.321 1248.87 118.746 1250.57 118.746C1252.25 118.746 1253.85 119.321 1255.12 120.38C1256.23 120.481 1257.29 120.844 1258.24 121.449C1260.13 122.638 1261.32 124.605 1261.52 126.793C1262.58 128.063 1263.16 129.656 1263.16 131.34C1263.16 133.024 1262.59 134.617 1261.52 135.888C1261.32 138.076 1260.13 140.032 1258.24 141.232C1257.29 141.837 1256.22 142.2 1255.12 142.301C1253.85 143.359 1252.26 143.934 1250.57 143.934C1248.88 143.934 1247.29 143.359 1246.02 142.301C1244.91 142.2 1243.84 141.837 1242.9 141.232C1241.01 140.042 1239.82 138.076 1239.62 135.888C1238.55 134.617 1237.97 133.024 1237.97 131.34Z" fill="#ED1C24"/>
<path d="M1347.71 173.85C1347.71 172.166 1348.28 170.573 1349.35 169.302C1349.55 167.114 1350.74 165.148 1352.63 163.958C1353.58 163.353 1354.66 162.99 1355.75 162.889C1357.02 161.831 1358.61 161.256 1360.3 161.256C1361.99 161.256 1363.58 161.831 1364.85 162.889C1365.96 162.99 1367.03 163.353 1367.98 163.958C1369.86 165.148 1371.05 167.114 1371.25 169.302C1372.31 170.573 1372.9 172.166 1372.9 173.85C1372.9 175.534 1372.32 177.127 1371.25 178.397C1371.05 180.585 1369.86 182.541 1367.98 183.741C1367.03 184.346 1365.95 184.709 1364.85 184.81C1363.58 185.869 1362 186.444 1360.3 186.444C1358.62 186.444 1357.02 185.869 1355.75 184.81C1354.65 184.709 1353.58 184.346 1352.63 183.741C1350.74 182.552 1349.55 180.585 1349.35 178.397C1348.28 177.127 1347.71 175.534 1347.71 173.85Z" fill="#ED1C24"/>
<path d="M1440.14 209.439C1440.14 207.755 1440.72 206.162 1441.79 204.892C1441.99 202.704 1443.18 200.737 1445.06 199.548C1446.01 198.943 1447.09 198.58 1448.19 198.479C1449.46 197.42 1451.04 196.845 1452.74 196.845C1454.42 196.845 1456.01 197.42 1457.28 198.479C1458.39 198.58 1459.46 198.943 1460.41 199.548C1462.3 200.737 1463.49 202.704 1463.69 204.892C1464.75 206.162 1465.33 207.755 1465.33 209.439C1465.33 211.123 1464.76 212.716 1463.69 213.987C1463.49 216.175 1462.3 218.131 1460.41 219.331C1459.46 219.936 1458.38 220.299 1457.28 220.4C1456.01 221.458 1454.43 222.033 1452.74 222.033C1451.05 222.033 1449.46 221.458 1448.19 220.4C1447.08 220.299 1446.01 219.936 1445.06 219.331C1443.18 218.141 1441.99 216.175 1441.79 213.987C1440.72 212.716 1440.14 211.123 1440.14 209.439Z" fill="#ED1C24"/>
<path d="M1549.88 241.074C1549.88 239.39 1550.45 237.797 1551.52 236.527C1551.72 234.339 1552.91 232.373 1554.8 231.183C1555.74 230.578 1556.82 230.215 1557.92 230.114C1559.19 229.055 1560.78 228.48 1562.47 228.48C1564.15 228.48 1565.75 229.055 1567.02 230.114C1568.13 230.215 1569.2 230.578 1570.14 231.183C1572.03 232.373 1573.22 234.339 1573.42 236.527C1574.48 237.797 1575.06 239.39 1575.06 241.074C1575.06 242.758 1574.49 244.351 1573.42 245.622C1573.22 247.81 1572.03 249.766 1570.14 250.966C1569.2 251.571 1568.12 251.934 1567.02 252.035C1565.75 253.094 1564.16 253.668 1562.47 253.668C1560.79 253.668 1559.19 253.094 1557.92 252.035C1556.81 251.934 1555.74 251.571 1554.8 250.966C1552.91 249.776 1551.72 247.81 1551.52 245.622C1550.45 244.351 1549.88 242.758 1549.88 241.074Z" fill="#ED1C24"/>
<path d="M1651.7 255.409C1651.7 253.725 1652.28 252.132 1653.35 250.862C1653.55 248.674 1654.74 246.707 1656.62 245.517C1657.57 244.912 1658.65 244.549 1659.75 244.449C1661.02 243.39 1662.6 242.815 1664.3 242.815C1665.98 242.815 1667.57 243.39 1668.84 244.449C1669.95 244.549 1671.02 244.912 1671.97 245.517C1673.85 246.707 1675.04 248.674 1675.25 250.862C1676.31 252.132 1676.89 253.725 1676.89 255.409C1676.89 257.093 1676.32 258.686 1675.25 259.957C1675.04 262.145 1673.85 264.101 1671.97 265.301C1671.02 265.906 1669.94 266.269 1668.84 266.37C1667.57 267.428 1665.99 268.003 1664.3 268.003C1662.61 268.003 1661.02 267.428 1659.75 266.37C1658.64 266.269 1657.57 265.906 1656.62 265.301C1654.74 264.111 1653.55 262.145 1653.35 259.957C1652.28 258.686 1651.7 257.093 1651.7 255.409Z" fill="#ED1C24"/>
<path d="M1785.66 83.3931C1785.66 81.7092 1786.23 80.1161 1787.3 78.8456C1787.5 76.6575 1788.69 74.6913 1790.58 73.5015C1791.52 72.8965 1792.6 72.5335 1793.7 72.4327C1794.97 71.3739 1796.56 70.7992 1798.25 70.7992C1799.93 70.7992 1801.53 71.3739 1802.8 72.4327C1803.91 72.5335 1804.98 72.8965 1805.92 73.5015C1807.81 74.6913 1809 76.6575 1809.2 78.8456C1810.26 80.1161 1810.84 81.7092 1810.84 83.3931C1810.84 85.077 1810.27 86.6701 1809.2 87.9406C1809 90.1287 1807.81 92.0848 1805.92 93.2847C1804.98 93.8897 1803.9 94.2527 1802.8 94.3535C1801.53 95.4123 1799.94 95.987 1798.25 95.987C1796.57 95.987 1794.97 95.4123 1793.7 94.3535C1792.59 94.2527 1791.52 93.8897 1790.58 93.2847C1788.69 92.0949 1787.5 90.1287 1787.3 87.9406C1786.23 86.6701 1785.66 85.077 1785.66 83.3931Z" fill="#ED1C24"/>
<path d="M1857.82 255.409C1857.82 253.725 1858.4 252.132 1859.47 250.862C1859.67 248.674 1860.86 246.707 1862.74 245.517C1863.69 244.912 1864.77 244.549 1865.87 244.449C1867.14 243.39 1868.72 242.815 1870.42 242.815C1872.1 242.815 1873.7 243.39 1874.97 244.449C1876.07 244.549 1877.14 244.912 1878.09 245.517C1879.98 246.707 1881.17 248.674 1881.37 250.862C1882.43 252.132 1883.01 253.725 1883.01 255.409C1883.01 257.093 1882.44 258.686 1881.37 259.957C1881.17 262.145 1879.98 264.101 1878.09 265.301C1877.14 265.906 1876.06 266.269 1874.97 266.37C1873.7 267.428 1872.11 268.003 1870.42 268.003C1868.73 268.003 1867.14 267.428 1865.87 266.37C1864.76 266.269 1863.69 265.906 1862.74 265.301C1860.86 264.111 1859.67 262.145 1859.47 259.957C1858.4 258.686 1857.82 257.093 1857.82 255.409Z" fill="#ED1C24"/>
<path d="M1960.64 268.755C1960.64 267.071 1961.21 265.478 1962.28 264.208C1962.48 262.019 1963.67 260.053 1965.56 258.863C1966.51 258.258 1967.59 257.895 1968.69 257.795C1969.96 256.736 1971.54 256.161 1973.23 256.161C1974.92 256.161 1976.51 256.736 1977.78 257.795C1978.89 257.895 1979.96 258.258 1980.91 258.863C1982.79 260.053 1983.98 262.019 1984.18 264.208C1985.24 265.478 1985.83 267.071 1985.83 268.755C1985.83 270.439 1985.25 272.032 1984.18 273.303C1983.98 275.491 1982.79 277.447 1980.91 278.647C1979.96 279.252 1978.88 279.615 1977.78 279.715C1976.51 280.774 1974.93 281.349 1973.23 281.349C1971.55 281.349 1969.96 280.774 1968.69 279.715C1967.58 279.615 1966.51 279.252 1965.56 278.647C1963.67 277.457 1962.48 275.491 1962.28 273.303C1961.21 272.032 1960.64 270.439 1960.64 268.755Z" fill="#ED1C24"/>
<path d="M2063.95 249.477C2063.95 247.794 2064.52 246.2 2065.59 244.93C2065.79 242.742 2066.98 240.776 2068.87 239.586C2069.82 238.981 2070.89 238.618 2071.99 238.517C2073.26 237.458 2074.85 236.884 2076.54 236.884C2078.23 236.884 2079.82 237.458 2081.09 238.517C2082.2 238.618 2083.27 238.981 2084.21 239.586C2086.1 240.776 2087.29 242.742 2087.49 244.93C2088.55 246.2 2089.14 247.794 2089.14 249.477C2089.14 251.161 2088.56 252.754 2087.49 254.025C2087.29 256.213 2086.1 258.169 2084.21 259.369C2083.27 259.974 2082.19 260.337 2081.09 260.438C2079.82 261.497 2078.24 262.071 2076.54 262.071C2074.86 262.071 2073.26 261.497 2071.99 260.438C2070.88 260.337 2069.82 259.974 2068.87 259.369C2066.98 258.179 2065.79 256.213 2065.59 254.025C2064.52 252.754 2063.95 251.161 2063.95 249.477Z" fill="#ED1C24"/>
<path d="M2155.39 211.416C2155.39 209.733 2155.97 208.139 2157.04 206.869C2157.24 204.681 2158.43 202.715 2160.31 201.525C2161.26 200.92 2162.34 200.557 2163.44 200.456C2164.71 199.397 2166.29 198.823 2167.99 198.823C2169.67 198.823 2171.26 199.397 2172.53 200.456C2173.64 200.557 2174.71 200.92 2175.66 201.525C2177.54 202.715 2178.73 204.681 2178.94 206.869C2179.99 208.139 2180.58 209.733 2180.58 211.416C2180.58 213.1 2180 214.693 2178.94 215.964C2178.73 218.152 2177.54 220.108 2175.66 221.308C2174.71 221.913 2173.63 222.276 2172.53 222.377C2171.26 223.436 2169.68 224.01 2167.99 224.01C2166.3 224.01 2164.71 223.436 2163.44 222.377C2162.33 222.276 2161.26 221.913 2160.31 221.308C2158.43 220.118 2157.24 218.152 2157.04 215.964C2155.97 214.693 2155.39 213.1 2155.39 211.416Z" fill="#ED1C24"/>
<path d="M2243.38 165.941C2243.38 164.257 2243.95 162.664 2245.02 161.393C2245.22 159.205 2246.41 157.239 2248.3 156.049C2249.25 155.444 2250.32 155.081 2251.42 154.981C2252.69 153.922 2254.28 153.347 2255.97 153.347C2257.65 153.347 2259.25 153.922 2260.52 154.981C2261.63 155.081 2262.7 155.444 2263.64 156.049C2265.53 157.239 2266.72 159.205 2266.92 161.393C2267.98 162.664 2268.56 164.257 2268.56 165.941C2268.56 167.625 2267.99 169.218 2266.92 170.488C2266.72 172.677 2265.53 174.633 2263.64 175.833C2262.7 176.438 2261.62 176.801 2260.52 176.901C2259.25 177.96 2257.66 178.535 2255.97 178.535C2254.29 178.535 2252.69 177.96 2251.42 176.901C2250.31 176.801 2249.25 176.438 2248.3 175.833C2246.41 174.643 2245.22 172.677 2245.02 170.488C2243.95 169.218 2243.38 167.625 2243.38 165.941Z" fill="#ED1C24"/>
<path d="M2318.02 128.374C2318.02 126.69 2318.59 125.097 2319.66 123.827C2319.86 121.639 2321.05 119.672 2322.94 118.483C2323.88 117.878 2324.96 117.515 2326.06 117.414C2327.33 116.355 2328.92 115.78 2330.61 115.78C2332.29 115.78 2333.89 116.355 2335.16 117.414C2336.27 117.515 2337.34 117.878 2338.28 118.483C2340.17 119.672 2341.36 121.639 2341.56 123.827C2342.62 125.097 2343.2 126.69 2343.2 128.374C2343.2 130.058 2342.63 131.651 2341.56 132.922C2341.36 135.11 2340.17 137.066 2338.28 138.266C2337.34 138.871 2336.26 139.234 2335.16 139.335C2333.89 140.393 2332.3 140.968 2330.61 140.968C2328.93 140.968 2327.33 140.393 2326.06 139.335C2324.95 139.234 2323.88 138.871 2322.94 138.266C2321.05 137.076 2319.86 135.11 2319.66 132.922C2318.59 131.651 2318.02 130.058 2318.02 128.374Z" fill="#ED1C24"/>
<path d="M2438.62 88.594C2438.62 87.2722 2439.08 86.0216 2439.92 85.0243C2440.07 83.3067 2441.01 81.7632 2442.49 80.8293C2443.23 80.3543 2444.08 80.0694 2444.94 79.9903C2445.94 79.1592 2447.18 78.708 2448.51 78.708C2449.83 78.708 2451.08 79.1592 2452.08 79.9903C2452.95 80.0694 2453.79 80.3543 2454.53 80.8293C2456.01 81.7632 2456.95 83.3067 2457.11 85.0243C2457.94 86.0216 2458.4 87.2722 2458.4 88.594C2458.4 89.9158 2457.95 91.1664 2457.11 92.1637C2456.95 93.8813 2456.01 95.4168 2454.53 96.3587C2453.79 96.8336 2452.94 97.1185 2452.08 97.1977C2451.08 98.0288 2449.84 98.48 2448.51 98.48C2447.19 98.48 2445.94 98.0288 2444.94 97.1977C2444.07 97.1185 2443.23 96.8336 2442.49 96.3587C2441.01 95.4247 2440.07 93.8813 2439.92 92.1637C2439.08 91.1664 2438.62 89.9158 2438.62 88.594Z" fill="#ED1C24"/>
<path d="M2543.42 77.7194C2543.42 76.4636 2543.84 75.2756 2544.64 74.3281C2544.79 72.6964 2545.68 71.2302 2547.09 70.3429C2547.79 69.8917 2548.6 69.621 2549.42 69.5458C2550.36 68.7563 2551.54 68.3277 2552.81 68.3277C2554.06 68.3277 2555.25 68.7563 2556.2 69.5458C2557.03 69.621 2557.82 69.8917 2558.53 70.3429C2559.94 71.2302 2560.82 72.6964 2560.97 74.3281C2561.76 75.2756 2562.2 76.4636 2562.2 77.7194C2562.2 78.9751 2561.77 80.1632 2560.97 81.1106C2560.82 82.7423 2559.94 84.201 2558.53 85.0959C2557.82 85.547 2557.02 85.8177 2556.2 85.8929C2555.25 86.6824 2554.07 87.111 2552.81 87.111C2551.55 87.111 2550.36 86.6824 2549.42 85.8929C2548.59 85.8177 2547.79 85.547 2547.09 85.0959C2545.68 84.2086 2544.79 82.7423 2544.64 81.1106C2543.84 80.1632 2543.42 78.9751 2543.42 77.7194Z" fill="#ED1C24"/>
<path d="M2640.79 88.594C2640.79 87.5365 2641.15 86.536 2641.83 85.7382C2641.95 84.3641 2642.7 83.1294 2643.88 82.3822C2644.48 82.0023 2645.16 81.7743 2645.85 81.711C2646.64 81.0461 2647.64 80.6852 2648.7 80.6852C2649.76 80.6852 2650.76 81.0461 2651.56 81.711C2652.25 81.7743 2652.93 82.0023 2653.52 82.3822C2654.7 83.1294 2655.45 84.3641 2655.58 85.7382C2656.24 86.536 2656.61 87.5365 2656.61 88.594C2656.61 89.6514 2656.25 90.6519 2655.58 91.4497C2655.45 92.8238 2654.7 94.0522 2653.52 94.8057C2652.93 95.1857 2652.25 95.4136 2651.56 95.4769C2650.76 96.1418 2649.77 96.5027 2648.7 96.5027C2647.64 96.5027 2646.64 96.1418 2645.85 95.4769C2645.15 95.4136 2644.48 95.1857 2643.88 94.8057C2642.7 94.0585 2641.95 92.8238 2641.83 91.4497C2641.15 90.6519 2640.79 89.6514 2640.79 88.594Z" fill="#ED1C24"/>
<path d="M182.692 44.7185C182.692 44.7185 42.492 0.125403 42.1068 0.0290899C37.3232 -0.805625 24.0641 16.2739 10.8692 57.6566C-2.80734 100.644 -1.36264 121.769 3.26039 123.053L143.557 167.646C145.483 168.192 148.918 165.72 153.252 159.588L158.55 151.016C163.622 141.802 169.369 128.447 175.212 110.115C188.888 67.1916 187.315 46.0347 182.692 44.7185ZM119.382 96.3103C118.836 102.25 115.594 107.611 110.457 110.822C107.857 112.459 104.967 113.454 101.949 113.711C98.5143 116.6 94.1802 118.173 89.5892 118.173C85.2872 118.173 81.21 116.793 77.9032 114.257C75.5596 124.145 74.3396 131.689 73.9544 137.34L8.10816 116.44C7.24134 111.335 7.36976 94.2877 18.2853 60.0002C29.1045 25.9695 38.7037 11.9719 42.5562 8.27993L108.37 29.212C105.706 33.0004 99.6379 46.8053 97.7759 51.4604C99.2848 52.1667 100.697 53.0656 101.982 54.1251C104.999 54.414 107.921 55.3771 110.489 57.0145C115.626 60.257 118.868 65.5864 119.414 71.5257C122.304 74.9608 123.877 79.2949 123.877 83.8859C123.845 88.541 122.272 92.8751 119.382 96.3103Z" fill="white"/>
<path d="M77.2297 113.743C74.2119 113.454 71.3225 112.491 68.722 110.854C63.5853 107.611 60.3428 102.282 59.797 96.3424C56.9076 92.9073 55.3345 88.5732 55.3345 83.9822C55.3345 79.3913 56.9076 75.0572 59.797 71.622C60.3428 65.6827 63.5853 60.3213 68.722 57.1108C71.3225 55.4735 74.2119 54.4783 77.2297 54.2214C80.6649 51.332 84.999 49.7589 89.5899 49.7589C92.4793 49.7589 95.2403 50.3689 97.7444 51.5567C99.6065 46.9337 105.674 33.0967 108.339 29.3084L42.5248 8.37628C38.6723 12.0362 29.0731 26.0337 18.2539 60.0965C7.33836 94.3841 7.24204 111.432 8.07676 116.536L73.9229 137.436C74.3082 131.786 75.5282 124.241 77.8718 114.353C77.6471 114.096 77.4544 113.936 77.2297 113.743Z" fill="#010035"/>
<path d="M55.333 83.9501C55.333 79.3592 56.9061 75.0251 59.7955 71.5899C60.3413 65.6506 63.5839 60.2892 68.7206 57.0787C71.321 55.4414 74.2104 54.4462 77.2282 54.1893C80.6634 51.2999 84.9975 49.7268 89.5884 49.7268C94.1794 49.7268 98.5135 51.2999 101.949 54.1893C104.966 54.4783 107.888 55.4414 110.456 57.0787C115.593 60.3213 118.836 65.6506 119.381 71.5899C122.271 75.0251 123.844 79.3592 123.844 83.9501C123.844 88.5411 122.271 92.8752 119.381 96.3103C118.836 102.25 115.593 107.611 110.456 110.822C107.856 112.459 104.966 113.454 101.949 113.711C98.5135 116.6 94.1794 118.173 89.5884 118.173C84.9975 118.173 80.6634 116.6 77.2282 113.711C74.2104 113.422 71.321 112.459 68.7206 110.822C63.5839 107.579 60.3413 102.25 59.7955 96.3103C56.9061 92.8752 55.333 88.5411 55.333 83.9501Z" fill="#ED1C24"/>
</svg>
