<svg width="2643" height="250" viewBox="0 0 2643 250" fill="none" xmlns="http://www.w3.org/2000/svg">
<path d="M2263.46 35.1033C2168.41 58.4405 2082.98 109.69 1995.65 150.71C1986.39 155.028 1976.68 159.397 1967.22 163.201C1891.14 194.095 1805.61 202.114 1725.47 184.842C1750.55 159.654 1763.2 125.882 1760.63 90.2594C1759.19 70.8288 1752.92 51.6552 1741.3 35.6173C1721.97 8.99017 1690.26 -5.81409 1657.62 2.15348C1618.65 11.6632 1591.82 49.8047 1584.93 87.3294C1581.28 109.125 1584.36 131.485 1591.82 152.047C1594.39 159.192 1597.47 165.977 1601.12 172.454C1550.13 185.305 1497.49 186.282 1444.75 178.828C1327.19 161.762 1219.35 109.073 1110.47 63.8893C1028.74 29.7573 941.51 0.35436 851.297 4.36385C778.098 6.67701 707.777 33.7668 644.088 67.8988C569.759 107.12 500.209 156.313 421.613 185.613C281.795 237.942 116.841 206.997 0.873861 113.802L0 114.728C70.9885 192.193 172.768 238.302 277.22 247.555C330.68 252.284 385.271 247.143 436.777 231.825C503.191 212.395 566.829 177.749 627.485 146.341C684.903 116.784 744.068 88.0491 807.963 77.7169C955.235 55.1507 1101.79 108.868 1237.9 160.837C1352.17 204.633 1472.77 252.181 1597.73 238.045C1616.24 236.04 1635 232.545 1653.04 226.89C1653.19 226.942 1653.35 226.993 1653.35 226.993L1655.61 227.764C1709.02 245.087 1765.87 250.279 1821.7 246.527C1880.91 242.414 1939.31 226.582 1992.61 200.675C2009.73 192.296 2026.8 183.095 2043.4 173.893C2205.68 80.647 2324.89 12.8454 2519.4 56.1788C2559.13 65.123 2598.05 78.0767 2635.78 93.5493C2638.4 94.6287 2641.38 93.4464 2642.51 90.8763C2642.51 90.8249 2642.56 90.7735 2642.56 90.7221C2643.69 88.1519 2642.56 85.119 2640.04 83.8854C2521.25 27.7011 2393.1 1.43383 2263.46 35.1033ZM1609.24 94.5773C1615.31 75.3523 1636.54 64.7632 1655.46 66.4595C1659.62 66.8193 1663.63 67.6418 1667.48 69.1839C1670.21 70.3148 1672.78 71.8569 1675.09 73.399C1676.22 74.1187 1677.3 74.8897 1678.28 75.7636C1690.62 87.7406 1688.3 113.185 1679.36 126.962C1668.51 143.308 1660.49 147.163 1642.35 154.822C1617.01 145.57 1601.43 120.639 1609.24 94.5773Z" fill="white"/>
<path d="M166.548 212.554C166.548 210.87 167.123 209.277 168.191 208.007C168.393 205.819 169.583 203.853 171.468 202.663C172.416 202.058 173.495 201.695 174.594 201.594C175.865 200.535 177.448 199.96 179.142 199.96C180.826 199.96 182.419 200.535 183.689 201.594C184.798 201.695 185.867 202.058 186.815 202.663C188.701 203.853 189.89 205.819 190.092 208.007C191.151 209.277 191.736 210.87 191.736 212.554C191.736 214.238 191.161 215.831 190.092 217.102C189.89 219.29 188.701 221.246 186.815 222.446C185.867 223.051 184.788 223.414 183.689 223.515C182.419 224.574 180.836 225.148 179.142 225.148C177.458 225.148 175.865 224.574 174.594 223.515C173.485 223.414 172.416 223.051 171.468 222.446C169.583 221.256 168.393 219.29 168.191 217.102C167.123 215.831 166.548 214.238 166.548 212.554Z" fill="#ED1C24"/>
<path d="M272.954 231.06C272.954 229.376 273.528 227.783 274.597 226.512C274.799 224.324 275.989 222.358 277.874 221.168C278.822 220.563 279.901 220.2 281 220.099C282.27 219.04 283.854 218.466 285.548 218.466C287.231 218.466 288.825 219.04 290.095 220.099C291.204 220.2 292.273 220.563 293.221 221.168C295.106 222.358 296.296 224.324 296.498 226.512C297.557 227.783 298.141 229.376 298.141 231.06C298.141 232.743 297.567 234.337 296.498 235.607C296.296 237.795 295.106 239.751 293.221 240.951C292.273 241.556 291.194 241.919 290.095 242.02C288.825 243.079 287.241 243.654 285.548 243.654C283.864 243.654 282.27 243.079 281 242.02C279.891 241.919 278.822 241.556 277.874 240.951C275.989 239.761 274.799 237.795 274.597 235.607C273.528 234.337 272.954 232.743 272.954 231.06Z" fill="#ED1C24"/>
</svg>
