<svg width="2643" height="250" viewBox="0 0 2643 250" fill="none" xmlns="http://www.w3.org/2000/svg">
<path d="M2263.46 35.1033C2168.41 58.4406 2082.98 109.69 1995.65 150.71C1986.39 155.028 1976.68 159.397 1967.22 163.201C1891.14 194.095 1805.61 202.114 1725.47 184.842C1750.55 159.654 1763.2 125.882 1760.63 90.2595C1759.19 70.8289 1752.92 51.6553 1741.3 35.6173C1721.97 8.99023 1690.26 -5.81403 1657.62 2.15354C1618.65 11.6632 1591.82 49.8048 1584.93 87.3295C1581.28 109.125 1584.36 131.485 1591.82 152.047C1594.39 159.192 1597.47 165.977 1601.12 172.454C1550.13 185.305 1497.49 186.282 1444.75 178.828C1327.19 161.762 1219.35 109.073 1110.47 63.8894C1028.74 29.7573 941.51 0.354421 851.297 4.36391C778.098 6.67708 707.777 33.7668 644.088 67.8989C569.759 107.12 500.209 156.313 421.613 185.613C281.795 237.942 116.841 206.997 0.873861 113.802L0 114.728C70.9885 192.193 172.768 238.302 277.22 247.555C330.68 252.284 385.271 247.144 436.777 231.825C503.191 212.395 566.829 177.749 627.485 146.341C684.903 116.784 744.068 88.0491 807.963 77.717C955.235 55.1507 1101.79 108.868 1237.9 160.837C1352.17 204.633 1472.77 252.181 1597.73 238.045C1616.24 236.04 1635 232.545 1653.04 226.891C1653.19 226.942 1653.35 226.993 1653.35 226.993L1655.61 227.764C1709.02 245.087 1765.87 250.279 1821.7 246.527C1880.91 242.414 1939.31 226.582 1992.61 200.675C2009.73 192.296 2026.8 183.095 2043.4 173.893C2205.68 80.647 2324.89 12.8455 2519.4 56.1788C2559.13 65.1231 2598.05 78.0768 2635.78 93.5493C2638.4 94.6288 2641.38 93.4465 2642.51 90.8763C2642.51 90.8249 2642.56 90.7735 2642.56 90.7221C2643.69 88.1519 2642.56 85.1191 2640.04 83.8854C2521.25 27.7012 2393.1 1.43389 2263.46 35.1033ZM1609.24 94.5774C1615.31 75.3524 1636.54 64.7632 1655.46 66.4596C1659.62 66.8194 1663.63 67.6419 1667.48 69.184C1670.21 70.3149 1672.78 71.857 1675.09 73.3991C1676.22 74.1187 1677.3 74.8898 1678.28 75.7636C1690.62 87.7407 1688.3 113.186 1679.36 126.962C1668.51 143.308 1660.49 147.163 1642.35 154.823C1617.01 145.57 1601.43 120.639 1609.24 94.5774Z" fill="white"/>
<path d="M166.549 212.554C166.549 210.871 167.124 209.277 168.192 208.007C168.394 205.819 169.584 203.853 171.469 202.663C172.417 202.058 173.496 201.695 174.595 201.594C175.866 200.535 177.449 199.961 179.143 199.961C180.827 199.961 182.42 200.535 183.69 201.594C184.799 201.695 185.868 202.058 186.816 202.663C188.702 203.853 189.891 205.819 190.093 208.007C191.152 209.277 191.737 210.871 191.737 212.554C191.737 214.238 191.162 215.831 190.093 217.102C189.891 219.29 188.702 221.246 186.816 222.446C185.868 223.051 184.789 223.414 183.69 223.515C182.42 224.574 180.837 225.148 179.143 225.148C177.459 225.148 175.866 224.574 174.595 223.515C173.486 223.414 172.417 223.051 171.469 222.446C169.584 221.256 168.394 219.29 168.192 217.102C167.124 215.831 166.549 214.238 166.549 212.554Z" fill="#ED1C24"/>
<path d="M264.449 229.591C264.449 227.907 265.024 226.314 266.093 225.044C266.294 222.855 267.484 220.889 269.37 219.699C270.318 219.094 271.397 218.731 272.496 218.631C273.766 217.572 275.349 216.997 277.043 216.997C278.727 216.997 280.32 217.572 281.591 218.631C282.7 218.731 283.769 219.094 284.716 219.699C286.602 220.889 287.792 222.855 287.993 225.044C289.052 226.314 289.637 227.907 289.637 229.591C289.637 231.275 289.062 232.868 287.993 234.139C287.792 236.327 286.602 238.283 284.716 239.483C283.769 240.088 282.69 240.451 281.591 240.551C280.32 241.61 278.737 242.185 277.043 242.185C275.359 242.185 273.766 241.61 272.496 240.551C271.386 240.451 270.318 240.088 269.37 239.483C267.484 238.293 266.294 236.327 266.093 234.139C265.024 232.868 264.449 231.275 264.449 229.591Z" fill="#ED1C24"/>
<path d="M365.286 223.659C365.286 221.976 365.861 220.382 366.93 219.112C367.131 216.924 368.321 214.958 370.207 213.768C371.155 213.163 372.233 212.8 373.333 212.699C374.603 211.64 376.186 211.065 377.88 211.065C379.564 211.065 381.157 211.64 382.428 212.699C383.537 212.8 384.606 213.163 385.553 213.768C387.439 214.958 388.629 216.924 388.83 219.112C389.889 220.382 390.474 221.976 390.474 223.659C390.474 225.343 389.899 226.936 388.83 228.207C388.629 230.395 387.439 232.351 385.553 233.551C384.606 234.156 383.527 234.519 382.428 234.62C381.157 235.679 379.574 236.253 377.88 236.253C376.196 236.253 374.603 235.679 373.333 234.62C372.223 234.519 371.155 234.156 370.207 233.551C368.321 232.361 367.131 230.395 366.93 228.207C365.861 226.936 365.286 225.343 365.286 223.659Z" fill="#ED1C24"/>
<path d="M474.526 187.081C474.526 185.397 475.101 183.804 476.17 182.534C476.372 180.346 477.561 178.379 479.447 177.19C480.395 176.585 481.474 176.222 482.573 176.121C483.843 175.062 485.426 174.487 487.12 174.487C488.804 174.487 490.397 175.062 491.668 176.121C492.777 176.222 493.846 176.585 494.794 177.19C496.679 178.379 497.869 180.346 498.071 182.534C499.129 183.804 499.714 185.397 499.714 187.081C499.714 188.765 499.139 190.358 498.071 191.629C497.869 193.817 496.679 195.773 494.794 196.973C493.846 197.578 492.767 197.941 491.668 198.042C490.397 199.1 488.814 199.675 487.12 199.675C485.436 199.675 483.843 199.1 482.573 198.042C481.464 197.941 480.395 197.578 479.447 196.973C477.561 195.783 476.372 193.817 476.17 191.629C475.101 190.358 474.526 188.765 474.526 187.081Z" fill="#ED1C24"/>
<path d="M578.823 137.157C578.823 135.473 579.398 133.88 580.467 132.61C580.668 130.422 581.858 128.455 583.744 127.265C584.692 126.66 585.771 126.297 586.87 126.197C588.14 125.138 589.723 124.563 591.417 124.563C593.101 124.563 594.694 125.138 595.965 126.197C597.074 126.297 598.143 126.66 599.09 127.265C600.976 128.455 602.166 130.422 602.367 132.61C603.426 133.88 604.011 135.473 604.011 137.157C604.011 138.841 603.436 140.434 602.367 141.705C602.166 143.893 600.976 145.849 599.09 147.049C598.143 147.654 597.064 148.017 595.965 148.118C594.694 149.176 593.111 149.751 591.417 149.751C589.733 149.751 588.14 149.176 586.87 148.118C585.76 148.017 584.692 147.654 583.744 147.049C581.858 145.859 580.668 143.893 580.467 141.705C579.398 140.434 578.823 138.841 578.823 137.157Z" fill="#ED1C24"/>
<path d="M677.683 84.7616C677.683 83.0777 678.257 81.4845 679.326 80.214C679.528 78.026 680.718 76.0598 682.603 74.87C683.551 74.265 684.63 73.902 685.729 73.8011C686.999 72.7424 688.583 72.1677 690.277 72.1677C691.96 72.1677 693.554 72.7424 694.824 73.8011C695.933 73.902 697.002 74.265 697.95 74.87C699.835 76.0598 701.025 78.026 701.227 80.214C702.286 81.4845 702.87 83.0777 702.87 84.7616C702.87 86.4455 702.296 88.0386 701.227 89.3091C701.025 91.4971 699.835 93.4533 697.95 94.6532C697.002 95.2582 695.923 95.6212 694.824 95.722C693.554 96.7807 691.97 97.3555 690.277 97.3555C688.593 97.3555 686.999 96.7807 685.729 95.722C684.62 95.6212 683.551 95.2582 682.603 94.6532C680.718 93.4634 679.528 91.4971 679.326 89.3091C678.257 88.0386 677.683 86.4455 677.683 84.7616Z" fill="#ED1C24"/>
<path d="M773.577 49.172C773.577 47.4881 774.152 45.8949 775.221 44.6244C775.422 42.4364 776.612 40.4702 778.498 39.2804C779.446 38.6754 780.524 38.3124 781.624 38.2115C782.894 37.1528 784.477 36.5781 786.171 36.5781C787.855 36.5781 789.448 37.1528 790.719 38.2115C791.828 38.3124 792.897 38.6754 793.844 39.2804C795.73 40.4702 796.92 42.4364 797.121 44.6244C798.18 45.8949 798.765 47.4881 798.765 49.172C798.765 50.8559 798.19 52.449 797.121 53.7195C796.92 55.9075 795.73 57.8637 793.844 59.0636C792.897 59.6686 791.818 60.0316 790.719 60.1324C789.448 61.1911 787.865 61.7659 786.171 61.7659C784.487 61.7659 782.894 61.1911 781.624 60.1324C780.514 60.0316 779.446 59.6686 778.498 59.0636C776.612 57.8738 775.422 55.9075 775.221 53.7195C774.152 52.449 773.577 50.8559 773.577 49.172Z" fill="#ED1C24"/>
<path d="M883.312 36.8145C883.312 35.1307 883.886 33.5375 884.955 32.267C885.157 30.079 886.347 28.1128 888.232 26.9229C889.18 26.3179 890.259 25.9549 891.358 25.8541C892.628 24.7954 894.211 24.2206 895.905 24.2206C897.589 24.2206 899.182 24.7954 900.453 25.8541C901.562 25.9549 902.631 26.3179 903.579 26.9229C905.464 28.1128 906.654 30.079 906.856 32.267C907.915 33.5375 908.499 35.1307 908.499 36.8145C908.499 38.4984 907.925 40.0916 906.856 41.3621C906.654 43.5501 905.464 45.5063 903.579 46.7062C902.631 47.3111 901.552 47.6741 900.453 47.775C899.182 48.8337 897.599 49.4085 895.905 49.4085C894.222 49.4085 892.628 48.8337 891.358 47.775C890.249 47.6741 889.18 47.3111 888.232 46.7062C886.347 45.5163 885.157 43.5501 884.955 41.3621C883.886 40.0916 883.312 38.4984 883.312 36.8145Z" fill="#ED1C24"/>
<path d="M984.148 54.6093C984.148 52.9254 984.723 51.3322 985.792 50.0618C985.994 47.8737 987.183 45.9075 989.069 44.7177C990.017 44.1127 991.096 43.7497 992.195 43.6489C993.465 42.5901 995.048 42.0154 996.742 42.0154C998.426 42.0154 1000.02 42.5901 1001.29 43.6489C1002.4 43.7497 1003.47 44.1127 1004.42 44.7177C1006.3 45.9075 1007.49 47.8737 1007.69 50.0618C1008.75 51.3322 1009.34 52.9254 1009.34 54.6093C1009.34 56.2932 1008.76 57.8863 1007.69 59.1568C1007.49 61.3449 1006.3 63.301 1004.42 64.5009C1003.47 65.1059 1002.39 65.4689 1001.29 65.5697C1000.02 66.6284 998.436 67.2032 996.742 67.2032C995.058 67.2032 993.465 66.6284 992.195 65.5697C991.086 65.4689 990.017 65.1059 989.069 64.5009C987.183 63.3111 985.994 61.3449 985.792 59.1568C984.723 57.8863 984.148 56.2932 984.148 54.6093Z" fill="#ED1C24"/>
<path d="M1085.97 84.7616C1085.97 83.0777 1086.55 81.4845 1087.62 80.214C1087.82 78.026 1089.01 76.0598 1090.9 74.87C1091.84 74.265 1092.92 73.902 1094.02 73.8011C1095.29 72.7424 1096.87 72.1677 1098.57 72.1677C1100.25 72.1677 1101.85 72.7424 1103.12 73.8011C1104.23 73.902 1105.29 74.265 1106.24 74.87C1108.13 76.0598 1109.32 78.026 1109.52 80.214C1110.58 81.4845 1111.16 83.0777 1111.16 84.7616C1111.16 86.4455 1110.59 88.0386 1109.52 89.3091C1109.32 91.4971 1108.13 93.4533 1106.24 94.6532C1105.29 95.2582 1104.22 95.6212 1103.12 95.722C1101.85 96.7807 1100.26 97.3555 1098.57 97.3555C1096.88 97.3555 1095.29 96.7807 1094.02 95.722C1092.91 95.6212 1091.84 95.2582 1090.9 94.6532C1089.01 93.4634 1087.82 91.4971 1087.62 89.3091C1086.55 88.0386 1085.97 86.4455 1085.97 84.7616Z" fill="#ED1C24"/>
<path d="M1195.71 127.271C1195.71 125.587 1196.28 123.994 1197.35 122.724C1197.55 120.536 1198.74 118.569 1200.63 117.38C1201.58 116.775 1202.66 116.412 1203.75 116.311C1205.02 115.252 1206.61 114.677 1208.3 114.677C1209.99 114.677 1211.58 115.252 1212.85 116.311C1213.96 116.412 1215.03 116.775 1215.98 117.38C1217.86 118.569 1219.05 120.536 1219.25 122.724C1220.31 123.994 1220.9 125.587 1220.9 127.271C1220.9 128.955 1220.32 130.548 1219.25 131.819C1219.05 134.007 1217.86 135.963 1215.98 137.163C1215.03 137.768 1213.95 138.131 1212.85 138.232C1211.58 139.29 1210 139.865 1208.3 139.865C1206.62 139.865 1205.02 139.29 1203.75 138.232C1202.65 138.131 1201.58 137.768 1200.63 137.163C1198.74 135.973 1197.55 134.007 1197.35 131.819C1196.28 130.548 1195.71 128.955 1195.71 127.271Z" fill="#ED1C24"/>
<path d="M1288.14 162.861C1288.14 161.177 1288.72 159.584 1289.79 158.313C1289.99 156.125 1291.18 154.159 1293.06 152.969C1294.01 152.364 1295.09 152.001 1296.19 151.9C1297.46 150.842 1299.04 150.267 1300.74 150.267C1302.42 150.267 1304.01 150.842 1305.28 151.9C1306.39 152.001 1307.46 152.364 1308.41 152.969C1310.3 154.159 1311.49 156.125 1311.69 158.313C1312.75 159.584 1313.33 161.177 1313.33 162.861C1313.33 164.545 1312.76 166.138 1311.69 167.408C1311.49 169.596 1310.3 171.552 1308.41 172.752C1307.46 173.357 1306.38 173.72 1305.28 173.821C1304.01 174.88 1302.43 175.455 1300.74 175.455C1299.05 175.455 1297.46 174.88 1296.19 173.821C1295.08 173.72 1294.01 173.357 1293.06 172.752C1291.18 171.562 1289.99 169.596 1289.79 167.408C1288.72 166.138 1288.14 164.545 1288.14 162.861Z" fill="#ED1C24"/>
<path d="M1397.88 194.496C1397.88 192.812 1398.45 191.219 1399.52 189.948C1399.72 187.76 1400.91 185.794 1402.8 184.604C1403.74 183.999 1404.82 183.636 1405.92 183.535C1407.19 182.477 1408.78 181.902 1410.47 181.902C1412.15 181.902 1413.75 182.477 1415.02 183.535C1416.13 183.636 1417.2 183.999 1418.14 184.604C1420.03 185.794 1421.22 187.76 1421.42 189.948C1422.48 191.219 1423.06 192.812 1423.06 194.496C1423.06 196.18 1422.49 197.773 1421.42 199.043C1421.22 201.231 1420.03 203.188 1418.14 204.387C1417.2 204.992 1416.12 205.355 1415.02 205.456C1413.75 206.515 1412.16 207.09 1410.47 207.09C1408.79 207.09 1407.19 206.515 1405.92 205.456C1404.81 205.355 1403.74 204.992 1402.8 204.387C1400.91 203.198 1399.72 201.231 1399.52 199.043C1398.45 197.773 1397.88 196.18 1397.88 194.496Z" fill="#ED1C24"/>
<path d="M1499.7 208.831C1499.7 207.147 1500.28 205.553 1501.35 204.283C1501.55 202.095 1502.74 200.129 1504.62 198.939C1505.57 198.334 1506.65 197.971 1507.75 197.87C1509.02 196.811 1510.6 196.237 1512.3 196.237C1513.98 196.237 1515.57 196.811 1516.84 197.87C1517.95 197.971 1519.02 198.334 1519.97 198.939C1521.85 200.129 1523.04 202.095 1523.25 204.283C1524.31 205.553 1524.89 207.147 1524.89 208.831C1524.89 210.514 1524.32 212.108 1523.25 213.378C1523.04 215.566 1521.85 217.522 1519.97 218.722C1519.02 219.327 1517.94 219.69 1516.84 219.791C1515.57 220.85 1513.99 221.424 1512.3 221.424C1510.61 221.424 1509.02 220.85 1507.75 219.791C1506.64 219.69 1505.57 219.327 1504.62 218.722C1502.74 217.532 1501.55 215.566 1501.35 213.378C1500.28 212.108 1499.7 210.514 1499.7 208.831Z" fill="#ED1C24"/>
<path d="M1633.66 36.8145C1633.66 35.1307 1634.23 33.5375 1635.3 32.267C1635.5 30.079 1636.69 28.1128 1638.58 26.9229C1639.52 26.3179 1640.6 25.9549 1641.7 25.8541C1642.97 24.7954 1644.56 24.2206 1646.25 24.2206C1647.93 24.2206 1649.53 24.7954 1650.8 25.8541C1651.91 25.9549 1652.98 26.3179 1653.92 26.9229C1655.81 28.1128 1657 30.079 1657.2 32.267C1658.26 33.5375 1658.84 35.1307 1658.84 36.8145C1658.84 38.4984 1658.27 40.0916 1657.2 41.3621C1657 43.5501 1655.81 45.5063 1653.92 46.7062C1652.98 47.3111 1651.9 47.6741 1650.8 47.775C1649.53 48.8337 1647.94 49.4085 1646.25 49.4085C1644.57 49.4085 1642.97 48.8337 1641.7 47.775C1640.59 47.6741 1639.52 47.3111 1638.58 46.7062C1636.69 45.5163 1635.5 43.5501 1635.3 41.3621C1634.23 40.0916 1633.66 38.4984 1633.66 36.8145Z" fill="#ED1C24"/>
<path d="M1705.82 208.831C1705.82 207.147 1706.4 205.553 1707.47 204.283C1707.67 202.095 1708.86 200.129 1710.74 198.939C1711.69 198.334 1712.77 197.971 1713.87 197.87C1715.14 196.811 1716.72 196.237 1718.42 196.237C1720.1 196.237 1721.7 196.811 1722.97 197.87C1724.07 197.971 1725.14 198.334 1726.09 198.939C1727.98 200.129 1729.17 202.095 1729.37 204.283C1730.43 205.553 1731.01 207.147 1731.01 208.831C1731.01 210.514 1730.44 212.108 1729.37 213.378C1729.17 215.566 1727.98 217.522 1726.09 218.722C1725.14 219.327 1724.06 219.69 1722.97 219.791C1721.7 220.85 1720.11 221.424 1718.42 221.424C1716.73 221.424 1715.14 220.85 1713.87 219.791C1712.76 219.69 1711.69 219.327 1710.74 218.722C1708.86 217.532 1707.67 215.566 1707.47 213.378C1706.4 212.108 1705.82 210.514 1705.82 208.831Z" fill="#ED1C24"/>
<path d="M1808.64 222.176C1808.64 220.493 1809.21 218.899 1810.28 217.629C1810.48 215.441 1811.67 213.475 1813.56 212.285C1814.51 211.68 1815.59 211.317 1816.69 211.216C1817.96 210.157 1819.54 209.583 1821.23 209.583C1822.92 209.583 1824.51 210.157 1825.78 211.216C1826.89 211.317 1827.96 211.68 1828.91 212.285C1830.79 213.475 1831.98 215.441 1832.18 217.629C1833.24 218.899 1833.83 220.493 1833.83 222.176C1833.83 223.86 1833.25 225.454 1832.18 226.724C1831.98 228.912 1830.79 230.868 1828.91 232.068C1827.96 232.673 1826.88 233.036 1825.78 233.137C1824.51 234.196 1822.93 234.77 1821.23 234.77C1819.55 234.77 1817.96 234.196 1816.69 233.137C1815.58 233.036 1814.51 232.673 1813.56 232.068C1811.67 230.878 1810.48 228.912 1810.28 226.724C1809.21 225.454 1808.64 223.86 1808.64 222.176Z" fill="#ED1C24"/>
<path d="M1911.95 202.899C1911.95 201.215 1912.52 199.622 1913.59 198.351C1913.79 196.163 1914.98 194.197 1916.87 193.007C1917.82 192.402 1918.89 192.039 1919.99 191.938C1921.26 190.88 1922.85 190.305 1924.54 190.305C1926.23 190.305 1927.82 190.88 1929.09 191.938C1930.2 192.039 1931.27 192.402 1932.21 193.007C1934.1 194.197 1935.29 196.163 1935.49 198.351C1936.55 199.622 1937.14 201.215 1937.14 202.899C1937.14 204.583 1936.56 206.176 1935.49 207.446C1935.29 209.634 1934.1 211.591 1932.21 212.791C1931.27 213.395 1930.19 213.758 1929.09 213.859C1927.82 214.918 1926.24 215.493 1924.54 215.493C1922.86 215.493 1921.26 214.918 1919.99 213.859C1918.88 213.758 1917.82 213.395 1916.87 212.791C1914.98 211.601 1913.79 209.634 1913.59 207.446C1912.52 206.176 1911.95 204.583 1911.95 202.899Z" fill="#ED1C24"/>
<path d="M2003.39 164.838C2003.39 163.154 2003.97 161.561 2005.04 160.29C2005.24 158.102 2006.43 156.136 2008.31 154.946C2009.26 154.341 2010.34 153.978 2011.44 153.877C2012.71 152.819 2014.29 152.244 2015.99 152.244C2017.67 152.244 2019.26 152.819 2020.53 153.877C2021.64 153.978 2022.71 154.341 2023.66 154.946C2025.54 156.136 2026.73 158.102 2026.94 160.29C2027.99 161.561 2028.58 163.154 2028.58 164.838C2028.58 166.522 2028 168.115 2026.94 169.385C2026.73 171.573 2025.54 173.53 2023.66 174.729C2022.71 175.334 2021.63 175.697 2020.53 175.798C2019.26 176.857 2017.68 177.432 2015.99 177.432C2014.3 177.432 2012.71 176.857 2011.44 175.798C2010.33 175.697 2009.26 175.334 2008.31 174.729C2006.43 173.54 2005.24 171.573 2005.04 169.385C2003.97 168.115 2003.39 166.522 2003.39 164.838Z" fill="#ED1C24"/>
<path d="M2091.38 119.362C2091.38 117.679 2091.95 116.085 2093.02 114.815C2093.22 112.627 2094.41 110.661 2096.3 109.471C2097.25 108.866 2098.32 108.503 2099.42 108.402C2100.69 107.343 2102.28 106.768 2103.97 106.768C2105.65 106.768 2107.25 107.343 2108.52 108.402C2109.63 108.503 2110.7 108.866 2111.64 109.471C2113.53 110.661 2114.72 112.627 2114.92 114.815C2115.98 116.085 2116.56 117.679 2116.56 119.362C2116.56 121.046 2115.99 122.639 2114.92 123.91C2114.72 126.098 2113.53 128.054 2111.64 129.254C2110.7 129.859 2109.62 130.222 2108.52 130.323C2107.25 131.382 2105.66 131.956 2103.97 131.956C2102.29 131.956 2100.69 131.382 2099.42 130.323C2098.31 130.222 2097.25 129.859 2096.3 129.254C2094.41 128.064 2093.22 126.098 2093.02 123.91C2091.95 122.639 2091.38 121.046 2091.38 119.362Z" fill="#ED1C24"/>
<path d="M2166.02 81.7957C2166.02 80.1118 2166.59 78.5186 2167.66 77.2482C2167.86 75.0601 2169.05 73.0939 2170.94 71.9041C2171.88 71.2991 2172.96 70.9361 2174.06 70.8353C2175.33 69.7765 2176.92 69.2018 2178.61 69.2018C2180.29 69.2018 2181.89 69.7765 2183.16 70.8353C2184.27 70.9361 2185.34 71.2991 2186.28 71.9041C2188.17 73.0939 2189.36 75.0601 2189.56 77.2482C2190.62 78.5186 2191.2 80.1118 2191.2 81.7957C2191.2 83.4796 2190.63 85.0727 2189.56 86.3432C2189.36 88.5313 2188.17 90.4874 2186.28 91.6873C2185.34 92.2923 2184.26 92.6553 2183.16 92.7561C2181.89 93.8148 2180.3 94.3896 2178.61 94.3896C2176.93 94.3896 2175.33 93.8148 2174.06 92.7561C2172.95 92.6553 2171.88 92.2923 2170.94 91.6873C2169.05 90.4975 2167.86 88.5313 2167.66 86.3432C2166.59 85.0727 2166.02 83.4796 2166.02 81.7957Z" fill="#ED1C24"/>
<path d="M2286.62 42.0154C2286.62 40.6936 2287.08 39.443 2287.92 38.4457C2288.07 36.7281 2289.01 35.1847 2290.49 34.2507C2291.23 33.7758 2292.08 33.4909 2292.94 33.4117C2293.94 32.5806 2295.18 32.1295 2296.51 32.1295C2297.83 32.1295 2299.08 32.5806 2300.08 33.4117C2300.95 33.4909 2301.79 33.7758 2302.53 34.2507C2304.01 35.1847 2304.95 36.7281 2305.11 38.4457C2305.94 39.443 2306.4 40.6936 2306.4 42.0154C2306.4 43.3372 2305.95 44.5878 2305.11 45.5851C2304.95 47.3027 2304.01 48.8382 2302.53 49.7801C2301.79 50.2551 2300.94 50.54 2300.08 50.6191C2299.08 51.4502 2297.84 51.9014 2296.51 51.9014C2295.19 51.9014 2293.94 51.4502 2292.94 50.6191C2292.07 50.54 2291.23 50.2551 2290.49 49.7801C2289.01 48.8462 2288.07 47.3027 2287.92 45.5851C2287.08 44.5878 2286.62 43.3372 2286.62 42.0154Z" fill="#ED1C24"/>
<path d="M2391.42 31.1408C2391.42 29.8851 2391.84 28.697 2392.64 27.7496C2392.79 26.1179 2393.68 24.6516 2395.09 23.7643C2395.79 23.3132 2396.6 23.0425 2397.42 22.9673C2398.36 22.1777 2399.54 21.7491 2400.81 21.7491C2402.06 21.7491 2403.25 22.1777 2404.2 22.9673C2405.03 23.0425 2405.82 23.3132 2406.53 23.7643C2407.94 24.6516 2408.82 26.1179 2408.97 27.7496C2409.76 28.697 2410.2 29.8851 2410.2 31.1408C2410.2 32.3965 2409.77 33.5846 2408.97 34.532C2408.82 36.1637 2407.94 37.6225 2406.53 38.5173C2405.82 38.9685 2405.02 39.2392 2404.2 39.3144C2403.25 40.1039 2402.07 40.5325 2400.81 40.5325C2399.55 40.5325 2398.36 40.1039 2397.42 39.3144C2396.59 39.2392 2395.79 38.9685 2395.09 38.5173C2393.68 37.63 2392.79 36.1637 2392.64 34.532C2391.84 33.5846 2391.42 32.3965 2391.42 31.1408Z" fill="#ED1C24"/>
<path d="M2488.79 42.0154C2488.79 40.9579 2489.15 39.9575 2489.83 39.1596C2489.95 37.7856 2490.7 36.5508 2491.88 35.8036C2492.48 35.4237 2493.16 35.1957 2493.85 35.1324C2494.64 34.4676 2495.64 34.1066 2496.7 34.1066C2497.76 34.1066 2498.76 34.4676 2499.56 35.1324C2500.25 35.1957 2500.93 35.4237 2501.52 35.8036C2502.7 36.5508 2503.45 37.7856 2503.58 39.1596C2504.24 39.9575 2504.61 40.9579 2504.61 42.0154C2504.61 43.0729 2504.25 44.0733 2503.58 44.8712C2503.45 46.2452 2502.7 47.4737 2501.52 48.2272C2500.93 48.6071 2500.25 48.8351 2499.56 48.8984C2498.76 49.5633 2497.77 49.9242 2496.7 49.9242C2495.64 49.9242 2494.64 49.5633 2493.85 48.8984C2493.15 48.8351 2492.48 48.6071 2491.88 48.2272C2490.7 47.48 2489.95 46.2452 2489.83 44.8712C2489.15 44.0733 2488.79 43.0729 2488.79 42.0154Z" fill="#ED1C24"/>
</svg>
