<svg width="28" height="55" viewBox="0 0 28 55" fill="none" xmlns="http://www.w3.org/2000/svg">
<path d="M25.19 5.32996H3.27003C2.38086 5.32996 1.66003 6.05078 1.66003 6.93996V51.72C1.66003 52.6091 2.38086 53.33 3.27003 53.33H25.19C26.0792 53.33 26.8 52.6091 26.8 51.72V6.93996C26.8 6.05078 26.0792 5.32996 25.19 5.32996Z" stroke="#D8F2FC" stroke-width="1.5" stroke-miterlimit="10"/>
<path d="M17.2901 0.890015H22.94C23.62 0.890015 24.18 1.45001 24.18 2.13001V5.32001H16.05V2.13001C16.05 1.45001 16.6101 0.890015 17.2901 0.890015Z" stroke="#D8F2FC" stroke-width="1.5" stroke-miterlimit="10"/>
<path d="M14.2001 20.97C14.2001 20.97 19.0601 26.39 19.0201 30.58C18.9801 34.77 15.4601 35.09 14.2001 35.09" stroke="#D8F2FC" stroke-width="1.5" stroke-miterlimit="10" stroke-linecap="round"/>
<path d="M11.5601 24.61C10.4401 26.42 9.40008 28.63 9.42008 30.58C9.46008 34.77 12.9801 35.09 14.2401 35.09" stroke="#D8F2FC" stroke-width="1.5" stroke-miterlimit="10" stroke-linecap="round"/>
</svg>
