<svg width="25" height="54" viewBox="0 0 25 54" fill="none" xmlns="http://www.w3.org/2000/svg">
<path d="M12.84 11.22H7.99005C7.15005 11.22 6.38005 11.67 5.96005 12.39C4.83005 14.3 3.03005 18.36 4.49005 22.91C6.16005 28.12 3.56005 31.66 1.78005 35.31C1.13005 36.65 0.800049 38.12 0.800049 39.6V50.15C0.800049 51.86 2.19005 53.25 3.90005 53.25H12.85" stroke="#D8F2FC" stroke-width="1.5" stroke-miterlimit="10"/>
<path d="M11.6101 11.22H16.4601C17.3001 11.22 18.0701 11.67 18.4901 12.39C19.6201 14.3 21.4201 18.36 19.9601 22.91C18.2901 28.12 20.8901 31.66 22.6701 35.31C23.3201 36.65 23.6501 38.12 23.6501 39.6V50.15C23.6501 51.86 22.2601 53.25 20.5501 53.25H11.6001" stroke="#D8F2FC" stroke-width="1.5" stroke-miterlimit="10"/>
<path d="M0.820068 43.6699H11.9401C13.1101 43.6699 14.0601 42.7199 14.0601 41.5499V22.1699C14.0601 20.9999 13.1101 20.0499 11.9401 20.0499H8.90007" stroke="#D8F2FC" stroke-width="1.5" stroke-miterlimit="10"/>
<path d="M8.39006 0.969971H16.0701C17.2201 0.969971 18.1401 1.89997 18.1401 3.03997V8.05997C18.1401 8.47997 17.8001 8.81997 17.3801 8.81997H7.07006C6.65006 8.81997 6.31006 8.47997 6.31006 8.05997V3.03997C6.31006 1.88997 7.24006 0.969971 8.38006 0.969971H8.39006Z" stroke="#D8F2FC" stroke-width="1.5" stroke-miterlimit="10"/>
</svg>
