<svg width="37" height="52" viewBox="0 0 37 52" fill="none" xmlns="http://www.w3.org/2000/svg">
<path d="M18.2 18.35C18.2 18.35 23.54 24.31 23.5 28.92C23.46 33.53 19.59 33.87 18.2 33.87" stroke="#D8F2FC" stroke-width="1.5" stroke-miterlimit="10" stroke-linecap="round"/>
<path d="M15.3 22.35C14.07 24.34 12.93 26.77 12.94 28.92C12.98 33.53 16.85 33.87 18.24 33.87" stroke="#D8F2FC" stroke-width="1.5" stroke-miterlimit="10" stroke-linecap="round"/>
<path d="M30.8101 51.13H5.68006C2.98006 51.13 0.870056 48.79 1.14006 46.1L2.26006 35.08C2.92006 28.58 2.90006 22.04 2.19006 15.55L0.840056 3.13997C0.720056 2.04997 1.58006 1.09998 2.67006 1.09998H33.7701C34.8601 1.09998 35.7101 2.03998 35.6001 3.11998L34.2901 16.51C33.7201 22.36 33.7001 28.25 34.2401 34.11L35.3401 46.15C35.5901 48.82 33.4801 51.13 30.8001 51.13H30.8101Z" stroke="#D8F2FC" stroke-width="1.5" stroke-miterlimit="10"/>
</svg>
