<svg width="24" height="21" viewBox="0 0 24 21" fill="none" xmlns="http://www.w3.org/2000/svg">
<g clip-path="url(#clip0_12_69)">
<path d="M2.54004 8.4C2.54004 4.17 5.96004 0.75 10.19 0.75H13.22C17.44 0.75 20.87 4.17 20.87 8.4" stroke="#8FD2EA" stroke-width="1.5" stroke-linejoin="round"/>
<path d="M2.53 8.6499H2.52C1.54246 8.6499 0.75 9.44236 0.75 10.4199V13.5299C0.75 14.5074 1.54246 15.2999 2.52 15.2999H2.53C3.50754 15.2999 4.3 14.5074 4.3 13.5299V10.4199C4.3 9.44236 3.50754 8.6499 2.53 8.6499Z" stroke="#8FD2EA" stroke-width="1.5" stroke-linejoin="round"/>
<path d="M20.8499 8.6499H20.8399C19.8624 8.6499 19.0699 9.44236 19.0699 10.4199V13.5299C19.0699 14.5074 19.8624 15.2999 20.8399 15.2999H20.8499C21.8275 15.2999 22.6199 14.5074 22.6199 13.5299V10.4199C22.6199 9.44236 21.8275 8.6499 20.8499 8.6499Z" stroke="#8FD2EA" stroke-width="1.5" stroke-linejoin="round"/>
<path d="M20.85 15.3V15.63C20.85 16.91 19.81 17.95 18.53 17.95H15.35" stroke="#8FD2EA" stroke-width="1.5" stroke-linejoin="round"/>
<path d="M14.14 19.4899C14.996 19.4899 15.69 18.7959 15.69 17.9399C15.69 17.0839 14.996 16.3899 14.14 16.3899C13.2839 16.3899 12.59 17.0839 12.59 17.9399C12.59 18.7959 13.2839 19.4899 14.14 19.4899Z" stroke="#8FD2EA" stroke-width="1.5" stroke-linejoin="round"/>
<path d="M8.11995 13.0199C8.76612 13.0199 9.28995 12.4961 9.28995 11.8499C9.28995 11.2038 8.76612 10.6799 8.11995 10.6799C7.47378 10.6799 6.94995 11.2038 6.94995 11.8499C6.94995 12.4961 7.47378 13.0199 8.11995 13.0199Z" fill="#8FD2EA"/>
<path d="M11.6999 13.0199C12.3461 13.0199 12.8699 12.4961 12.8699 11.8499C12.8699 11.2038 12.3461 10.6799 11.6999 10.6799C11.0537 10.6799 10.5299 11.2038 10.5299 11.8499C10.5299 12.4961 11.0537 13.0199 11.6999 13.0199Z" fill="#8FD2EA"/>
<path d="M15.28 13.0199C15.9262 13.0199 16.45 12.4961 16.45 11.8499C16.45 11.2038 15.9262 10.6799 15.28 10.6799C14.6338 10.6799 14.11 11.2038 14.11 11.8499C14.11 12.4961 14.6338 13.0199 15.28 13.0199Z" fill="#8FD2EA"/>
</g>
<defs>
<clipPath id="clip0_12_69">
<rect width="23.37" height="20.24" fill="white"/>
</clipPath>
</defs>
</svg>
