<svg width="68" height="114" viewBox="0 0 68 114" fill="none" xmlns="http://www.w3.org/2000/svg">
<g clip-path="url(#clip0_1514_1042)">
<path d="M68.0001 72.9619L34.1143 49.3546L0.224609 72.9619V99.0385L22.7101 83.3721V113.039H45.5186V83.3761L68.0001 99.0385V72.9619Z" fill="#FF0000"/>
<path d="M59.1291 47.5164H56.218V15.6154H59.1291V47.5164ZM67.9964 16.8892C67.9964 11.735 64.6953 8.66998 57.707 8.66998C50.7187 8.66998 47.3467 11.735 47.3467 16.8892V46.2699C47.3467 51.4241 50.6478 54.4853 57.707 54.4853C64.7662 54.4853 67.9964 51.4202 67.9964 46.2699V16.8892Z" fill="black"/>
<path d="M9.09582 15.6154H12.007V38.6504H9.09582V15.6154ZM20.8743 17.5438C20.8743 12.4758 18.9992 9.41861 12.0306 9.41861H0L0.228479 13.6987V49.4408L0 53.721H9.3243L9.09582 49.4408V44.855H12.0306C19.0031 44.855 20.8743 41.7978 20.8743 36.7298V17.5477V17.5438Z" fill="black"/>
<path d="M35.5911 0H23.5605L23.789 4.28012V53.717L32.6564 47.5359V6.20068H35.5675V27.2877L33.5112 29.3337L35.5675 31.3836V47.5399L44.4348 53.717V31.3836L42.3785 29.3337L44.4348 27.2877V8.12517C44.4348 3.05723 42.5597 0 35.5911 0Z" fill="black"/>
</g>
<defs>
<clipPath id="clip0_1514_1042">
<rect width="68" height="113.039" fill="white"/>
</clipPath>
</defs>
</svg>
