<svg width="32" height="32" viewBox="0 0 32 32" fill="none" xmlns="http://www.w3.org/2000/svg">
<g clip-path="url(#clip0_4_1428)">
<path fill-rule="evenodd" clip-rule="evenodd" d="M16.1333 12.7064C14.4279 12.7064 13.0391 14.0927 13.0391 15.7988C13.0391 17.5049 14.4276 18.891 16.1333 18.891C17.8391 18.891 19.2279 17.5031 19.2279 15.7988C19.2276 14.093 17.8391 12.7064 16.1333 12.7064ZM16.1333 12.7064C14.4279 12.7064 13.0391 14.0927 13.0391 15.7988C13.0391 17.5049 14.4276 18.891 16.1333 18.891C17.8391 18.891 19.2279 17.5031 19.2279 15.7988C19.2276 14.093 17.8391 12.7064 16.1333 12.7064ZM19.8468 7.73837H12.4201C10.0314 7.73837 8.03319 9.70104 8.03319 12.0877V19.5093C8.03319 21.8963 10.0314 23.8486 12.4201 23.8486H19.8468C22.2353 23.8486 24.2027 21.8963 24.2027 19.5093V12.0877C24.2027 9.70104 22.2353 7.73837 19.8468 7.73837ZM16.1333 20.7461C13.3991 20.7461 11.1825 18.531 11.1825 15.7988C11.1825 13.0667 13.3991 10.851 16.1333 10.851C18.8676 10.851 21.0844 13.0664 21.0844 15.7988C21.0844 18.5313 18.8676 20.7461 16.1333 20.7461ZM21.4557 11.1393C21.0913 11.1393 20.7959 10.8441 20.7959 10.48C20.7959 10.1159 21.0913 9.82074 21.4557 9.82074C21.8201 9.82074 22.1153 10.1159 22.1153 10.48C22.1153 10.8441 21.8199 11.1393 21.4557 11.1393ZM16.1333 12.7064C14.4279 12.7064 13.0391 14.0927 13.0391 15.7988C13.0391 17.5049 14.4276 18.891 16.1333 18.891C17.8391 18.891 19.2279 17.5031 19.2279 15.7988C19.2276 14.093 17.8391 12.7064 16.1333 12.7064ZM19.8468 7.73837H12.4201C10.0314 7.73837 8.03319 9.70104 8.03319 12.0877V19.5093C8.03319 21.8963 10.0314 23.8486 12.4201 23.8486H19.8468C22.2353 23.8486 24.2027 21.8963 24.2027 19.5093V12.0877C24.2027 9.70104 22.2353 7.73837 19.8468 7.73837ZM16.1333 20.7461C13.3991 20.7461 11.1825 18.531 11.1825 15.7988C11.1825 13.0667 13.3991 10.851 16.1333 10.851C18.8676 10.851 21.0844 13.0664 21.0844 15.7988C21.0844 18.5313 18.8676 20.7461 16.1333 20.7461ZM21.4557 11.1393C21.0913 11.1393 20.7959 10.8441 20.7959 10.48C20.7959 10.1159 21.0913 9.82074 21.4557 9.82074C21.8201 9.82074 22.1153 10.1159 22.1153 10.48C22.1153 10.8441 21.8199 11.1393 21.4557 11.1393ZM16.1333 12.7064C14.4279 12.7064 13.0391 14.0927 13.0391 15.7988C13.0391 17.5049 14.4276 18.891 16.1333 18.891C17.8391 18.891 19.2279 17.5031 19.2279 15.7988C19.2276 14.093 17.8391 12.7064 16.1333 12.7064ZM28.0904 0H3.90963C1.7517 0 0 1.752 0 3.90963V28.0904C0 30.248 1.752 32 3.90963 32H28.0904C30.248 32 32 30.248 32 28.0904V3.90963C32 1.752 30.2483 0 28.0904 0ZM26.0913 19.5093C26.0913 22.9241 23.264 25.7369 19.8468 25.7369H12.4201C9.00296 25.7369 6.26311 22.9241 6.26311 19.5093V12.0877C6.26311 8.67318 9.00296 5.90874 12.4201 5.90874H19.8468C23.264 5.90874 26.0913 8.67318 26.0913 12.0877V19.5093ZM19.8468 7.73837H12.4201C10.0314 7.73837 8.03319 9.70104 8.03319 12.0877V19.5093C8.03319 21.8963 10.0314 23.8486 12.4201 23.8486H19.8468C22.2353 23.8486 24.2027 21.8963 24.2027 19.5093V12.0877C24.2027 9.70104 22.2353 7.73837 19.8468 7.73837ZM16.1333 20.7461C13.3991 20.7461 11.1825 18.531 11.1825 15.7988C11.1825 13.0667 13.3991 10.851 16.1333 10.851C18.8676 10.851 21.0844 13.0664 21.0844 15.7988C21.0844 18.5313 18.8676 20.7461 16.1333 20.7461ZM21.4557 11.1393C21.0913 11.1393 20.7959 10.8441 20.7959 10.48C20.7959 10.1159 21.0913 9.82074 21.4557 9.82074C21.8201 9.82074 22.1153 10.1159 22.1153 10.48C22.1153 10.8441 21.8199 11.1393 21.4557 11.1393ZM16.1333 12.7064C14.4279 12.7064 13.0391 14.0927 13.0391 15.7988C13.0391 17.5049 14.4276 18.891 16.1333 18.891C17.8391 18.891 19.2279 17.5031 19.2279 15.7988C19.2276 14.093 17.8391 12.7064 16.1333 12.7064ZM16.1333 12.7064C14.4279 12.7064 13.0391 14.0927 13.0391 15.7988C13.0391 17.5049 14.4276 18.891 16.1333 18.891C17.8391 18.891 19.2279 17.5031 19.2279 15.7988C19.2276 14.093 17.8391 12.7064 16.1333 12.7064ZM16.1333 12.7064C14.4279 12.7064 13.0391 14.0927 13.0391 15.7988C13.0391 17.5049 14.4276 18.891 16.1333 18.891C17.8391 18.891 19.2279 17.5031 19.2279 15.7988C19.2276 14.093 17.8391 12.7064 16.1333 12.7064ZM19.8468 7.73837H12.4201C10.0314 7.73837 8.03319 9.70104 8.03319 12.0877V19.5093C8.03319 21.8963 10.0314 23.8486 12.4201 23.8486H19.8468C22.2353 23.8486 24.2027 21.8963 24.2027 19.5093V12.0877C24.2027 9.70104 22.2353 7.73837 19.8468 7.73837ZM16.1333 20.7461C13.3991 20.7461 11.1825 18.531 11.1825 15.7988C11.1825 13.0667 13.3991 10.851 16.1333 10.851C18.8676 10.851 21.0844 13.0664 21.0844 15.7988C21.0844 18.5313 18.8676 20.7461 16.1333 20.7461ZM21.4557 11.1393C21.0913 11.1393 20.7959 10.8441 20.7959 10.48C20.7959 10.1159 21.0913 9.82074 21.4557 9.82074C21.8201 9.82074 22.1153 10.1159 22.1153 10.48C22.1153 10.8441 21.8199 11.1393 21.4557 11.1393ZM16.1333 12.7064C14.4279 12.7064 13.0391 14.0927 13.0391 15.7988C13.0391 17.5049 14.4276 18.891 16.1333 18.891C17.8391 18.891 19.2279 17.5031 19.2279 15.7988C19.2276 14.093 17.8391 12.7064 16.1333 12.7064ZM16.1333 12.7064C14.4279 12.7064 13.0391 14.0927 13.0391 15.7988C13.0391 17.5049 14.4276 18.891 16.1333 18.891C17.8391 18.891 19.2279 17.5031 19.2279 15.7988C19.2276 14.093 17.8391 12.7064 16.1333 12.7064ZM16.1333 12.7064C14.4279 12.7064 13.0391 14.0927 13.0391 15.7988C13.0391 17.5049 14.4276 18.891 16.1333 18.891C17.8391 18.891 19.2279 17.5031 19.2279 15.7988C19.2276 14.093 17.8391 12.7064 16.1333 12.7064ZM19.8468 7.73837H12.4201C10.0314 7.73837 8.03319 9.70104 8.03319 12.0877V19.5093C8.03319 21.8963 10.0314 23.8486 12.4201 23.8486H19.8468C22.2353 23.8486 24.2027 21.8963 24.2027 19.5093V12.0877C24.2027 9.70104 22.2353 7.73837 19.8468 7.73837ZM16.1333 20.7461C13.3991 20.7461 11.1825 18.531 11.1825 15.7988C11.1825 13.0667 13.3991 10.851 16.1333 10.851C18.8676 10.851 21.0844 13.0664 21.0844 15.7988C21.0844 18.5313 18.8676 20.7461 16.1333 20.7461ZM21.4557 11.1393C21.0913 11.1393 20.7959 10.8441 20.7959 10.48C20.7959 10.1159 21.0913 9.82074 21.4557 9.82074C21.8201 9.82074 22.1153 10.1159 22.1153 10.48C22.1153 10.8441 21.8199 11.1393 21.4557 11.1393ZM16.1333 12.7064C14.4279 12.7064 13.0391 14.0927 13.0391 15.7988C13.0391 17.5049 14.4276 18.891 16.1333 18.891C17.8391 18.891 19.2279 17.5031 19.2279 15.7988C19.2276 14.093 17.8391 12.7064 16.1333 12.7064Z" fill="#2E2E2E"/>
</g>
<defs>
<clipPath id="clip0_4_1428">
<rect width="32" height="32" fill="white"/>
</clipPath>
</defs>
</svg>
