<svg width="32" height="32" viewBox="0 0 32 32" fill="none" xmlns="http://www.w3.org/2000/svg">
<path fill-rule="evenodd" clip-rule="evenodd" d="M28.0904 0H3.90963C1.7517 0 0 1.752 0 3.90963V28.0904C0 30.248 1.752 32 3.90963 32H28.0904C30.248 32 32 30.248 32 28.0904V3.90963C32 1.752 30.2483 0 28.0904 0ZM20.3967 9.70104H18.0578C16.8865 9.70104 16.6196 10.4794 16.6196 11.2945V12.861H20.2243L19.7321 15.9876H16.6196V25.4196H13.5203V15.9876H11.6036V12.861H13.5203V10.9704C13.5203 8.42015 14.2827 6.58104 17.075 6.58104H20.3967V9.70104Z" fill="#2E2E2E"/>
</svg>
