<svg width="295" height="275" viewBox="0 0 295 275" fill="none" xmlns="http://www.w3.org/2000/svg">
<mask id="mask0_1651_736" style="mask-type:alpha" maskUnits="userSpaceOnUse" x="0" y="0" width="295" height="275">
<rect width="295" height="275" rx="14" fill="#0500C4"/>
</mask>
<g mask="url(#mask0_1651_736)">
<g opacity="0.3">
<g clip-path="url(#clip0_1651_736)">
<path d="M175.232 329C171.786 327.515 168.028 327.752 164.44 327.041C125.008 319.192 94.5681 298.785 75.0826 263.101C66.4096 247.208 61.4942 230.203 61.0474 212.045C60.35 183.593 66.8429 157.133 84.5071 134.347C100.323 113.933 121.481 101.849 146.816 97.1654C164.406 93.9121 182.029 93.7901 199.179 99.28C230.696 109.372 252.734 130.003 264.792 160.854C270.364 175.101 270.777 190.059 268.374 205.058C264.02 232.216 249.545 252.365 225.205 264.945C204.562 275.612 182.937 277.449 161.447 267.75C139.145 257.686 126.362 239.834 123.519 215.57C120.567 190.425 135.394 168.208 159.118 160.8C176.938 155.243 196.566 163.748 203.979 179.886C209.186 191.218 204.453 206.996 196.728 213.089C185.178 222.198 168.895 218.559 162.395 205.322C162.212 204.949 162.023 204.583 161.569 203.668C160.729 207.166 160.723 210.209 161.298 213.198C163.397 224.11 172.727 232.582 184.25 234.181C201.596 236.594 219.951 225.465 226.437 208.365C232.287 192.946 229.863 178.158 221.677 164.358C211.251 146.784 195.306 137.648 175.063 136.279C141.494 134.008 109.883 158.048 102.138 192.431C96.017 219.596 102.314 243.405 120.1 264.477C131.589 278.086 145.408 288.395 162.679 293.343C185.455 299.869 207.974 298.229 229.524 288.734C261.305 274.731 281.793 250.549 289.917 216.742C296.722 188.459 292.321 161.22 278.394 135.838C259.836 102.011 231.251 81.177 193.295 74.4266C155.442 67.6964 121.664 78.3982 91.3115 101.232C85.6243 105.515 80.8307 110.775 75.5904 115.539C74.6764 116.373 73.9993 117.464 73.2139 118.44C72.7806 118.494 72.5233 118.386 72.6858 117.878C75.956 111.649 80.2485 106.112 84.7509 100.778C104.379 77.5849 128.84 62.0033 158.57 55.5442C201.664 46.1844 240.777 55.3206 274.982 83.2171C301.596 104.926 318.015 133.202 322.443 167.246C328.672 215.102 316.505 257.659 281.251 291.974C261.515 311.181 237.473 322.391 210.357 326.98C206.451 327.637 202.503 328.024 198.57 328.539C197.608 329.088 196.457 328.362 195.509 329H193.986C192.971 328.586 191.955 328.586 190.946 329H184.352C183.167 328.579 181.989 328.579 180.804 329H175.225H175.232Z" fill="#00008F" fill-opacity="0.5"/>
</g>
</g>
</g>
<defs>
<clipPath id="clip0_1651_736">
<rect width="263" height="277" fill="white" transform="translate(61 52)"/>
</clipPath>
</defs>
</svg>
