<svg width="63" height="57" viewBox="0 0 63 57" fill="none" xmlns="http://www.w3.org/2000/svg">
<path d="M48.5382 48.2068C39.4902 48.2068 34.3422 41.9148 34.3422 30.8388C34.3422 18.1508 39.8022 10.6628 49.0582 10.6628C55.3502 10.6628 59.8222 13.7828 61.3822 19.1388L55.7142 21.2708C54.9342 18.0468 52.5422 16.1228 49.0582 16.1228C43.7022 16.1228 40.3742 21.0108 40.3742 28.7068C41.9862 25.5868 45.3662 23.7668 49.4222 23.7668C56.4942 23.7668 61.3822 28.7588 61.3822 35.8828C61.3822 43.1108 56.0782 48.2068 48.5382 48.2068ZM48.2782 42.7468C52.4902 42.7468 55.3502 39.9388 55.3502 35.8828C55.3502 31.8268 52.4902 29.0708 48.2782 29.0708C44.0142 29.0708 41.1542 31.8268 41.1542 35.8828C41.1542 39.9388 44.0142 42.7468 48.2782 42.7468Z" fill="#0500C4"/>
<g clip-path="url(#clip0_1600_3494)">
<path d="M33.3175 23.2019C29.9569 23.9085 25.7571 24.3283 21.2009 24.3283C10.1702 24.3283 1.22803 21.868 1.22803 18.8331C1.22803 15.7982 10.1702 13.3379 21.2009 13.3379C27.257 13.3379 32.6835 14.0795 36.3464 15.2506" stroke="#0500C4" stroke-width="2" stroke-miterlimit="10" stroke-linecap="round"/>
<path d="M13.1692 39.2654C6.13872 38.4143 1.22803 36.4811 1.22803 34.2324" stroke="#0500C4" stroke-width="2" stroke-miterlimit="10"/>
<path d="M32.9725 38.6738C31.8731 38.8941 30.689 39.0844 29.4341 39.2421" stroke="#0500C4" stroke-width="2" stroke-miterlimit="10" stroke-linecap="round"/>
<path d="M1.22754 42.0312V50.2237" stroke="#0500C4" stroke-width="2" stroke-miterlimit="10" stroke-linecap="round"/>
<path d="M1.21143 18.1738L1.21143 33.9238" stroke="#0500C4" stroke-width="2" stroke-miterlimit="10" stroke-linecap="round"/>
<path d="M41.1924 48.4609L41.1761 50.2224" stroke="#0500C4" stroke-width="2" stroke-miterlimit="10" stroke-linecap="round"/>
<path d="M41.176 50.2227C41.176 53.2571 32.2331 55.7179 21.2032 55.7179C10.1732 55.7179 1.22754 53.2571 1.22754 50.2227" stroke="#0500C4" stroke-width="2" stroke-miterlimit="10"/>
<path d="M21.2005 47.4058C25.6378 47.4058 29.2349 43.8207 29.2349 39.3982C29.2349 34.9757 25.6378 31.3906 21.2005 31.3906C16.7632 31.3906 13.166 34.9757 13.166 39.3982C13.166 43.8207 16.7632 47.4058 21.2005 47.4058Z" stroke="#0500C4" stroke-width="2" stroke-miterlimit="10"/>
</g>
<defs>
<clipPath id="clip0_1600_3494">
<rect width="42.4038" height="56.9423" fill="white"/>
</clipPath>
</defs>
</svg>
