<svg width="61" height="57" viewBox="0 0 61 57" fill="none" xmlns="http://www.w3.org/2000/svg">
<path d="M46.7787 48.1501C37.7307 48.1501 32.5827 41.8581 32.5827 30.7821C32.5827 18.0941 38.0427 10.6061 47.2987 10.6061C53.5907 10.6061 58.0627 13.7261 59.6227 19.0821L53.9547 21.2141C53.1747 17.9901 50.7827 16.0661 47.2987 16.0661C41.9427 16.0661 38.6147 20.9541 38.6147 28.6501C40.2267 25.5301 43.6067 23.7101 47.6627 23.7101C54.7347 23.7101 59.6227 28.7021 59.6227 35.8261C59.6227 43.0541 54.3187 48.1501 46.7787 48.1501ZM46.5187 42.6901C50.7307 42.6901 53.5907 39.8821 53.5907 35.8261C53.5907 31.7701 50.7307 29.0141 46.5187 29.0141C42.2547 29.0141 39.3947 31.7701 39.3947 35.8261C39.3947 39.8821 42.2547 42.6901 46.5187 42.6901Z" fill="#0500C4"/>
<g clip-path="url(#clip0_1600_3479)">
<path d="M20.8639 12.021C31.7195 12.021 40.5197 9.59979 40.5197 6.61305C40.5197 3.62631 31.7195 1.20508 20.8639 1.20508C10.0082 1.20508 1.20801 3.62631 1.20801 6.61305C1.20801 9.59979 10.0082 12.021 20.8639 12.021Z" stroke="#0500C4" stroke-width="2" stroke-miterlimit="10"/>
<path d="M12.9596 30.2968C6.04076 29.4593 1.20801 27.5567 1.20801 25.3438" stroke="#0500C4" stroke-width="2" stroke-miterlimit="10"/>
<path d="M32.4491 29.7129C31.3671 29.9296 30.2018 30.1169 28.9668 30.2722" stroke="#0500C4" stroke-width="2" stroke-miterlimit="10" stroke-linecap="round"/>
<path d="M1.20801 41.3633V49.4257" stroke="#0500C4" stroke-width="2" stroke-miterlimit="10" stroke-linecap="round"/>
<path d="M1.20801 6.61133V33.3247" stroke="#0500C4" stroke-width="2" stroke-miterlimit="10" stroke-linecap="round"/>
<path d="M40.5386 47.6914L40.5226 49.4249" stroke="#0500C4" stroke-width="2" stroke-miterlimit="10" stroke-linecap="round"/>
<path d="M40.5386 7.1543L40.5386 10.7312" stroke="#0500C4" stroke-width="2" stroke-miterlimit="10" stroke-linecap="round"/>
<path d="M40.5224 49.4258C40.5224 52.4121 31.7214 54.8337 20.8666 54.8337C10.0117 54.8337 1.20801 52.4121 1.20801 49.4258" stroke="#0500C4" stroke-width="2" stroke-miterlimit="10"/>
<path d="M20.8639 38.3079C25.2308 38.3079 28.7709 34.7796 28.7709 30.4274C28.7709 26.0751 25.2308 22.5469 20.8639 22.5469C16.4971 22.5469 12.957 26.0751 12.957 30.4274C12.957 34.7796 16.4971 38.3079 20.8639 38.3079Z" stroke="#0500C4" stroke-width="2" stroke-miterlimit="10"/>
</g>
<defs>
<clipPath id="clip0_1600_3479">
<rect width="41.7308" height="56.0385" fill="white"/>
</clipPath>
</defs>
</svg>
