<svg width="65" height="95" viewBox="0 0 65 95" fill="none" xmlns="http://www.w3.org/2000/svg">
<g clip-path="url(#clip0_1692_485)">
<path d="M0 21.1602L11.1467 90.3191C23.9264 96.9184 39.4216 96.2278 53.4546 90.3191L64.981 21.2369C57.4803 26.2056 44.7575 28.8146 32.5285 28.8146C20.2994 28.8146 7.48174 26.1672 0 21.1602Z" fill="#02C6E4"/>
<path d="M61.6389 6.71446C55.9041 3.79847 47.5299 2.26373 39.5924 1.97597C28.066 1.55392 16.8054 4.06704 11.6024 8.15327C11.4694 8.26838 11.3555 8.3643 11.2226 8.4794C8.94388 10.3978 8.07038 12.4313 8.65905 14.484C9.95031 18.9923 19.0651 22.6181 30.3257 23.1361C37.4277 23.4431 43.4282 22.6373 48.1945 20.7381C53.9483 18.436 55.7522 15.7502 53.5495 12.7958C51.0429 9.43861 42.2319 7.34754 33.9147 8.13409C27.7242 8.7288 23.3757 10.9733 23.5845 13.4481C23.7365 15.3473 27.2495 16.9396 31.9398 17.2466C35.13 17.4576 38.2062 16.8437 39.4215 15.7694C40.352 14.9637 39.9153 13.9085 38.4151 13.3138C37.7125 13.0452 36.6301 12.8918 35.5098 12.9301C34.4274 12.9685 33.4969 13.1603 32.9652 13.4673C32.5664 13.6975 32.4145 13.9853 32.5474 14.2538C32.6804 14.5608 33.1361 14.8294 33.8197 15.002C33.8387 15.002 33.8577 15.002 33.8957 15.002C33.8767 15.002 33.8387 15.002 33.8197 15.002C33.4589 15.0596 33.0602 15.0404 32.5854 15.002C30.7435 14.8677 29.3952 14.2538 29.1294 13.4481C28.7496 12.2971 30.5346 11.0501 33.383 10.4937C36.9719 9.80311 40.6179 9.97577 44.1878 11.0309C48.4034 12.2779 49.9985 14.5416 48.1566 16.671C45.9348 19.2225 40.295 20.8532 33.4399 20.9107C24.6479 20.9875 16.5585 18.4744 14.6406 15.0788C12.7797 11.7983 15.0394 8.93982 21.3438 6.58017C23.1478 5.90872 25.0847 5.39075 27.1165 4.98788C31.8069 4.04786 37.0289 3.79847 42.5927 4.14378C51.0999 4.66175 58.3917 6.86793 61.506 10.0525C65.2468 13.8702 64.6012 18.0715 57.3094 21.7357C51.8405 24.479 42.7446 26.148 33.8387 26.148C16.1028 26.2248 1.02539 20.9107 1.02539 12.815C1.02539 5.73607 15.4572 0 33.269 0C45.5171 0 56.189 2.72415 61.6389 6.71446Z" fill="#004DFD"/>
</g>
<defs>
<clipPath id="clip0_1692_485">
<rect width="65" height="95" fill="white"/>
</clipPath>
</defs>
</svg>
