<svg width="35" height="35" viewBox="0 0 35 35" fill="none" xmlns="http://www.w3.org/2000/svg">
<path d="M0 18.6071C0 17.8779 0 17.1504 0 16.4211C0.0410693 16.1065 0.0839243 15.7937 0.123208 15.4791C0.751747 10.5029 3.0677 6.47932 7.07464 3.48534C12.7119 -0.727671 20.1847 -1.16023 26.2701 2.40036C30.9324 5.12801 33.7483 9.21411 34.7375 14.5336C34.8536 15.1574 34.9143 15.7919 35 16.4211V18.6071C34.95 19.0236 34.9054 19.4401 34.8464 19.8548C34.3518 23.3618 32.9501 26.4594 30.5931 29.103C27.8968 32.1256 24.5434 34.0114 20.549 34.7299C19.9026 34.8461 19.2472 34.9122 18.5955 34.9998H16.4081C16.3206 34.9802 16.2349 34.9498 16.1456 34.9426C12.6601 34.6656 9.52094 33.4715 6.77287 31.3123C3.23555 28.5364 1.05173 24.9276 0.262487 20.4947C0.149992 19.8691 0.0857099 19.2363 0 18.6071ZM18.1169 5.09762C18.1169 5.26028 18.1169 5.39434 18.1169 5.53018C18.1169 10.9944 18.1169 16.4568 18.1116 21.9211C18.1116 22.1695 18.0955 22.4216 18.0562 22.6682C17.7634 24.4503 16.2242 25.7122 14.4153 25.664C12.6422 25.6157 11.153 24.2537 10.9494 22.4931C10.7441 20.7199 11.903 19.0486 13.6332 18.6036C14.2778 18.4373 14.9171 18.4677 15.5724 18.6375V14.3012C15.4367 14.2815 15.3135 14.2565 15.1903 14.2458C10.0941 13.8186 5.9622 18.264 6.7568 23.3171C7.54426 28.3219 12.8493 31.2927 17.5277 29.3515C20.5115 28.1128 22.3899 25.2815 22.4024 21.9747C22.4131 19.2649 22.4042 16.5569 22.4042 13.8472C22.4042 13.7185 22.4042 13.5916 22.4042 13.4039C24.2345 14.6605 26.1755 15.2932 28.3325 15.3022V11.0409C26.6933 10.9908 25.2862 10.426 24.1398 9.27667C22.9953 8.13092 22.4346 6.7242 22.3935 5.10119H18.1187L18.1169 5.09762Z" fill="white"/>
</svg>
