<svg width="105" height="99" viewBox="0 0 105 99" fill="none" xmlns="http://www.w3.org/2000/svg">
<g clip-path="url(#clip0_1777_1609)">
<path d="M62.1099 89.0401C63.3599 89.0401 64.5599 88.8301 65.6799 88.4401C63.3099 92.9701 58.1399 95.9901 52.2799 95.9901C46.4199 95.9901 41.2399 92.9601 38.8799 88.4301C39.9999 88.8201 41.1999 89.0301 42.4499 89.0301H62.1099V89.0401Z" stroke="#443D72" stroke-width="5" stroke-linejoin="round"/>
<path d="M76.77 42.3001L75.94 45.8801L70.19 70.7301C68.19 68.5401 65.31 67.1701 62.11 67.1701H42.45C39.43 67.1701 36.69 68.3901 34.71 70.3701C34.59 70.4901 34.47 70.6101 34.37 70.7401L28.61 45.8801L27.78 42.3001C27.01 38.9701 27.02 35.6601 27.66 32.5301C29.67 22.8101 37.93 14.9801 48.56 14.5801C48.89 14.5701 49.23 14.5601 49.57 14.5601H54.98C55.32 14.5601 55.66 14.5601 55.99 14.5801C66.61 14.9801 74.88 22.8101 76.89 32.5301C77.54 35.6501 77.54 38.9701 76.77 42.3001Z" stroke="#443D72" stroke-width="5" stroke-linejoin="round"/>
<path d="M73.05 78.1C73.05 81.12 71.83 83.86 69.85 85.84C68.69 87 67.27 87.9 65.68 88.44C64.56 88.83 63.36 89.04 62.11 89.04H42.45C41.2 89.04 39.99 88.83 38.88 88.44C34.6 86.97 31.51 82.89 31.51 78.1C31.51 75.26 32.59 72.68 34.37 70.73C34.48 70.61 34.59 70.49 34.71 70.36C36.69 68.38 39.43 67.16 42.45 67.16H62.11C65.31 67.16 68.19 68.53 70.19 70.72C71.96 72.67 73.05 75.25 73.05 78.09V78.1Z" stroke="#443D72" stroke-width="5" stroke-linejoin="round"/>
<path d="M28.61 45.88C24.08 47.41 18.98 47.33 14.25 45.26C7.78 42.44 3.55 36.61 2.5 30.13C7.96 26.48 15.11 25.6 21.59 28.42C23.92 29.43 25.96 30.84 27.67 32.53C27.02 35.65 27.02 38.97 27.79 42.3L28.62 45.88H28.61Z" stroke="#443D72" stroke-width="5" stroke-linejoin="round"/>
<path d="M102.06 30.14C101.01 36.62 96.7799 42.45 90.3099 45.27C85.5699 47.33 80.4799 47.41 75.9399 45.89L76.7699 42.31C77.5399 38.98 77.5399 35.67 76.8899 32.54C78.5999 30.85 80.6399 29.44 82.9699 28.43C89.4499 25.61 96.5899 26.49 102.06 30.14Z" stroke="#443D72" stroke-width="5" stroke-linejoin="round"/>
<path d="M28.15 30.63C9.23003 19.35 16.87 2.5 16.87 2.5C16.87 2.5 19.61 17.17 32.99 21.96" stroke="#443D72" stroke-width="5" stroke-linejoin="round"/>
<path d="M75.61 30.63C94.52 19.35 86.89 2.5 86.89 2.5C86.89 2.5 84.15 17.17 70.77 21.96" stroke="#443D72" stroke-width="5" stroke-linejoin="round"/>
<path d="M38.6199 48.12C40.6579 48.12 42.3099 46.4679 42.3099 44.43C42.3099 42.3921 40.6579 40.74 38.6199 40.74C36.582 40.74 34.9299 42.3921 34.9299 44.43C34.9299 46.4679 36.582 48.12 38.6199 48.12Z" fill="#443D72"/>
<path d="M65.7701 48.12C67.808 48.12 69.4601 46.4679 69.4601 44.43C69.4601 42.3921 67.808 40.74 65.7701 40.74C63.7321 40.74 62.0801 42.3921 62.0801 44.43C62.0801 46.4679 63.7321 48.12 65.7701 48.12Z" fill="#443D72"/>
</g>
<defs>
<clipPath id="clip0_1777_1609">
<rect width="104.56" height="98.5" fill="white"/>
</clipPath>
</defs>
</svg>
