<svg width="20" height="21" viewBox="0 0 20 21" fill="none" xmlns="http://www.w3.org/2000/svg">
<g clip-path="url(#clip0_596_610)">
<path d="M4.91744 10.2364L4.7197 8.30368L4.49371 6.0911C4.36985 4.85683 5.339 3.78741 6.57976 3.78741H13.4203C14.6067 3.78741 15.5454 4.76572 15.515 5.93275C15.515 5.98481 15.5107 6.03687 15.5063 6.0911L15.2629 8.49674L14.4546 16.4403C14.2221 18.7202 12.2968 20.4577 10 20.4577C7.70319 20.4577 5.77794 18.7202 5.5476 16.4403L5.21514 13.1757" stroke="#1D192F" stroke-linecap="round" stroke-linejoin="round"/>
<path d="M5.68445 17.0043C5.68445 15.5965 6.82743 14.4577 8.23551 14.4577H11.7644C13.1747 14.4577 14.3155 15.5987 14.3155 17.0043" stroke="#1D192F" stroke-linecap="round" stroke-linejoin="round"/>
<path d="M19.4567 5.93274C19.1916 7.46419 17.8552 8.62905 16.2428 8.62905C15.9212 8.62905 15.6127 8.5835 15.3193 8.49673L15.5627 6.09109C15.5671 6.03686 15.5714 5.9848 15.5714 5.93274H19.4567Z" stroke="#1D192F" stroke-linecap="round" stroke-linejoin="round"/>
<path d="M0.543213 5.93274C0.808315 7.46419 2.14469 8.62905 3.75703 8.62905C4.07863 8.62905 4.38719 8.5835 4.68054 8.49673L4.43717 6.09109C4.43283 6.03686 4.42848 5.9848 4.42848 5.93274H0.543213Z" stroke="#1D192F" stroke-linecap="round" stroke-linejoin="round"/>
<path d="M7.42285 3.78742H6.58191C5.34115 3.78742 4.37201 4.85683 4.49587 6.0911L4.04389 2.31453C3.93741 1.36876 4.67839 0.542297 5.63233 0.542297C6.03867 0.542297 6.41242 0.694141 6.69708 0.947937C6.97957 1.20173 7.17513 1.55531 7.21859 1.95878L7.42285 3.78742Z" stroke="#1D192F" stroke-linecap="round" stroke-linejoin="round"/>
<path d="M12.6053 3.78742H13.4463C14.6871 3.78742 15.6562 4.85683 15.5323 6.0911L15.9843 2.31453C16.0908 1.36876 15.3498 0.542297 14.3959 0.542297C13.9895 0.542297 13.6158 0.694141 13.3311 0.947937C13.0486 1.20173 12.8531 1.55531 12.8096 1.95878L12.6053 3.78742Z" stroke="#1D192F" stroke-linecap="round" stroke-linejoin="round"/>
<path d="M7.93567 9.19739C8.46612 9.19739 8.89612 8.76812 8.89612 8.2386C8.89612 7.70908 8.46612 7.27982 7.93567 7.27982C7.40523 7.27982 6.97522 7.70908 6.97522 8.2386C6.97522 8.76812 7.40523 9.19739 7.93567 9.19739Z" fill="#1D192F"/>
<path d="M12.0643 9.19739C12.5948 9.19739 13.0248 8.76812 13.0248 8.2386C13.0248 7.70908 12.5948 7.27982 12.0643 7.27982C11.5339 7.27982 11.1039 7.70908 11.1039 8.2386C11.1039 8.76812 11.5339 9.19739 12.0643 9.19739Z" fill="#1D192F"/>
</g>
<defs>
<clipPath id="clip0_596_610">
<rect width="20" height="21" fill="white"/>
</clipPath>
</defs>
</svg>
