<svg width="87" height="81" viewBox="0 0 87 81" fill="none" xmlns="http://www.w3.org/2000/svg">
<g clip-path="url(#clip0_2559_109)">
<path d="M9.58984 54.3199H51.7898V21.8999H72.4498L84.5499 42.3499V66.9099H73.5398" stroke="#443D72" stroke-width="4" stroke-linecap="round" stroke-linejoin="round"/>
<path d="M62.1201 26.1399V42.4899H78.3301" stroke="#443D72" stroke-width="4" stroke-linecap="round" stroke-linejoin="round"/>
<path d="M2 10.0701H31.44C39.2 10.0701 45.49 16.3601 45.49 24.1201V33.7601C45.49 41.5201 39.2 47.8101 31.44 47.8101H2" stroke="#443D72" stroke-width="4" stroke-linecap="round" stroke-linejoin="round"/>
<path d="M11.6098 78.12C16.4644 78.12 20.3998 74.1846 20.3998 69.33C20.3998 64.4755 16.4644 60.54 11.6098 60.54C6.75524 60.54 2.81982 64.4755 2.81982 69.33C2.81982 74.1846 6.75524 78.12 11.6098 78.12Z" stroke="#443D72" stroke-width="4" stroke-linecap="round" stroke-linejoin="round"/>
<path d="M65.4902 78.12C70.3448 78.12 74.2802 74.1846 74.2802 69.33C74.2802 64.4755 70.3448 60.54 65.4902 60.54C60.6356 60.54 56.7002 64.4755 56.7002 69.33C56.7002 74.1846 60.6356 78.12 65.4902 78.12Z" stroke="#443D72" stroke-width="4" stroke-linecap="round" stroke-linejoin="round"/>
<path d="M20.6499 66.9099H49.8499" stroke="#443D72" stroke-width="4" stroke-linecap="round" stroke-linejoin="round"/>
<path d="M12.8701 10.07V4.05C12.8701 2.92 13.7901 2 14.9201 2H25.0401C26.1701 2 27.0901 2.92 27.0901 4.05V10.07" stroke="#443D72" stroke-width="4" stroke-linecap="round" stroke-linejoin="round"/>
</g>
<defs>
<clipPath id="clip0_2559_109">
<rect width="86.55" height="80.12" fill="white"/>
</clipPath>
</defs>
</svg>
