<svg width="32" height="32" viewBox="0 0 32 32" fill="none" xmlns="http://www.w3.org/2000/svg">
<path d="M16 2.66528C23.3649 2.66528 29.3353 8.63575 29.3353 16.0007C29.3353 23.3657 23.3649 29.3361 16 29.3361C8.63502 29.3361 2.66455 23.3657 2.66455 16.0007C2.66455 8.63575 8.63502 2.66528 16 2.66528ZM16 4.66528C9.73959 4.66528 4.66455 9.74032 4.66455 16.0007C4.66455 22.2611 9.73959 27.3361 16 27.3361C22.2603 27.3361 27.3353 22.2611 27.3353 16.0007C27.3353 9.74032 22.2603 4.66528 16 4.66528ZM15.9951 13.9994C16.5013 13.9991 16.92 14.375 16.9865 14.863L16.9957 14.9987L17.0005 22.3342C17.0009 22.8865 16.5535 23.3345 16.0012 23.3349C15.4949 23.3351 15.0763 22.9593 15.0097 22.4713L15.0005 22.3355L14.9957 15.0001C14.9953 14.4478 15.4428 13.9998 15.9951 13.9994ZM16.0005 9.33571C16.736 9.33571 17.3321 9.93187 17.3321 10.6673C17.3321 11.4027 16.736 11.9988 16.0005 11.9988C15.2652 11.9988 14.6689 11.4027 14.6689 10.6673C14.6689 9.93187 15.2652 9.33571 16.0005 9.33571Z" fill="#8FD2EA"/>
</svg>
